Seventy-Color.ufo
<glyph name="ampersand" format="2">
  <advance height="1024" width="525"/>
  <unicode hex="0026"/>
  <outline>
    <contour>
      <point x="298.24325" y="616.37115" type="line"/>
      <point x="364.81345999999996" y="671.71994" type="line" smooth="yes"/>
      <point x="370.33081999999996" y="676.30726"/>
      <point x="372.30844999999994" y="685.2875"/>
      <point x="368.80625" y="691.5488" type="curve" smooth="yes"/>
      <point x="354.8737" y="716.45769"/>
      <point x="336.0188" y="738.611239"/>
      <point x="313.61517" y="756.297225" type="curve" smooth="yes"/>
      <point x="283.40085" y="780.14917"/>
      <point x="246.33428" y="795.8693284"/>
      <point x="207.9126" y="798.2345863" type="curve" smooth="yes"/>
      <point x="169.49091" y="800.59984426"/>
      <point x="129.89378" y="789.075793"/>
      <point x="100.40943" y="764.327191" type="curve" smooth="yes"/>
      <point x="80.822466" y="747.886268"/>
      <point x="65.994701" y="725.996097"/>
      <point x="57.219934" y="701.976177" type="curve" smooth="yes"/>
      <point x="48.445166" y="677.95626"/>
      <point x="45.662188" y="651.8701599999999"/>
      <point x="48.352187" y="626.43953" type="curve" smooth="yes"/>
      <point x="53.732184000000004" y="575.57827"/>
      <point x="80.899287" y="528.45629"/>
      <point x="118.18257" y="493.4453" type="curve" smooth="yes"/>
      <point x="142.20312" y="470.88872999999995"/>
      <point x="170.39162" y="452.90153999999995"/>
      <point x="200.60982" y="439.76205999999996" type="curve" smooth="yes"/>
      <point x="210.58552" y="435.42443"/>
      <point x="220.78701" y="431.60614"/>
      <point x="231.1592" y="428.32782" type="curve"/>
      <point x="232.23293" y="466.20579" type="line"/>
      <point x="215.85057" y="464.53924"/>
      <point x="199.63384000000002" y="461.24866"/>
      <point x="183.89759" y="456.39794" type="curve" smooth="yes"/>
      <point x="111.7629" y="434.16231"/>
      <point x="50.748334" y="376.81679"/>
      <point x="26.659226000000018" y="305.27973" type="curve" smooth="yes"/>
      <point x="14.235006000000018" y="268.38370999999995"/>
      <point x="11.420248000000019" y="228.33736999999996"/>
      <point x="18.249560000000017" y="190.00933999999995" type="curve" smooth="yes"/>
      <point x="25.07887200000002" y="151.68130999999994"/>
      <point x="41.508634000000015" y="115.13965999999994"/>
      <point x="65.39633900000001" y="84.39790999999991" type="curve" smooth="yes"/>
      <point x="113.17175" y="22.91440999999986"/>
      <point x="190.99654" y="-13.371850000000109"/>
      <point x="268.85767" y="-12.776210000000106" type="curve" smooth="yes"/>
      <point x="327.58884" y="-12.326910000000112"/>
      <point x="386.14022" y="8.498799999999846"/>
      <point x="431.29052" y="46.06210999999985" type="curve" smooth="yes"/>
      <point x="476.44082000000003" y="83.62541999999985"/>
      <point x="507.69329000000005" y="137.79124999999988"/>
      <point x="516.57398" y="195.84884999999986" type="curve" smooth="yes"/>
      <point x="527.40936" y="266.68525999999986"/>
      <point x="504.25889" y="341.44251999999983"/>
      <point x="457.24592" y="395.52562999999986" type="curve" smooth="yes"/>
      <point x="445.56735000000003" y="408.9605099999999"/>
      <point x="432.50532" y="421.19209999999987"/>
      <point x="418.33334" y="431.9642899999999" type="curve"/>
      <point x="420.58971" y="376.0132599999999" type="line"/>
      <point x="440.04241" y="386.5102899999999"/>
      <point x="457.70238" y="400.3194999999999"/>
      <point x="472.58016000000003" y="416.6671899999999" type="curve" smooth="yes"/>
      <point x="495.60474000000005" y="441.9665799999999"/>
      <point x="511.79582000000005" y="473.4042399999999"/>
      <point x="519.16498" y="506.8004999999999" type="curve" smooth="yes"/>
      <point x="520.71079" y="513.8059199999999"/>
      <point x="516.8287" y="522.9890499999999"/>
      <point x="511.02214000000004" y="527.20436" type="curve" smooth="yes"/>
      <point x="425.98133" y="588.9403" type="line" smooth="yes"/>
      <point x="420.17477" y="593.15561"/>
      <point x="418.0924" y="591.35843"/>
      <point x="420.51370000000003" y="584.60785" type="curve" smooth="yes"/>
      <point x="430.72367" y="556.14249"/>
      <point x="430.16285000000005" y="523.8453400000001"/>
      <point x="418.57911" y="495.87568" type="curve" smooth="yes"/>
      <point x="405.02737" y="463.15416"/>
      <point x="378.15327" y="438.00889"/>
      <point x="350.9931" y="415.27845" type="curve" smooth="yes"/>
      <point x="323.83293000000003" y="392.54801000000003"/>
      <point x="295.09172" y="370.58657000000005"/>
      <point x="275.56147000000004" y="341.0414" type="curve" smooth="yes"/>
      <point x="249.65278000000004" y="301.84697"/>
      <point x="242.92187000000004" y="250.72874000000002"/>
      <point x="257.11049" y="206.01792" type="curve" smooth="yes"/>
      <point x="259.28016" y="199.18091000000004"/>
      <point x="267.36271000000005" y="193.2586"/>
      <point x="274.50441" y="192.56507999999997" type="curve" smooth="yes"/>
      <point x="375.31111" y="182.77600999999993" type="line" smooth="yes"/>
      <point x="382.45281" y="182.0824899999999"/>
      <point x="382.94804" y="184.01969999999994"/>
      <point x="377.05100999999996" y="188.09595999999988" type="curve" smooth="yes"/>
      <point x="363.72423999999995" y="197.30793999999992"/>
      <point x="352.90032999999994" y="210.15258999999992"/>
      <point x="346.22992999999997" y="224.92458999999985" type="curve" smooth="yes"/>
      <point x="337.77657999999997" y="243.64500999999984"/>
      <point x="336.05627" y="265.32259999999985"/>
      <point x="341.45113999999995" y="285.1419999999998" type="curve" smooth="yes"/>
      <point x="349.14827999999994" y="313.4193599999998"/>
      <point x="370.11074999999994" y="336.0507999999998"/>
      <point x="392.01712" y="355.51784999999984" type="curve" smooth="yes"/>
      <point x="397.61929999999995" y="360.4962199999998"/>
      <point x="403.33144999999996" y="365.35083999999983"/>
      <point x="409.14799" y="370.0769799999998" type="curve"/>
      <point x="355.42035" y="371.73641999999984" type="line"/>
      <point x="369.55345" y="364.05289999999985"/>
      <point x="382.74415" y="354.6379299999998"/>
      <point x="394.60364" y="343.76900999999987" type="curve" smooth="yes"/>
      <point x="409.75156999999996" y="329.88631999999984"/>
      <point x="422.7629" y="313.55548999999985"/>
      <point x="432.06735" y="295.23566999999986" type="curve" smooth="yes"/>
      <point x="441.37179999999995" y="276.9158399999999"/>
      <point x="446.91164999999995" y="256.5801299999998"/>
      <point x="447.23866" y="236.03549999999984" type="curve" smooth="yes"/>
      <point x="447.57191" y="215.09889999999984"/>
      <point x="442.46756" y="194.16467999999986"/>
      <point x="433.03389999999996" y="175.47087999999985" type="curve" smooth="yes"/>
      <point x="423.60022999999995" y="156.77707999999984"/>
      <point x="409.89029999999997" y="140.3240199999999"/>
      <point x="393.55369999999994" y="127.22563999999988" type="curve" smooth="yes"/>
      <point x="360.8804799999999" y="101.02887999999984"/>
      <point x="318.24658999999997" y="88.78093999999987"/>
      <point x="276.37132999999994" y="89.30216999999993" type="curve" smooth="yes"/>
      <point x="231.45209999999994" y="89.86128999999994"/>
      <point x="186.19498999999996" y="105.12286999999992"/>
      <point x="152.58348999999993" y="134.92751999999996" type="curve" smooth="yes"/>
      <point x="118.97198999999992" y="164.73217"/>
      <point x="98.07841599999992" y="209.49573999999996"/>
      <point x="100.58443999999993" y="254.34849999999994" type="curve" smooth="yes"/>
      <point x="102.39008999999993" y="286.66603"/>
      <point x="116.11380999999993" y="317.98222999999996"/>
      <point x="137.72103999999993" y="342.08225999999996" type="curve" smooth="yes"/>
      <point x="159.32825999999994" y="366.18228"/>
      <point x="188.56156999999993" y="383.09076999999996"/>
      <point x="219.93284999999992" y="391.06111" type="curve" smooth="yes"/>
      <point x="228.87742999999992" y="393.33360999999996"/>
      <point x="238.00038999999992" y="394.90283"/>
      <point x="247.1897999999999" y="395.75369" type="curve" smooth="yes"/>
      <point x="254.33291999999992" y="396.41509"/>
      <point x="261.1570299999999" y="402.20585"/>
      <point x="262.3883799999999" y="409.2747" type="curve" smooth="yes"/>
      <point x="274.4791199999999" y="478.68473" type="line" smooth="yes"/>
      <point x="275.71046999999993" y="485.75358"/>
      <point x="270.8877999999999" y="491.78426"/>
      <point x="263.7880499999999" y="492.80854" type="curve" smooth="yes"/>
      <point x="221.25308999999987" y="498.94506"/>
      <point x="181.3092799999999" y="522.28165"/>
      <point x="155.43496999999988" y="556.65043" type="curve" smooth="yes"/>
      <point x="138.06472999999988" y="579.72327"/>
      <point x="126.81747999999988" y="608.19049"/>
      <point x="128.01702999999986" y="637.04603" type="curve" smooth="yes"/>
      <point x="128.61680999999987" y="651.4738"/>
      <point x="132.33864999999986" y="665.8254400000001"/>
      <point x="139.31926999999988" y="678.4663" type="curve" smooth="yes"/>
      <point x="146.2998799999999" y="691.10716"/>
      <point x="156.57778999999988" y="701.98986"/>
      <point x="169.0839099999999" y="709.2090900000001" type="curve" smooth="yes"/>
      <point x="183.81390999999988" y="717.712068"/>
      <point x="201.4444899999999" y="720.942802"/>
      <point x="218.29356999999987" y="718.62284" type="curve" smooth="yes"/>
      <point x="235.1426399999999" y="716.302879"/>
      <point x="251.1333299999999" y="708.510857"/>
      <point x="263.62921999999986" y="696.97282" type="curve" smooth="yes"/>
      <point x="275.52745999999985" y="685.98662"/>
      <point x="284.28235999999987" y="671.6333500000001"/>
      <point x="288.6048999999999" y="656.02629" type="curve" smooth="yes"/>
      <point x="291.7713399999999" y="644.59348"/>
      <point x="292.55206999999984" y="632.51397"/>
      <point x="290.9542299999999" y="620.76082" type="curve" smooth="yes"/>
      <point x="289.98854999999986" y="613.65755"/>
      <point x="292.7258899999999" y="611.78383"/>
      <point x="298.2432499999999" y="616.37115" type="curve"/>
    </contour>
  </outline>
</glyph>
<glyph name="asterisk" format="2">
  <advance height="1024" width="644"/>
  <unicode hex="002A"/>
  <outline>
    <contour>
      <point x="249.03933" y="679.6043999999999" type="line"/>
      <point x="401.22923000000003" y="678.76245" type="line" smooth="yes"/>
      <point x="406.02095577914633" y="678.7359422873953"/>
      <point x="410.5507931006322" y="676.572142928944"/>
      <point x="413.5826860345579" y="672.861487482992" type="curve" smooth="yes"/>
      <point x="416.61457896848367" y="669.1508320370397"/>
      <point x="417.8320873952157" y="664.2806033921405"/>
      <point x="416.90299000000005" y="659.57974" type="curve" smooth="yes"/>
      <point x="371.53904000000006" y="430.05637" type="line"/>
      <point x="608.54439" y="508.98421" type="line" smooth="yes"/>
      <point x="613.0016250085534" y="510.46856581904683"/>
      <point x="617.8931692643022" y="509.83006875296616"/>
      <point x="621.8200451818416" y="507.25132843116944" type="curve" smooth="yes"/>
      <point x="625.7469210993811" y="504.67258810937267"/>
      <point x="628.2766789152909" y="500.4375899863287"/>
      <point x="628.6858100000002" y="495.7575399999999" type="curve" smooth="yes"/>
      <point x="643.06659" y="331.25594" type="line" smooth="yes"/>
      <point x="643.4860500815785" y="326.45774773831573"/>
      <point x="641.7573213822583" y="321.72040604987757"/>
      <point x="638.346099237037" y="318.3200885329275" type="curve" smooth="yes"/>
      <point x="634.934877091816" y="314.91977101597746"/>
      <point x="630.1920246391152" y="313.20621920737136"/>
      <point x="625.3952" y="313.64104" type="curve" smooth="yes"/>
      <point x="378.88966" y="335.98619" type="line"/>
      <point x="629.19394" y="148.61636999999996" type="line" smooth="yes"/>
      <point x="633.1313322526287" y="145.66896504352724"/>
      <point x="635.6109509261146" y="141.1705552852692"/>
      <point x="636.0008039306373" y="136.2676716069259" type="curve" smooth="yes"/>
      <point x="636.39065693516" y="131.3647879285826"/>
      <point x="634.6530845381308" y="126.5310480427205"/>
      <point x="631.2309499999999" y="122.99844999999993" type="curve" smooth="yes"/>
      <point x="525.6076" y="13.96569999999997" type="line" smooth="yes"/>
      <point x="522.3130577549106" y="10.564813766090765"/>
      <point x="517.6542384714153" y="8.841053449225683"/>
      <point x="512.9395100910745" y="9.278514396376409" type="curve" smooth="yes"/>
      <point x="508.22478171073357" y="9.71597534352702"/>
      <point x="503.96264690040437" y="12.267475609027201"/>
      <point x="501.35006999999996" y="16.216459999999984" type="curve" smooth="yes"/>
      <point x="325.18003" y="282.50224000000003" type="line"/>
      <point x="167.66191" y="16.727030000000013" type="line" smooth="yes"/>
      <point x="165.26787975409744" y="12.687660969392823"/>
      <point x="161.15491163652902" y="9.968006667482769"/>
      <point x="156.5006699200909" y="9.346784461913899" type="curve" smooth="yes"/>
      <point x="151.84642820365278" y="8.725562256345029"/>
      <point x="147.16414267504982" y="10.271275194334066"/>
      <point x="143.79449000000002" y="13.541339999999991" type="curve" smooth="yes"/>
      <point x="31.854641" y="122.17286000000001" type="line" smooth="yes"/>
      <point x="28.334654411269746" y="125.58881386641451"/>
      <point x="26.4612153019755" y="130.3583869166282"/>
      <point x="26.715404962538614" y="135.25679829367448" type="curve" smooth="yes"/>
      <point x="26.969594623101734" y="140.15520967072052"/>
      <point x="29.32664972329802" y="144.70525279493324"/>
      <point x="33.18130099999999" y="147.73852" type="curve" smooth="yes"/>
      <point x="272.61938" y="336.15502" type="line"/>
      <point x="21.427639" y="313.62286" type="line" smooth="yes"/>
      <point x="16.57550146167557" y="313.1876181371624"/>
      <point x="11.774852656636483" y="314.8903350225199"/>
      <point x="8.281354016123885" y="318.28564670463686" type="curve" smooth="yes"/>
      <point x="4.787855375611343" y="321.6809583867538"/>
      <point x="2.94900962957027" y="326.4311289166686"/>
      <point x="3.2457866999999396" y="331.29369999999994" type="curve" smooth="yes"/>
      <point x="13.281227" y="495.71978" type="line" smooth="yes"/>
      <point x="13.56618297449836" y="500.3886692177081"/>
      <point x="15.984821592212214" y="504.666378216647"/>
      <point x="19.838601311918353" y="507.31743617652177" type="curve" smooth="yes"/>
      <point x="23.692381031624507" y="509.96849413639654"/>
      <point x="28.55210678561083" y="510.6976529933964"/>
      <point x="33.01421200000003" y="509.29432" type="curve" smooth="yes"/>
      <point x="282.7304" y="430.75852000000003" type="line"/>
      <point x="233.65408999999997" y="660.6961200000001" type="line" smooth="yes"/>
      <point x="232.6653098109309" y="665.3288546017413"/>
      <point x="233.82904522958466" y="670.1601088650419"/>
      <point x="236.81881738082643" y="673.8345038677771" type="curve" smooth="yes"/>
      <point x="239.80858953206825" y="677.5088988705123"/>
      <point x="244.30232363858204" y="679.6306084786454"/>
      <point x="249.03932999999992" y="679.6044" type="curve"/>
    </contour>
  </outline>
</glyph>
<glyph name="period" format="2">
	<unicode hex="002E"/>
	<advance height="1024" width="158"/>
	<outline>
		<contour>
			<point x="146.36966" y="230.99733" type="line"/>
			<point x="62.034361" y="236.55001" type="line" smooth="yes"/>
			<point x="58.6522319982" y="236.7726911161"/>
			<point x="55.3368476486" y="235.5351623739"/>
			<point x="52.9278347905" y="233.1508300745" type="curve" smooth="yes"/>
			<point x="50.5188219324" y="230.7664977751"/>
			<point x="49.247218402" y="227.4640327511"/>
			<point x="49.43506" y="224.07979" type="curve" smooth="yes"/>
			<point x="54.057148" y="140.80688" type="line" smooth="yes"/>
			<point x="54.4713149036" y="133.3451335227"/>
			<point x="60.6934222129" y="127.5359712"/>
			<point x="68.166006" y="127.63439" type="curve" smooth="yes"/>
			<point x="143.05822" y="128.62077" type="line" smooth="yes"/>
			<point x="150.5376342249" y="128.7192780381"/>
			<point x="156.6169184602" y="134.682782241"/>
			<point x="156.85921" y="142.15892" type="curve" smooth="yes"/>
			<point x="159.27683" y="216.75691" type="line" smooth="yes"/>
			<point x="159.5183000862" y="224.2075792972"/>
			<point x="153.8081358171" y="230.5075766987"/>
			<point x="146.36966" y="230.99733" type="curve"/>
		</contour>
	</outline>
	<anchor name="top" x="78.217468" y="-3.948"/>
</glyph>
<glyph name="slash" format="2">
	<unicode hex="002F"/>
	<advance height="1024" width="297"/>
	<outline>
		<contour>
			<point x="182.234" y="700" type="line"/>
			<point x="273.95767" y="700" type="line" smooth="yes"/>
			<point x="277.6678155102" y="699.9999991795"/>
			<point x="281.1732263423" y="698.2992358879"/>
			<point x="283.4694598322" y="695.3850479279" type="curve" smooth="yes"/>
			<point x="285.7656933221" y="692.4708599678"/>
			<point x="286.5993266543" y="688.6648704324"/>
			<point x="285.73149" y="685.05765" type="curve" smooth="yes"/>
			<point x="124.51276" y="14.94235" type="line" smooth="yes"/>
			<point x="122.4041337027" y="6.1777275404"/>
			<point x="114.5638653041" y="-0.000004246"/>
			<point x="105.54916" y="0" type="curve"/>
			<point x="19.368707" y="0" type="line"/>
			<point x="15.6459136008" y="0.0000000146"/>
			<point x="12.1267284643" y="1.6993026382"/>
			<point x="9.8117193845" y="4.6147654923" type="curve" smooth="yes"/>
			<point x="7.4967103047" y="7.5302283464"/>
			<point x="6.6391037762" y="11.3429445007"/>
			<point x="7.4827328" y="14.96889" type="curve" smooth="yes"/>
			<point x="163.38256" y="685.03111" type="line" smooth="yes"/>
			<point x="165.4220078415" y="693.7967143322"/>
			<point x="173.2342685148" y="700.0000001644"/>
			<point x="182.234" y="700" type="curve"/>
		</contour>
	</outline>
</glyph>
<glyph name="zero" format="2">
	<unicode hex="0030"/>
	<advance height="1024" width="559"/>
	<outline>
		<contour>
			<point x="288.08942" y="660.71249" type="line"/>
			<point x="259.22275" y="660.32811"/>
			<point x="230.86349" y="650.0293"/>
			<point x="207.28102" y="633.377" type="curve" smooth="yes"/>
			<point x="183.69854" y="616.72471"/>
			<point x="164.78264" y="593.91997"/>
			<point x="150.96696" y="568.57122" type="curve" smooth="yes"/>
			<point x="123.3356" y="517.87372"/>
			<point x="116.20896" y="458.57033"/>
			<point x="115.12417" y="400.84207" type="curve" smooth="yes"/>
			<point x="113.99055" y="340.51539"/>
			<point x="119.41761" y="278.18717"/>
			<point x="147.21186" y="224.63277" type="curve" smooth="yes"/>
			<point x="161.10898" y="197.85557"/>
			<point x="180.58157" y="173.7147"/>
			<point x="205.1359" y="156.18664" type="curve" smooth="yes"/>
			<point x="229.69023" y="138.65857"/>
			<point x="259.44903" y="127.9763"/>
			<point x="289.61768" y="128.00815" type="curve" smooth="yes"/>
			<point x="319.43158" y="128.03965"/>
			<point x="348.83027" y="138.52948"/>
			<point x="373.18134" y="155.73106" type="curve" smooth="yes"/>
			<point x="397.53242" y="172.93265"/>
			<point x="416.95272" y="196.62402"/>
			<point x="430.94469" y="222.9507" type="curve" smooth="yes"/>
			<point x="458.92864" y="275.60406"/>
			<point x="465.11002" y="337.09016"/>
			<point x="464.75057" y="396.71691" type="curve" smooth="yes"/>
			<point x="464.39446" y="455.78995"/>
			<point x="457.59161" y="516.63414"/>
			<point x="429.25906" y="568.4706" type="curve" smooth="yes"/>
			<point x="415.09279" y="594.38882"/>
			<point x="395.57038" y="617.63019"/>
			<point x="371.23166" y="634.36532" type="curve" smooth="yes"/>
			<point x="346.89294" y="651.10045"/>
			<point x="317.62386" y="661.10577"/>
			<point x="288.08942" y="660.71249" type="curve"/>
		</contour>
		<contour>
			<point x="546.19051" y="398.79047" type="curve" smooth="yes"/>
			<point x="546.65977" y="310.83721"/>
			<point x="537.44729" y="220.23791"/>
			<point x="496.56412" y="142.36261" type="curve" smooth="yes"/>
			<point x="476.12254" y="103.42496"/>
			<point x="447.79721" y="68.27284"/>
			<point x="412.22022" y="42.42178" type="curve" smooth="yes"/>
			<point x="376.64324" y="16.57073"/>
			<point x="333.64595" y="0.32468"/>
			<point x="289.68391" y="-0.83212" type="curve" smooth="yes"/>
			<point x="245.26454" y="-2.00095"/>
			<point x="201.02016" y="12.27485"/>
			<point x="163.92782" y="36.74125" type="curve" smooth="yes"/>
			<point x="126.83548" y="61.20765"/>
			<point x="96.741092" y="95.53907"/>
			<point x="74.635798" y="134.08518" type="curve" smooth="yes"/>
			<point x="30.42521" y="211.17739"/>
			<point x="18.421094" y="302.59595"/>
			<point x="17.188389" y="391.45689" type="curve" smooth="yes"/>
			<point x="15.927222" y="482.36948"/>
			<point x="25.894717" y="576.30927"/>
			<point x="69.7421" y="655.95911" type="curve" smooth="yes"/>
			<point x="91.665791" y="695.78402"/>
			<point x="122.00802" y="731.358315"/>
			<point x="159.74386" y="756.709431" type="curve" smooth="yes"/>
			<point x="197.47969" y="782.060546"/>
			<point x="242.77446" y="796.835412"/>
			<point x="288.21542" y="795.4971123" type="curve" smooth="yes"/>
			<point x="331.93693" y="794.209453"/>
			<point x="374.66852" y="778.06341"/>
			<point x="410.118" y="752.439932" type="curve" smooth="yes"/>
			<point x="445.56748" y="726.816454"/>
			<point x="473.89868" y="692.00879"/>
			<point x="494.48819" y="653.41734" type="curve" smooth="yes"/>
			<point x="535.66722" y="576.23443"/>
			<point x="545.72378" y="486.27016"/>
		</contour>
	</outline>
</glyph>
<glyph name="one" format="2">
  <advance height="1024" width="207"/>
  <unicode hex="0031"/>
  <outline>
    <contour>
      <point x="202.43456" y="702.0" type="curve"/>
      <point x="204.73426" y="660.71315"/>
      <point x="203.2268" y="619.2150300000001"/>
      <point x="197.93755000000002" y="578.2038600000001" type="curve" smooth="yes"/>
      <point x="187.86233000000001" y="500.08379"/>
      <point x="164.17154000000002" y="424.16765"/>
      <point x="154.80577000000002" y="345.95935000000003" type="curve" smooth="yes"/>
      <point x="145.96626000000003" y="272.14553"/>
      <point x="150.06362000000001" y="196.98419"/>
      <point x="164.61416000000003" y="124.08082999999999" type="curve" smooth="yes"/>
      <point x="173.04574000000002" y="81.83560999999997"/>
      <point x="184.96867000000003" y="40.28774999999996"/>
      <point x="200.22144000000003" y="0.0" type="curve"/>
      <point x="87.87064" y="0.0" type="line"/>
      <point x="78.465214" y="43.878720000000044"/>
      <point x="72.748474" y="88.54751999999996"/>
      <point x="70.800501" y="133.38064999999995" type="curve" smooth="yes"/>
      <point x="66.035056" y="243.05868999999996"/>
      <point x="83.766999" y="352.27145"/>
      <point x="96.18187" y="461.34873" type="curve" smooth="yes"/>
      <point x="103.10575" y="522.18208"/>
      <point x="108.3866" y="583.20243"/>
      <point x="112.01671" y="644.32083" type="curve"/>
      <point x="134.21204" y="637.9584" type="line"/>
      <point x="125.10207" y="618.91204"/>
      <point x="111.31937" y="602.12156"/>
      <point x="94.413452" y="589.4746" type="curve" smooth="yes"/>
      <point x="72.40479200000001" y="573.01039"/>
      <point x="45.119221" y="563.71685"/>
      <point x="17.63655200000001" y="563.3241800000001" type="curve"/>
      <point x="15.315207000000008" y="660.01034" type="line"/>
      <point x="38.57066100000001" y="656.35134"/>
      <point x="62.734148000000005" y="658.61846"/>
      <point x="84.903129" y="666.53936" type="curve" smooth="yes"/>
      <point x="105.68458" y="673.9645"/>
      <point x="124.49857" y="686.1611800000001"/>
      <point x="145.25141" y="693.66593" type="curve" smooth="yes"/>
      <point x="163.48989" y="700.261427"/>
      <point x="183.07226" y="703.115429"/>
    </contour>
  </outline>
</glyph>
<glyph name="two" format="2">
  <advance height="1024" width="479"/>
  <unicode hex="0032"/>
  <outline>
    <contour>
      <point x="148.39612" y="455.18838" type="line"/>
      <point x="14.15217899999999" y="447.49651" type="line"/>
      <point x="13.98241299999999" y="491.03184"/>
      <point x="25.26703399999999" y="534.5614"/>
      <point x="46.56620699999999" y="572.53111" type="curve" smooth="yes"/>
      <point x="67.86537899999999" y="610.50083"/>
      <point x="99.12974299999999" y="642.82272"/>
      <point x="136.37018999999998" y="665.37273" type="curve" smooth="yes"/>
      <point x="178.60501" y="690.94696"/>
      <point x="228.00615" y="703.753699"/>
      <point x="277.36352" y="705.046224" type="curve" smooth="yes"/>
      <point x="309.15308" y="705.8787"/>
      <point x="341.34566" y="701.976074"/>
      <point x="371.05289" y="690.62928" type="curve" smooth="yes"/>
      <point x="400.76012" y="679.28249"/>
      <point x="427.91564" y="660.1938600000001"/>
      <point x="446.27819" y="634.2306900000001" type="curve" smooth="yes"/>
      <point x="472.61933999999997" y="596.98641"/>
      <point x="478.95365" y="547.8731600000001"/>
      <point x="469.35587" y="503.27636000000007" type="curve" smooth="yes"/>
      <point x="456.70025" y="444.47114000000005"/>
      <point x="419.04893" y="394.20387000000005"/>
      <point x="377.89038" y="350.3382500000001" type="curve" smooth="yes"/>
      <point x="337.13228" y="306.8994200000001"/>
      <point x="292.07033" y="267.74629000000004"/>
      <point x="249.46855" y="226.1140600000001" type="curve" smooth="yes"/>
      <point x="195.27235" y="173.15127000000007"/>
      <point x="145.03525" y="116.13808000000006"/>
      <point x="99.31464199999999" y="55.707030000000145" type="curve"/>
      <point x="62.626725" y="99.04354000000001" type="line"/>
      <point x="84.927305" y="95.88770999999997"/>
      <point x="107.30345" y="93.26590999999996"/>
      <point x="129.72953" y="91.18114000000003" type="curve" smooth="yes"/>
      <point x="200.0653" y="84.64260000000002"/>
      <point x="272.08104000000003" y="83.53528000000006"/>
      <point x="340.16556" y="102.36005" type="curve" smooth="yes"/>
      <point x="381.73533000000003" y="113.85371999999995"/>
      <point x="421.25767" y="132.71177999999998"/>
      <point x="456.34354" y="157.79429000000005" type="curve"/>
      <point x="479.442" y="26.654710000000023" type="line"/>
      <point x="448.37183" y="11.38472999999999"/>
      <point x="414.24467000000004" y="2.3670900000000756"/>
      <point x="379.68692" y="0.29581000000007407" type="curve" smooth="yes"/>
      <point x="296.8247" y="-4.670700000000011"/>
      <point x="215.07042" y="29.771240000000034"/>
      <point x="132.34582" y="22.882550000000037" type="curve" smooth="yes"/>
      <point x="102.78185" y="20.420679999999948"/>
      <point x="73.669526" y="12.631039999999985"/>
      <point x="46.826541" y="0.0" type="curve"/>
      <point x="0.99420051" y="54.039570000000026" type="line"/>
      <point x="49.148968" y="135.23600999999996"/>
      <point x="109.73933" y="209.04175999999995"/>
      <point x="180.00103" y="272.08965" type="curve" smooth="yes"/>
      <point x="216.53531999999998" y="304.87295"/>
      <point x="255.73529" y="334.8381"/>
      <point x="289.438" y="370.52601" type="curve" smooth="yes"/>
      <point x="323.14071" y="406.21392"/>
      <point x="351.60783" y="448.79133"/>
      <point x="360.99908999999997" y="496.97123999999997" type="curve" smooth="yes"/>
      <point x="364.31523999999996" y="513.98405"/>
      <point x="365.18949999999995" y="531.5809999999999"/>
      <point x="362.31221" y="548.6735" type="curve" smooth="yes"/>
      <point x="359.43492" y="565.766"/>
      <point x="352.70808" y="582.35119"/>
      <point x="341.86279" y="595.87199" type="curve" smooth="yes"/>
      <point x="329.22781000000003" y="611.6239899999999"/>
      <point x="311.06671" y="622.86671"/>
      <point x="291.31874000000005" y="627.08403" type="curve" smooth="yes"/>
      <point x="269.24183000000005" y="631.79872"/>
      <point x="245.71978000000004" y="627.7296799999999"/>
      <point x="225.58155000000005" y="617.5282" type="curve" smooth="yes"/>
      <point x="205.44333000000006" y="607.32673"/>
      <point x="188.59572000000006" y="591.25171"/>
      <point x="175.80286000000007" y="572.6516899999999" type="curve" smooth="yes"/>
      <point x="152.48070000000007" y="538.74272"/>
      <point x="142.48860000000008" y="495.91727"/>
      <point x="148.39612000000005" y="455.18837999999994" type="curve"/>
    </contour>
  </outline>
</glyph>
<glyph name="three" format="2">
	<unicode hex="0033"/>
	<advance height="1024" width="473"/>
	<outline>
		<contour>
			<point x="42.925859" y="601.59643" type="curve" smooth="yes"/>
			<point x="58.518937" y="647.16082"/>
			<point x="84.549918" y="689.1441"/>
			<point x="118.53751" y="723.272958" type="curve" smooth="yes"/>
			<point x="164.29595" y="769.221581"/>
			<point x="224.42913" y="800.6449367"/>
			<point x="288.27877" y="811.973398" type="curve"/>
			<point x="326.98108" y="800.77651857"/>
			<point x="362.3581" y="778.332431"/>
			<point x="388.97633" y="748.088288" type="curve" smooth="yes"/>
			<point x="419.59826" y="713.29507"/>
			<point x="438.40011" y="668.20024"/>
			<point x="441.1599" y="621.93304" type="curve" smooth="yes"/>
			<point x="445.0201" y="557.21774"/>
			<point x="417.53812" y="492.89195"/>
			<point x="374.01172" y="444.84589" type="curve" smooth="yes"/>
			<point x="339.39132" y="406.6306"/>
			<point x="294.68496" y="377.63537"/>
			<point x="245.67326" y="361.60933" type="curve"/>
			<point x="227.47601" y="424.08696" type="line"/>
			<point x="251.53939" y="426.2343"/>
			<point x="275.90051" y="425.0183"/>
			<point x="299.63044" y="420.48532" type="curve" smooth="yes"/>
			<point x="350.05125" y="410.85375"/>
			<point x="398.5493" y="384.9782"/>
			<point x="428.8678" y="343.55582" type="curve" smooth="yes"/>
			<point x="453.11237" y="310.4319"/>
			<point x="464.67376" y="268.47743"/>
			<point x="461.9436" y="227.51965" type="curve" smooth="yes"/>
			<point x="459.29836" y="187.83582"/>
			<point x="443.72348" y="149.73913"/>
			<point x="421.66096" y="116.6476" type="curve" smooth="yes"/>
			<point x="398.36862" y="81.71146"/>
			<point x="367.52501" y="51.58678"/>
			<point x="331.07816" y="30.73747" type="curve" smooth="yes"/>
			<point x="294.63131" y="9.88816"/>
			<point x="252.539" y="-1.48382"/>
			<point x="210.57748" y="0.03203" type="curve" smooth="yes"/>
			<point x="169.34245" y="1.52164"/>
			<point x="128.64323" y="15.54864"/>
			<point x="95.246471" y="39.78091" type="curve" smooth="yes"/>
			<point x="66.999816" y="60.27632"/>
			<point x="44.072986" y="88.00259"/>
			<point x="29.077448" y="119.50524" type="curve" smooth="yes"/>
			<point x="24.548725" y="129.01919"/>
			<point x="23.718446" y="145.39082"/>
			<point x="26.230509" y="155.62771" type="curve" smooth="yes"/>
			<point x="58.548297" y="287.32563" type="line" smooth="yes"/>
			<point x="61.06036" y="297.56252"/>
			<point x="65.108927" y="297.54496"/>
			<point x="68.336093" y="287.51257" type="curve" smooth="yes"/>
			<point x="80.862351" y="248.57179"/>
			<point x="101.63679" y="212.28742"/>
			<point x="128.96739" y="181.84508" type="curve" smooth="yes"/>
			<point x="148.81513" y="159.73756"/>
			<point x="172.30069" y="140.54636"/>
			<point x="199.22553" y="127.98739" type="curve" smooth="yes"/>
			<point x="226.15037" y="115.42841"/>
			<point x="256.66245" y="109.74543"/>
			<point x="285.99225" y="114.48231" type="curve" smooth="yes"/>
			<point x="312.14179" y="118.70557"/>
			<point x="337.05427" y="131.38682"/>
			<point x="354.95294" y="150.91302" type="curve" smooth="yes"/>
			<point x="372.85161" y="170.43921"/>
			<point x="383.40066" y="196.82925"/>
			<point x="382.66647" y="223.30746" type="curve" smooth="yes"/>
			<point x="381.98925" y="247.73104"/>
			<point x="371.81806" y="271.53415"/>
			<point x="355.6967" y="289.89366" type="curve" smooth="yes"/>
			<point x="339.57535" y="308.25318"/>
			<point x="317.74462" y="321.25209"/>
			<point x="294.29453" y="328.11234" type="curve" smooth="yes"/>
			<point x="268.59231" y="335.63145"/>
			<point x="240.81811" y="335.79785"/>
			<point x="214.97222" y="328.83529" type="curve" smooth="yes"/>
			<point x="204.80197" y="326.09556"/>
			<point x="195.0778" y="331.00914"/>
			<point x="192.79783" y="341.3002" type="curve" smooth="yes"/>
			<point x="173.52657" y="428.28464" type="line" smooth="yes"/>
			<point x="171.2466" y="438.5757"/>
			<point x="177.95604" y="447.19774"/>
			<point x="188.4123" y="448.50456" type="curve" smooth="yes"/>
			<point x="223.30598" y="452.86556"/>
			<point x="257.21343" y="465.11157"/>
			<point x="286.77041" y="484.1747" type="curve" smooth="yes"/>
			<point x="308.11923" y="497.94388"/>
			<point x="327.41699" y="515.45859"/>
			<point x="340.72198" y="537.09974" type="curve" smooth="yes"/>
			<point x="354.02698" y="558.74089"/>
			<point x="361.02014" y="584.73973"/>
			<point x="357.48752" y="609.89689" type="curve" smooth="yes"/>
			<point x="354.7307" y="629.52927"/>
			<point x="345.7254" y="647.9628"/>
			<point x="333.5233" y="663.58775" type="curve" smooth="yes"/>
			<point x="321.32121" y="679.21271"/>
			<point x="306.00059" y="692.17457"/>
			<point x="289.70356" y="703.463386" type="curve" smooth="yes"/>
			<point x="266.14158" y="719.78457"/>
			<point x="240.31145" y="732.826462"/>
			<point x="213.18916" y="742.096269" type="curve"/>
			<point x="308.17803" y="754.232439" type="line"/>
			<point x="272.21444" y="740.114985"/>
			<point x="240.68127" y="714.935076"/>
			<point x="218.956" y="682.98676" type="curve" smooth="yes"/>
			<point x="198.76319" y="653.29201"/>
			<point x="187.18011" y="617.85409"/>
			<point x="185.67367" y="581.99019" type="curve" smooth="yes"/>
			<point x="185.2315" y="571.46334"/>
			<point x="177.36528" y="564.07888"/>
			<point x="166.92318" y="565.5165" type="curve" smooth="yes"/>
			<point x="56.205813" y="580.75945" type="line" smooth="yes"/>
			<point x="45.76371" y="582.19707"/>
			<point x="39.513494" y="591.62518"/>
		</contour>
	</outline>
</glyph>
<glyph name="five" format="2">
	<unicode hex="0035"/>
	<advance height="1024" width="449"/>
	<outline>
		<contour>
			<point x="246.77178" y="665.37441" type="line"/>
			<point x="305.09607" y="668.04327"/>
			<point x="363.00593" y="679.55461"/>
			<point x="417.92573" y="699.3673" type="curve" smooth="yes"/>
			<point x="424.60541" y="701.777041"/>
			<point x="430.6531" y="698.14844"/>
			<point x="431.49431" y="691.09723" type="curve" smooth="yes"/>
			<point x="443.14699" y="593.42152" type="line" smooth="yes"/>
			<point x="443.9882" y="586.37031"/>
			<point x="439.0335" y="579.48048"/>
			<point x="432.04766" y="578.20648" type="curve" smooth="yes"/>
			<point x="365.21354" y="566.01803"/>
			<point x="296.23761" y="565.63226"/>
			<point x="229.27711" y="577.11744" type="curve" smooth="yes"/>
			<point x="187.72683" y="584.24421"/>
			<point x="146.95607" y="595.90641"/>
			<point x="107.92212" y="611.83021" type="curve"/>
			<point x="189.9741" y="629.08698" type="line"/>
			<point x="157.14076" y="581.30724"/>
			<point x="134.44953" y="526.59347"/>
			<point x="123.83098" y="469.60067" type="curve" smooth="yes"/>
			<point x="114.50238" y="419.5314"/>
			<point x="114.46877" y="367.74593"/>
			<point x="123.73238" y="317.66459" type="curve"/>
			<point x="69.747611" y="341.84523" type="line"/>
			<point x="82.366912" y="366.39669"/>
			<point x="97.977652" y="389.40879"/>
			<point x="116.1246" y="410.21045" type="curve" smooth="yes"/>
			<point x="135.14134" y="432.00915"/>
			<point x="157.10508" y="451.49212"/>
			<point x="182.30178" y="465.70289" type="curve" smooth="yes"/>
			<point x="207.49849" y="479.91365"/>
			<point x="236.05336" y="488.7173"/>
			<point x="264.98113" y="488.77849" type="curve" smooth="yes"/>
			<point x="293.5538" y="488.83889"/>
			<point x="321.93293" y="480.31286"/>
			<point x="346.38197" y="465.5262" type="curve" smooth="yes"/>
			<point x="370.831" y="450.73953"/>
			<point x="391.37768" y="429.81902"/>
			<point x="406.75628" y="405.73791" type="curve" smooth="yes"/>
			<point x="437.51347" y="357.5757"/>
			<point x="447.05432" y="298.05193"/>
			<point x="442.13771" y="241.11837" type="curve" smooth="yes"/>
			<point x="438.23916" y="195.97373"/>
			<point x="425.5303" y="151.30173"/>
			<point x="402.55496" y="112.24573" type="curve" smooth="yes"/>
			<point x="379.57962" y="73.18973"/>
			<point x="346.09658" y="39.93602"/>
			<point x="305.54523" y="19.71658" type="curve" smooth="yes"/>
			<point x="247.5186" y="-9.21627"/>
			<point x="177.97269" y="-9.88416"/>
			<point x="115.98438" y="9.13288" type="curve" smooth="yes"/>
			<point x="80.872944" y="19.90452"/>
			<point x="47.63015" y="36.72825"/>
			<point x="18.133814" y="58.60731" type="curve" smooth="yes"/>
			<point x="12.430737" y="62.8376"/>
			<point x="9.7747761" y="71.93641"/>
			<point x="12.009696" y="78.67676" type="curve" smooth="yes"/>
			<point x="45.365603" y="179.27566" type="line" smooth="yes"/>
			<point x="47.600523" y="186.01601"/>
			<point x="51.746811" y="186.20763"/>
			<point x="55.14783" y="179.9757" type="curve" smooth="yes"/>
			<point x="73.151303" y="146.98664"/>
			<point x="101.79508" y="119.84316"/>
			<point x="135.83174" y="103.86528" type="curve" smooth="yes"/>
			<point x="159.30982" y="92.84393"/>
			<point x="185.28818" y="87.04148"/>
			<point x="211.21877" y="87.58454" type="curve" smooth="yes"/>
			<point x="237.14936" y="88.12759"/>
			<point x="262.98922" y="95.06743"/>
			<point x="285.4295" y="108.0722" type="curve" smooth="yes"/>
			<point x="313.13124" y="124.12613"/>
			<point x="335.33308" y="149.39539"/>
			<point x="347.96678" y="178.81485" type="curve" smooth="yes"/>
			<point x="360.60048" y="208.23431"/>
			<point x="363.64597" y="241.63414"/>
			<point x="356.83765" y="272.91931" type="curve" smooth="yes"/>
			<point x="350.54732" y="301.82423"/>
			<point x="335.73535" y="329.08218"/>
			<point x="313.69946" y="348.81748" type="curve" smooth="yes"/>
			<point x="291.66357" y="368.55278"/>
			<point x="262.31966" y="380.39334"/>
			<point x="232.74478" y="379.76968" type="curve" smooth="yes"/>
			<point x="206.12288" y="379.20829"/>
			<point x="179.84014" y="368.48131"/>
			<point x="160.42816" y="350.25453" type="curve" smooth="yes"/>
			<point x="144.14206" y="334.96278"/>
			<point x="132.82015" y="314.51234"/>
			<point x="128.27621" y="292.65364" type="curve" smooth="yes"/>
			<point x="126.8318" y="285.7053"/>
			<point x="121.58897" y="283.06608"/>
			<point x="115.62752" y="286.92462" type="curve" smooth="yes"/>
			<point x="38.430252" y="336.89039" type="line" smooth="yes"/>
			<point x="32.468803" y="340.74893"/>
			<point x="28.698937" y="349.53467"/>
			<point x="29.957443" y="356.52346" type="curve" smooth="yes"/>
			<point x="37.629387" y="399.12761"/>
			<point x="43.851617" y="441.99281"/>
			<point x="48.609407" y="485.01996" type="curve" smooth="yes"/>
			<point x="55.484253" y="547.19274"/>
			<point x="59.299994" y="609.70366"/>
			<point x="60.039395" y="672.251" type="curve" smooth="yes"/>
			<point x="60.136745" y="680.48598"/>
			<point x="66.572754" y="685.30943"/>
			<point x="74.547147" y="683.25272" type="curve" smooth="yes"/>
			<point x="130.64165" y="668.78512"/>
			<point x="188.90105" y="662.7263"/>
			<point x="246.77178" y="665.37441" type="curve"/>
		</contour>
	</outline>
</glyph>
<glyph name="six" format="2">
	<unicode hex="0036"/>
	<advance height="1024" width="466"/>
	<outline>
		<contour>
			<point x="384.39413" y="713.007035" type="line"/>
			<point x="280.77363" y="786.992965" type="line" smooth="yes"/>
			<point x="270.7127" y="794.1765521"/>
			<point x="254.74391" y="793.7189591"/>
			<point x="245.38386" y="785.644093" type="curve" smooth="yes"/>
			<point x="200.72993" y="747.121349"/>
			<point x="160.79951" y="703.124812"/>
			<point x="126.79557" y="654.93985" type="curve" smooth="yes"/>
			<point x="59.532564" y="559.62544"/>
			<point x="15.620311" y="446.82015"/>
			<point x="7.993009" y="330.41151" type="curve" smooth="yes"/>
			<point x="2.4444122" y="245.72827"/>
			<point x="17.334157" y="156.88708"/>
			<point x="66.571818" y="87.76624" type="curve" smooth="yes"/>
			<point x="99.028676" y="42.20264"/>
			<point x="147.37942" y="6.17536"/>
			<point x="202.55408" y="-3.05751" type="curve" smooth="yes"/>
			<point x="232.03553" y="-7.9909"/>
			<point x="262.67124" y="-5.18512"/>
			<point x="291.05888" y="4.17632" type="curve" smooth="yes"/>
			<point x="319.44651" y="13.53775"/>
			<point x="345.57911" y="29.37417"/>
			<point x="367.63415" y="49.55014" type="curve" smooth="yes"/>
			<point x="411.74421" y="89.90208"/>
			<point x="438.72775" y="146.88329"/>
			<point x="448.89736" y="205.79471" type="curve" smooth="yes"/>
			<point x="457.6833" y="256.69069"/>
			<point x="454.26868" y="310.51004"/>
			<point x="433.27079" y="357.69778" type="curve" smooth="yes"/>
			<point x="412.27291" y="404.88552"/>
			<point x="372.60849" y="444.71185"/>
			<point x="323.38576" y="460.35527" type="curve" smooth="yes"/>
			<point x="290.27242" y="470.87898"/>
			<point x="253.95637" y="470.22944"/>
			<point x="220.7311" y="460.0646" type="curve" smooth="yes"/>
			<point x="187.50584" y="449.89977"/>
			<point x="157.39042" y="430.43853"/>
			<point x="133.26328" y="405.43607" type="curve" smooth="yes"/>
			<point x="103.72828" y="374.82956"/>
			<point x="83.371387" y="336.64921"/>
			<point x="65.253625" y="298.16777" type="curve" smooth="yes"/>
			<point x="53.218673" y="272.60599"/>
			<point x="41.75306" y="245.37385"/>
			<point x="43.687054" y="217.18689" type="curve" smooth="yes"/>
			<point x="44.894417" y="199.5902"/>
			<point x="51.48674" y="182.39939"/>
			<point x="62.354667" y="168.50733" type="curve" smooth="yes"/>
			<point x="73.222593" y="154.61527"/>
			<point x="88.321373" y="144.07916"/>
			<point x="105.11018" y="138.67202" type="curve"/>
			<point x="96.710863" y="185.65124"/>
			<point x="106.13774" y="235.59756"/>
			<point x="131.08296" y="276.28332" type="curve" smooth="yes"/>
			<point x="146.70416" y="301.76157"/>
			<point x="168.50096" y="323.81385"/>
			<point x="195.08008" y="337.47816" type="curve" smooth="yes"/>
			<point x="221.6592" y="351.14248"/>
			<point x="253.13382" y="356.00265"/>
			<point x="282.07223" y="348.53729" type="curve" smooth="yes"/>
			<point x="310.93004" y="341.09272"/>
			<point x="336.27518" y="321.46081"/>
			<point x="351.4262" y="295.7968" type="curve" smooth="yes"/>
			<point x="366.57721" y="270.13279"/>
			<point x="371.54623" y="238.79923"/>
			<point x="365.91029" y="209.53439" type="curve" smooth="yes"/>
			<point x="360.60922" y="182.00841"/>
			<point x="346.02497" y="156.31935"/>
			<point x="324.95503" y="137.83047" type="curve" smooth="yes"/>
			<point x="303.88509" y="119.34159"/>
			<point x="276.43959" y="108.20419"/>
			<point x="248.43331" y="107.00859" type="curve" smooth="yes"/>
			<point x="224.46415" y="105.98534"/>
			<point x="200.3624" y="112.14145"/>
			<point x="179.32969" y="123.68237" type="curve" smooth="yes"/>
			<point x="158.29698" y="135.22329"/>
			<point x="140.31611" y="152.04371"/>
			<point x="126.57265" y="171.70802" type="curve" smooth="yes"/>
			<point x="99.085728" y="211.03663"/>
			<point x="89.061823" y="260.6992"/>
			<point x="91.51805" y="308.61828" type="curve" smooth="yes"/>
			<point x="93.766504" y="352.48387"/>
			<point x="105.88455" y="395.4838"/>
			<point x="123.65264" y="435.6527" type="curve" smooth="yes"/>
			<point x="158.65471" y="514.78302"/>
			<point x="215.82316" y="583.56833"/>
			<point x="285.54419" y="634.8102" type="curve" smooth="yes"/>
			<point x="315.61685" y="656.91228"/>
			<point x="348.01548" y="675.84611"/>
			<point x="382.02544" y="691.21376" type="curve" smooth="yes"/>
			<point x="393.2902" y="696.30382"/>
			<point x="394.45506" y="705.823448"/>
			<point x="384.39413" y="713.007035" type="curve"/>
		</contour>
	</outline>
</glyph>
<glyph name="seven" format="2">
	<unicode hex="0037"/>
	<advance height="1024" width="470"/>
	<outline>
		<contour>
			<point x="28.677605" y="704.018506" type="curve" smooth="yes"/>
			<point x="80.281421" y="695.0964"/>
			<point x="134.08312" y="698.96839"/>
			<point x="183.828" y="715.371376" type="curve" smooth="yes"/>
			<point x="233.14415" y="731.632989"/>
			<point x="278.38245" y="760.108231"/>
			<point x="314.37173" y="797.5421053" type="curve"/>
			<point x="441.41957" y="799.6671875" type="line" smooth="yes"/>
			<point x="452.40847" y="799.85099477"/>
			<point x="458.75955" y="791.4653547"/>
			<point x="455.60492" y="780.937389" type="curve" smooth="yes"/>
			<point x="442.90711" y="738.560797"/>
			<point x="430.2072" y="696.18483"/>
			<point x="417.5052" y="653.8095" type="curve" smooth="yes"/>
			<point x="373.6508" y="507.50623"/>
			<point x="329.41613" y="359.06661"/>
			<point x="325.69084" y="206.37746" type="curve" smooth="yes"/>
			<point x="324.32885" y="150.5533"/>
			<point x="328.43796" y="94.59755"/>
			<point x="337.92812" y="39.56937" type="curve" smooth="yes"/>
			<point x="339.79592" y="28.73906"/>
			<point x="332.70757" y="18.81394"/>
			<point x="321.81495" y="17.35086" type="curve" smooth="yes"/>
			<point x="212.36103" y="2.64914" type="line" smooth="yes"/>
			<point x="201.46841" y="1.18606"/>
			<point x="194.45026" y="8.7233"/>
			<point x="196.66885" y="19.48748" type="curve" smooth="yes"/>
			<point x="217.63655" y="121.21871"/>
			<point x="237.49803" y="223.17795"/>
			<point x="256.24858" y="325.34109" type="curve" smooth="yes"/>
			<point x="275.50056" y="430.23626"/>
			<point x="293.58101" y="535.34398"/>
			<point x="312.89828" y="640.22714" type="curve" smooth="yes"/>
			<point x="320.77629" y="683.00079"/>
			<point x="328.85991" y="725.736579"/>
			<point x="337.14877" y="768.432519" type="curve"/>
			<point x="368.81319" y="696.25783" type="line"/>
			<point x="327.39718" y="667.43804"/>
			<point x="282.45245" y="643.69446"/>
			<point x="235.30344" y="625.72679" type="curve" smooth="yes"/>
			<point x="180.51243" y="604.84688"/>
			<point x="122.74682" y="591.79695"/>
			<point x="64.305106" y="587.0582" type="curve" smooth="yes"/>
			<point x="53.351096" y="586.16999"/>
			<point x="41.978842" y="594.3303"/>
			<point x="38.933253" y="604.89032" type="curve" smooth="yes"/>
			<point x="14.703022" y="688.90421" type="line" smooth="yes"/>
			<point x="11.657433" y="699.46424"/>
			<point x="17.849647" y="705.89062"/>
		</contour>
		<contour>
			<point x="441.07582" y="443.26353" type="line"/>
			<point x="453.97784" y="395.45524" type="line" smooth="yes"/>
			<point x="454.7150398331" y="392.7235554222"/>
			<point x="454.236648233" y="389.8065896798"/>
			<point x="452.6655256257" y="387.4534772772" type="curve" smooth="yes"/>
			<point x="451.0944030184" y="385.1003648746"/>
			<point x="448.5836289982" y="383.5403772193"/>
			<point x="445.77802" y="383.17415" type="curve" smooth="yes"/>
			<point x="198.28878" y="350.86818" type="line" smooth="yes"/>
			<point x="195.4006549635" y="350.4911783996"/>
			<point x="192.4849131091" y="351.3221406407"/>
			<point x="190.2294373814" y="353.1650257904" type="curve" smooth="yes"/>
			<point x="187.9739616537" y="355.0079109401"/>
			<point x="186.5784962836" y="357.6995136612"/>
			<point x="186.37226" y="360.60483" type="curve" smooth="yes"/>
			<point x="180.98101" y="436.55331" type="line" smooth="yes"/>
			<point x="180.7738102632" y="439.4722231669"/>
			<point x="181.7700350721" y="442.3487956641"/>
			<point x="183.7381092124" y="444.5143602522" type="curve" smooth="yes"/>
			<point x="185.7061833527" y="446.6799248403"/>
			<point x="188.4746783938" y="447.9458507502"/>
			<point x="191.40005" y="448.01787" type="curve" smooth="yes"/>
			<point x="426.94008" y="453.81671" type="line" smooth="yes"/>
			<point x="433.5215270129" y="453.9787400547"/>
			<point x="439.3605149996" y="449.6195843797"/>
			<point x="441.07582" y="443.26353" type="curve"/>
		</contour>
	</outline>
</glyph>
<glyph name="eight" format="2">
	<unicode hex="0038"/>
	<advance height="1024" width="424"/>
	<outline>
		<contour>
			<point x="99.85783" y="25.47464" type="line"/>
			<point x="158.74392" y="-11.65136"/>
			<point x="235.72806" y="-18.98231"/>
			<point x="300.06262" y="7.60671" type="curve" smooth="yes"/>
			<point x="336.03143" y="22.47237"/>
			<point x="368.03004" y="47.64106"/>
			<point x="389.05105" y="80.3956" type="curve" smooth="yes"/>
			<point x="410.07207" y="113.15014"/>
			<point x="419.64944" y="153.53413"/>
			<point x="413.34722" y="191.94019" type="curve" smooth="yes"/>
			<point x="406.51789" y="233.55851"/>
			<point x="381.79216" y="270.68298"/>
			<point x="350.6384" y="299.11128" type="curve" smooth="yes"/>
			<point x="319.48465" y="327.53957"/>
			<point x="282.08056" y="348.14892"/>
			<point x="244.2658" y="366.82426" type="curve" smooth="yes"/>
			<point x="211.5247" y="382.9939"/>
			<point x="177.72134" y="398.21451"/>
			<point x="149.92084" y="421.89084" type="curve" smooth="yes"/>
			<point x="136.02059" y="433.72901"/>
			<point x="123.7439" y="447.66148"/>
			<point x="114.98557" y="463.68181" type="curve" smooth="yes"/>
			<point x="106.22725" y="479.70214"/>
			<point x="101.08063" y="497.88072"/>
			<point x="101.5525" y="516.13275" type="curve" smooth="yes"/>
			<point x="102.26707" y="543.77231"/>
			<point x="116.21718" y="570.44641"/>
			<point x="137.45424" y="588.15074" type="curve" smooth="yes"/>
			<point x="158.6913" y="605.85507"/>
			<point x="186.70597" y="614.72778"/>
			<point x="214.35048" y="614.24074" type="curve" smooth="yes"/>
			<point x="239.71676" y="613.79383"/>
			<point x="265.09123" y="605.53589"/>
			<point x="285.07101" y="589.9008" type="curve" smooth="yes"/>
			<point x="305.0508" y="574.26571"/>
			<point x="319.33231" y="551.15724"/>
			<point x="323.10128" y="526.06854" type="curve" smooth="yes"/>
			<point x="325.84075" y="507.83284"/>
			<point x="323.07078" y="488.92038"/>
			<point x="316.01461" y="471.88349" type="curve" smooth="yes"/>
			<point x="308.95841" y="454.8466"/>
			<point x="297.70351" y="439.6715"/>
			<point x="284.02561" y="427.30378" type="curve" smooth="yes"/>
			<point x="254.29259" y="400.41884"/>
			<point x="214.87547" y="387.60647"/>
			<point x="179.06276" y="369.59808" type="curve" smooth="yes"/>
			<point x="147.87253" y="353.9141"/>
			<point x="118.90329" y="333.92683"/>
			<point x="92.670364" y="310.89095" type="curve" smooth="yes"/>
			<point x="73.534822" y="294.08749"/>
			<point x="55.733713" y="275.53134"/>
			<point x="41.748697" y="254.24884" type="curve" smooth="yes"/>
			<point x="27.763681" y="232.96634"/>
			<point x="17.669354" y="208.81941"/>
			<point x="14.749554" y="183.52119" type="curve" smooth="yes"/>
			<point x="11.131471" y="152.17278"/>
			<point x="18.790033" y="119.95124"/>
			<point x="34.3632" y="92.50512" type="curve" smooth="yes"/>
			<point x="49.936366" y="65.059"/>
			<point x="73.163817" y="42.30446"/>
			<point x="99.85783" y="25.47464" type="curve"/>
		</contour>
		<contour>
			<point x="296.11898" y="349.84412" type="curve" smooth="yes"/>
			<point x="326.7258" y="370.14054"/>
			<point x="352.36421" y="398.02653"/>
			<point x="369.38269" y="430.57024" type="curve" smooth="yes"/>
			<point x="386.40118" y="463.11395"/>
			<point x="394.68881" y="500.2763"/>
			<point x="392.38932" y="536.92919" type="curve" smooth="yes"/>
			<point x="389.69122" y="579.93577"/>
			<point x="372.11424" y="622.07172"/>
			<point x="342.51882" y="653.39195" type="curve" smooth="yes"/>
			<point x="312.9234" y="684.71219"/>
			<point x="271.37405" y="704.757657"/>
			<point x="228.35129" y="707.184176" type="curve" smooth="yes"/>
			<point x="179.12746" y="709.96044"/>
			<point x="129.67104" y="689.53595"/>
			<point x="94.50896" y="654.977" type="curve" smooth="yes"/>
			<point x="59.346881" y="620.41805"/>
			<point x="38.302448" y="572.59766"/>
			<point x="33.388624" y="523.54109" type="curve" smooth="yes"/>
			<point x="30.696237" y="496.66197"/>
			<point x="32.674795" y="469.19486"/>
			<point x="40.485817" y="443.33516" type="curve" smooth="yes"/>
			<point x="48.296839" y="417.47546"/>
			<point x="62.039105" y="393.26409"/>
			<point x="81.194114" y="374.21621" type="curve" smooth="yes"/>
			<point x="99.896396" y="355.61853"/>
			<point x="123.25327" y="342.31045"/>
			<point x="147.45584" y="331.82785" type="curve" smooth="yes"/>
			<point x="171.65842" y="321.34526"/>
			<point x="196.90226" y="313.49815"/>
			<point x="221.65344" y="304.38617" type="curve" smooth="yes"/>
			<point x="248.44087" y="294.52457"/>
			<point x="275.12118" y="282.89987"/>
			<point x="296.87746" y="264.42064" type="curve" smooth="yes"/>
			<point x="307.7556" y="255.18103"/>
			<point x="317.29848" y="244.2625"/>
			<point x="324.27853" y="231.81328" type="curve" smooth="yes"/>
			<point x="331.25859" y="219.36406"/>
			<point x="335.62674" y="205.35208"/>
			<point x="336.13148" y="191.0885" type="curve" smooth="yes"/>
			<point x="336.61513" y="177.42108"/>
			<point x="333.53464" y="163.69159"/>
			<point x="327.63196" y="151.35504" type="curve" smooth="yes"/>
			<point x="321.72927" y="139.01849"/>
			<point x="313.04125" y="128.07258"/>
			<point x="302.63477" y="119.19918" type="curve" smooth="yes"/>
			<point x="281.8218" y="101.45238"/>
			<point x="254.51365" y="92.3138"/>
			<point x="227.20871" y="90.71097" type="curve" smooth="yes"/>
			<point x="198.61889" y="89.03271"/>
			<point x="169.06992" y="95.58503"/>
			<point x="145.65779" y="112.07946" type="curve" smooth="yes"/>
			<point x="133.95172" y="120.32667"/>
			<point x="123.89179" y="130.97892"/>
			<point x="116.70553" y="143.36464" type="curve" smooth="yes"/>
			<point x="109.51928" y="155.75037"/>
			<point x="105.24802" y="169.87412"/>
			<point x="104.80377" y="184.18674" type="curve" smooth="yes"/>
			<point x="104.35895" y="198.51785"/>
			<point x="107.74003" y="212.85635"/>
			<point x="113.80917" y="225.84651" type="curve" smooth="yes"/>
			<point x="119.87832" y="238.83667"/>
			<point x="128.5866" y="250.5061"/>
			<point x="138.74336" y="260.62631" type="curve" smooth="yes"/>
			<point x="159.0569" y="280.86674"/>
			<point x="184.77253" y="294.74169"/>
			<point x="210.75049" y="306.88502" type="curve" smooth="yes"/>
			<point x="239.6416" y="320.39009"/>
			<point x="269.54019" y="332.21882"/>
		</contour>
	</outline>
</glyph>
<glyph name="colon" format="2">
	<unicode hex="003A"/>
	<advance height="1024" width="219"/>
	<outline>
		<contour>
			<point x="146.36966" y="230.99733" type="line"/>
			<point x="62.034361" y="236.55001" type="line" smooth="yes"/>
			<point x="58.6522319982" y="236.7726911161"/>
			<point x="55.3368476486" y="235.5351623739"/>
			<point x="52.9278347905" y="233.1508300745" type="curve" smooth="yes"/>
			<point x="50.5188219324" y="230.7664977751"/>
			<point x="49.247218402" y="227.4640327511"/>
			<point x="49.43506" y="224.07979" type="curve" smooth="yes"/>
			<point x="54.057148" y="140.80688" type="line" smooth="yes"/>
			<point x="54.4713149036" y="133.3451335227"/>
			<point x="60.6934222129" y="127.5359712"/>
			<point x="68.166006" y="127.63439" type="curve" smooth="yes"/>
			<point x="143.05822" y="128.62077" type="line" smooth="yes"/>
			<point x="150.5376342249" y="128.7192780381"/>
			<point x="156.6169184602" y="134.682782241"/>
			<point x="156.85921" y="142.15892" type="curve" smooth="yes"/>
			<point x="159.27683" y="216.75691" type="line" smooth="yes"/>
			<point x="159.5183000862" y="224.2075792972"/>
			<point x="153.8081358171" y="230.5075766987"/>
			<point x="146.36966" y="230.99733" type="curve"/>
		</contour>
		<contour>
			<point x="146.87094" y="438.54594" type="line"/>
			<point x="62.535642" y="444.09862" type="line" smooth="yes"/>
			<point x="59.1535129982" y="444.3213011161"/>
			<point x="55.8381286486" y="443.0837723739"/>
			<point x="53.4291157905" y="440.6994400745" type="curve" smooth="yes"/>
			<point x="51.0201029324" y="438.3151077751"/>
			<point x="49.748499402" y="435.0126427511"/>
			<point x="49.936341" y="431.6284" type="curve" smooth="yes"/>
			<point x="54.558429" y="348.35549" type="line" smooth="yes"/>
			<point x="54.9725959036" y="340.8937435227"/>
			<point x="61.1947032129" y="335.0845812"/>
			<point x="68.667287" y="335.183" type="curve" smooth="yes"/>
			<point x="143.5595" y="336.16938" type="line" smooth="yes"/>
			<point x="151.0389142249" y="336.2678880381"/>
			<point x="157.1181984602" y="342.231392241"/>
			<point x="157.36049" y="349.70753" type="curve" smooth="yes"/>
			<point x="159.77811" y="424.30552" type="line" smooth="yes"/>
			<point x="160.0195800862" y="431.7561892972"/>
			<point x="154.3094158171" y="438.0561866987"/>
			<point x="146.87094" y="438.54594" type="curve"/>
		</contour>
	</outline>
</glyph>
<glyph name="less" format="2">
  <advance height="1024" width="409"/>
  <unicode hex="003C"/>
  <outline>
    <contour>
      <point x="369.86506" y="608.41016" type="line"/>
      <point x="370.7844" y="503.18766" type="line" smooth="yes"/>
      <point x="370.8454389333269" y="496.2016438853668"/>
      <point x="367.45235700914026" y="489.6362659948343"/>
      <point x="361.71824" y="485.6452699999999" type="curve" smooth="yes"/>
      <point x="143.53819" y="333.79004" type="line" smooth="yes"/>
      <point x="141.52432675824224" y="332.38837203976874"/>
      <point x="140.3571894418101" y="330.06229864894755"/>
      <point x="140.43726111683003" y="327.60997184484887" type="curve" smooth="yes"/>
      <point x="140.5173327918499" y="325.1576450407501"/>
      <point x="141.83372107432965" y="322.91266200637205"/>
      <point x="143.93473" y="321.64534999999995" type="curve" smooth="yes"/>
      <point x="362.40871999999996" y="189.86329" type="line" smooth="yes"/>
      <point x="368.33350300312964" y="186.28950486781628"/>
      <point x="371.9290407566723" y="179.8511899151764"/>
      <point x="371.86398" y="172.93232" type="curve" smooth="yes"/>
      <point x="370.95146" y="75.89374999999995" type="line" smooth="yes"/>
      <point x="370.93111477666105" y="73.73025376991745"/>
      <point x="369.70736160622016" y="71.7582298540051"/>
      <point x="367.7777880665835" y="70.7795185478335" type="curve" smooth="yes"/>
      <point x="365.848214526947" y="69.80080724166214"/>
      <point x="363.5341456968065" y="69.97838988852425"/>
      <point x="361.77649999999994" y="71.24005999999997" type="curve" smooth="yes"/>
      <point x="18.175958" y="317.88329" type="line" smooth="yes"/>
      <point x="15.180248764374063" y="320.0336696561352"/>
      <point x="13.362324905547506" y="323.46109053374147"/>
      <point x="13.262255355040335" y="327.1473342282081" type="curve" smooth="yes"/>
      <point x="13.162185804533165" y="330.8335779226747"/>
      <point x="14.791482544697924" y="334.3545796496312"/>
      <point x="17.666113999999993" y="336.66432000000003" type="curve" smooth="yes"/>
      <point x="361.06412" y="612.58143" type="line" smooth="yes"/>
      <point x="362.68071726071423" y="613.8803498729407"/>
      <point x="364.8974385675466" y="614.141197552138"/>
      <point x="366.77139746619866" y="613.25302100109" type="curve" smooth="yes"/>
      <point x="368.6453563648508" y="612.364844450042"/>
      <point x="369.8469428823176" y="610.4838647306008"/>
      <point x="369.86505999999997" y="608.41016" type="curve"/>
    </contour>
  </outline>
</glyph>
<glyph name="equal" format="2">
	<unicode hex="003D"/>
	<advance height="1024" width="509"/>
	<outline>
		<contour>
			<point x="34.919479" y="313.83442" type="line"/>
			<point x="479.83912" y="315.96655" type="line" smooth="yes"/>
			<point x="484.2545207452" y="315.9877105402"/>
			<point x="488.4628885357" y="314.0964140277"/>
			<point x="491.3785898812" y="310.7805586066" type="curve" smooth="yes"/>
			<point x="494.2942912266" y="307.4647031856"/>
			<point x="495.6318004404" y="303.0490004033"/>
			<point x="495.04608" y="298.67257" type="curve" smooth="yes"/>
			<point x="484.16503" y="217.37098" type="line" smooth="yes"/>
			<point x="482.8301309013" y="207.3968073374"/>
			<point x="474.3697646115" y="199.9185111853"/>
			<point x="464.30716" y="199.81819" type="curve" smooth="yes"/>
			<point x="16.394339" y="195.35274" type="line" smooth="yes"/>
			<point x="12.0282168199" y="195.309212199"/>
			<point x="7.8640279097" y="197.1886698381"/>
			<point x="5.0083272936" y="200.4916823347" type="curve" smooth="yes"/>
			<point x="2.1526266776" y="203.7946948314"/>
			<point x="0.8946161169" y="208.1867603735"/>
			<point x="1.5685883" y="212.50077" type="curve" smooth="yes"/>
			<point x="14.6804" y="296.42758" type="line" smooth="yes"/>
			<point x="16.2400782871" y="306.4108508438"/>
			<point x="24.8152250191" y="313.7859990479"/>
			<point x="34.919479" y="313.83442" type="curve"/>
		</contour>
		<contour>
			<point x="32.975226" y="500.72009" type="line"/>
			<point x="480.95832" y="506.85501" type="line" smooth="yes"/>
			<point x="485.3457695752" y="506.9150954688"/>
			<point x="489.5405203646" y="505.0554587741"/>
			<point x="492.4421273299" y="501.7639543981" type="curve" smooth="yes"/>
			<point x="495.3437342951" y="498.4724500221"/>
			<point x="496.6625981498" y="494.077591554"/>
			<point x="496.05273" y="489.73232" type="curve" smooth="yes"/>
			<point x="483.704" y="401.74845" type="line" smooth="yes"/>
			<point x="482.307888794" y="391.8012501827"/>
			<point x="473.7789025122" y="384.4142586438"/>
			<point x="463.73428" y="384.45259" type="curve" smooth="yes"/>
			<point x="17.512842" y="386.15556" type="line" smooth="yes"/>
			<point x="13.0846753487" y="386.1724600425"/>
			<point x="8.878688326" y="388.0973054869"/>
			<point x="5.9713815254" y="391.4374421114" type="curve" smooth="yes"/>
			<point x="3.0640747247" y="394.7775787358"/>
			<point x="1.7376259884" y="399.2088190328"/>
			<point x="2.331533" y="403.59701" type="curve" smooth="yes"/>
			<point x="13.092405" y="483.10547" type="line" smooth="yes"/>
			<point x="14.4437969483" y="493.0904279109"/>
			<point x="22.9001772015" y="500.5821175829"/>
			<point x="32.975226" y="500.72009" type="curve" smooth="yes"/>
		</contour>
	</outline>
</glyph>
<glyph name="B" format="2">
	<unicode hex="0042"/>
	<advance height="1024" width="524"/>
	<outline>
		<contour>
			<point x="146.6823" y="96.43659" type="line"/>
			<point x="208.2019" y="83.60731"/>
			<point x="273.02723" y="86.9872"/>
			<point x="332.87909" y="106.1446" type="curve" smooth="yes"/>
			<point x="357.36662" y="113.98257"/>
			<point x="381.39249" y="124.63998"/>
			<point x="400.92351" y="141.36158" type="curve" smooth="yes"/>
			<point x="420.45453" y="158.08318"/>
			<point x="435.19404" y="181.48457"/>
			<point x="437.49486" y="207.09275" type="curve" smooth="yes"/>
			<point x="438.95587" y="223.3538"/>
			<point x="435.35554" y="239.9128"/>
			<point x="428.07795" y="254.52762" type="curve" smooth="yes"/>
			<point x="420.80036" y="269.14244"/>
			<point x="409.93256" y="281.84145"/>
			<point x="397.17427" y="292.02881" type="curve" smooth="yes"/>
			<point x="365.58303" y="317.2541"/>
			<point x="322.07209" y="326.48145"/>
			<point x="282.73092" y="317.17587" type="curve" smooth="yes"/>
			<point x="268.01142" y="313.69419"/>
			<point x="253.88427" y="307.74735"/>
			<point x="241.07496" y="299.70532" type="curve" smooth="yes"/>
			<point x="231.44205" y="293.65753"/>
			<point x="220.7494" y="295.91415"/>
			<point x="216.12229" y="306.31617" type="curve" smooth="yes"/>
			<point x="186.63978" y="372.59469" type="line" smooth="yes"/>
			<point x="182.01267" y="382.99671"/>
			<point x="187.23802" y="393.59043"/>
			<point x="198.18821" y="396.70349" type="curve" smooth="yes"/>
			<point x="228.98002" y="405.45739"/>
			<point x="259.02895" y="416.82453"/>
			<point x="287.90166" y="430.6499" type="curve" smooth="yes"/>
			<point x="310.24797" y="441.35017"/>
			<point x="332.08134" y="453.65405"/>
			<point x="350.57796" y="470.13824" type="curve" smooth="yes"/>
			<point x="369.07458" y="486.62243"/>
			<point x="384.1681" y="507.60942"/>
			<point x="390.57136" y="531.54374" type="curve" smooth="yes"/>
			<point x="397.77133" y="558.45602"/>
			<point x="393.37598" y="588.01337"/>
			<point x="379.86143" y="612.37456" type="curve" smooth="yes"/>
			<point x="366.34689" y="636.73575"/>
			<point x="344.07164" y="655.85621"/>
			<point x="318.47355" y="666.84931" type="curve" smooth="yes"/>
			<point x="291.3143" y="678.51285"/>
			<point x="260.81203" y="681.18624"/>
			<point x="231.48995" y="677.46081" type="curve" smooth="yes"/>
			<point x="202.16786" y="673.73538"/>
			<point x="173.90638" y="663.82994"/>
			<point x="147.17145" y="651.22411" type="curve" smooth="yes"/>
			<point x="115.15561" y="636.12827"/>
			<point x="85.01224" y="617.06978"/>
			<point x="57.63013" y="594.6404" type="curve" smooth="yes"/>
			<point x="48.823748" y="587.42686"/>
			<point x="38.925592" y="589.90251"/>
			<point x="35.130659" y="600.63613" type="curve" smooth="yes"/>
			<point x="6.8713352" y="680.56505" type="line" smooth="yes"/>
			<point x="3.0764016" y="691.29868"/>
			<point x="6.8715299" y="706.173638"/>
			<point x="15.788086" y="713.249991" type="curve" smooth="yes"/>
			<point x="49.07031" y="739.663412"/>
			<point x="86.810825" y="760.457499"/>
			<point x="126.94297" y="774.420666" type="curve" smooth="yes"/>
			<point x="171.57537" y="789.949605"/>
			<point x="219.00887" y="797.021932"/>
			<point x="266.26346" y="796.5715958" type="curve" smooth="yes"/>
			<point x="306.92253" y="796.1841148"/>
			<point x="347.96128" y="790.1387586"/>
			<point x="385.38756" y="774.245872" type="curve" smooth="yes"/>
			<point x="422.81384" y="758.352986"/>
			<point x="456.52008" y="732.097621"/>
			<point x="477.23007" y="697.1061" type="curve" smooth="yes"/>
			<point x="497.56299" y="662.75168"/>
			<point x="504.50566" y="621.29377"/>
			<point x="499.83735" y="581.64707" type="curve" smooth="yes"/>
			<point x="495.16904" y="542.00038"/>
			<point x="479.33373" y="504.13958"/>
			<point x="457.21659" y="470.90578" type="curve" smooth="yes"/>
			<point x="422.5125" y="418.75849"/>
			<point x="371.92533" y="377.33591"/>
			<point x="313.95713" y="353.59982" type="curve"/>
			<point x="264.04985" y="395.50502" type="line"/>
			<point x="300.75994" y="408.9575"/>
			<point x="341.66784" y="410.68311"/>
			<point x="379.38043" y="400.36996" type="curve" smooth="yes"/>
			<point x="417.09301" y="390.05682"/>
			<point x="451.43" y="367.75424"/>
			<point x="476.1858" y="337.49287" type="curve" smooth="yes"/>
			<point x="506.12725" y="300.89259"/>
			<point x="521.61338" y="252.98252"/>
			<point x="519.7391" y="205.73257" type="curve" smooth="yes"/>
			<point x="517.38967" y="146.50428"/>
			<point x="487.48033" y="89.02386"/>
			<point x="440.58946" y="52.76428" type="curve" smooth="yes"/>
			<point x="406.33258" y="26.27426"/>
			<point x="364.33929" y="11.18559"/>
			<point x="321.70523" y="3.59669" type="curve" smooth="yes"/>
			<point x="279.07116" y="-3.99222"/>
			<point x="235.51667" y="-4.44454"/>
			<point x="192.2134" y="-4.1583" type="curve" smooth="yes"/>
			<point x="143.41608" y="-3.83574"/>
			<point x="94.624781" y="-2.60268"/>
			<point x="45.873456" y="-0.46006" type="curve" smooth="yes"/>
			<point x="34.499713" y="0.03982"/>
			<point x="27.078855" y="9.55178"/>
			<point x="29.220975" y="20.73316" type="curve" smooth="yes"/>
			<point x="35.293293" y="52.42926"/>
			<point x="40.921346" y="84.21049"/>
			<point x="46.102885" y="116.06434" type="curve" smooth="yes"/>
			<point x="62.387738" y="216.17655"/>
			<point x="74.27776" y="317.31996"/>
			<point x="73.48034" y="418.74489" type="curve" smooth="yes"/>
			<point x="73.085958" y="468.90685"/>
			<point x="69.58378" y="519.04409"/>
			<point x="63.003773" y="568.77414" type="curve" smooth="yes"/>
			<point x="61.510441" y="580.06037"/>
			<point x="69.024407" y="586.73504"/>
			<point x="80.000342" y="583.71162" type="curve" smooth="yes"/>
			<point x="177.68952" y="556.80227" type="line" smooth="yes"/>
			<point x="188.66545" y="553.77885"/>
			<point x="194.245" y="542.71434"/>
			<point x="190.42219" y="531.99087" type="curve" smooth="yes"/>
			<point x="177.20521" y="494.91555"/>
			<point x="166.3898" y="456.98411"/>
			<point x="158.06994" y="418.51267" type="curve" smooth="yes"/>
			<point x="135.24303" y="312.9599"/>
			<point x="131.36713" y="203.33794"/>
			<point x="146.6823" y="96.43659" type="curve"/>
		</contour>
	</outline>
	<anchor name="top" x="252.94977" y="798.4033085"/>
</glyph>
<glyph name="C" format="2">
  <advance height="1024" width="560"/>
  <unicode hex="0043"/>
  <anchor x="353.84598" y="796.9044445" name="top"/>
  <anchor x="352.34192" y="3.7134399999999914" name="bottom"/>
  <outline>
    <contour>
      <point x="302.39915" y="790.0" type="curve" smooth="yes"/>
      <point x="244.08688" y="774.629256"/>
      <point x="191.93967" y="740.193568"/>
      <point x="149.52145" y="697.33013" type="curve" smooth="yes"/>
      <point x="81.914359" y="629.01345"/>
      <point x="37.682369" y="538.70037"/>
      <point x="21.512152" y="443.95644" type="curve" smooth="yes"/>
      <point x="7.039765600000001" y="359.16038"/>
      <point x="14.842459000000002" y="270.12446"/>
      <point x="47.618324" y="190.59104000000002" type="curve" smooth="yes"/>
      <point x="64.715274" y="149.10384"/>
      <point x="88.630015" y="110.14319999999998"/>
      <point x="120.05956" y="78.11699999999996" type="curve" smooth="yes"/>
      <point x="151.48911" y="46.09080999999992"/>
      <point x="190.61273" y="21.16432999999995"/>
      <point x="233.7982" y="8.977930000000015" type="curve" smooth="yes"/>
      <point x="307.17502" y="-11.72810000000004"/>
      <point x="387.71496" y="5.862039999999979"/>
      <point x="453.62086" y="44.193610000000035" type="curve" smooth="yes"/>
      <point x="484.71116" y="62.27606000000003"/>
      <point x="513.17983" y="84.84888999999998"/>
      <point x="537.91742" y="110.95515" type="curve" smooth="yes"/>
      <point x="549.94612" y="123.64937999999995"/>
      <point x="557.25681" y="148.94244000000003"/>
      <point x="555.46304" y="166.34349999999995" type="curve" smooth="yes"/>
      <point x="544.72878" y="270.47482" type="line" smooth="yes"/>
      <point x="542.93501" y="287.87588000000005"/>
      <point x="533.67245" y="290.12415000000004"/>
      <point x="523.0519300000001" y="276.22747000000004" type="curve" smooth="yes"/>
      <point x="489.27132000000006" y="232.02642000000003"/>
      <point x="448.18396000000007" y="193.40947000000006"/>
      <point x="401.92145000000005" y="162.50695000000007" type="curve" smooth="yes"/>
      <point x="377.3311800000001" y="146.08109000000013"/>
      <point x="351.03957" y="131.70866000000012"/>
      <point x="322.61516000000006" y="123.55127000000005" type="curve" smooth="yes"/>
      <point x="294.19074000000006" y="115.39389000000006"/>
      <point x="263.40647000000007" y="113.71621000000005"/>
      <point x="235.14030000000005" y="122.40608000000009" type="curve" smooth="yes"/>
      <point x="205.83410000000006" y="131.41568000000007"/>
      <point x="180.52152000000007" y="151.22527000000014"/>
      <point x="161.88831000000005" y="175.5733600000001" type="curve" smooth="yes"/>
      <point x="143.25509000000005" y="199.92146000000014"/>
      <point x="130.96534000000005" y="228.65051000000005"/>
      <point x="122.74657000000005" y="258.18825000000015" type="curve" smooth="yes"/>
      <point x="108.68706000000005" y="308.71725000000015"/>
      <point x="106.18968000000005" y="362.3628600000002"/>
      <point x="114.92429000000004" y="414.0789800000001" type="curve" smooth="yes"/>
      <point x="131.72393000000005" y="513.5467100000001"/>
      <point x="191.74646000000004" y="605.3047100000001"/>
      <point x="277.16357000000005" y="658.9701100000001" type="curve" smooth="yes"/>
      <point x="290.27314000000007" y="667.2065200000002"/>
      <point x="304.12949000000003" y="674.6518000000001"/>
      <point x="319.18745000000007" y="678.2514000000001" type="curve" smooth="yes"/>
      <point x="334.24541000000005" y="681.8509900000001"/>
      <point x="350.72873000000004" y="681.3164800000001"/>
      <point x="364.4661500000001" y="674.1762800000001" type="curve" smooth="yes"/>
      <point x="373.4482000000001" y="669.5077500000001"/>
      <point x="380.8977200000001" y="662.2237200000002"/>
      <point x="386.7312100000001" y="653.9507100000001" type="curve" smooth="yes"/>
      <point x="392.5647000000001" y="645.6776900000001"/>
      <point x="396.8591300000001" y="636.4162500000001"/>
      <point x="400.5136700000001" y="626.9760900000001" type="curve" smooth="yes"/>
      <point x="411.0815900000001" y="599.6777800000001"/>
      <point x="416.4726100000001" y="570.3969700000001"/>
      <point x="416.4300600000001" y="541.1276300000002" type="curve" smooth="yes"/>
      <point x="416.40906000000007" y="526.6549900000001"/>
      <point x="426.6593400000001" y="515.4736600000001"/>
      <point x="441.1259700000001" y="516.1005800000001" type="curve" smooth="yes"/>
      <point x="533.8198200000002" y="520.1175900000002" type="line" smooth="yes"/>
      <point x="548.2864500000002" y="520.7445100000002"/>
      <point x="558.0214600000002" y="532.8250900000002"/>
      <point x="555.0246800000002" y="546.9910800000002" type="curve" smooth="yes"/>
      <point x="547.78217" y="581.22689"/>
      <point x="538.2105" y="614.97002"/>
      <point x="526.3927" y="647.90766" type="curve" smooth="yes"/>
      <point x="516.69536" y="674.93533"/>
      <point x="505.38601" y="701.611545"/>
      <point x="489.34981" y="725.431156" type="curve" smooth="yes"/>
      <point x="473.31361" y="749.250766"/>
      <point x="452.25624" y="770.220812"/>
      <point x="426.49321" y="782.9014990000001" type="curve" smooth="yes"/>
      <point x="388.50905" y="801.5974871"/>
      <point x="343.33682" y="800.79091134"/>
    </contour>
  </outline>
</glyph>
<glyph name="D" format="2">
	<unicode hex="0044"/>
	<advance height="1024" width="552"/>
	<outline>
		<contour>
			<point x="194.47345" y="571.43054" type="line"/>
			<point x="170.20534" y="496.14582"/>
			<point x="154.71143" y="418.03484"/>
			<point x="148.42567" y="339.18496" type="curve" smooth="yes"/>
			<point x="141.55219" y="252.96263"/>
			<point x="145.69169" y="165.86839"/>
			<point x="160.71182" y="80.68664" type="curve"/>
			<point x="203.96476" y="78.77494"/>
			<point x="247.65883" y="87.82936"/>
			<point x="286.59036" y="106.77158" type="curve" smooth="yes"/>
			<point x="359.36369" y="142.17961"/>
			<point x="413.00982" y="211.5274"/>
			<point x="436.68514" y="288.9171" type="curve" smooth="yes"/>
			<point x="454.8902" y="348.42564"/>
			<point x="456.40569" y="412.55365"/>
			<point x="444.07054" y="473.54983" type="curve" smooth="yes"/>
			<point x="431.69917" y="534.72511"/>
			<point x="404.44029" y="594.48237"/>
			<point x="358.16062" y="636.35907" type="curve" smooth="yes"/>
			<point x="313.54375" y="676.73117"/>
			<point x="252.37955" y="698.19933"/>
			<point x="192.31012" y="694.70143" type="curve" smooth="yes"/>
			<point x="131.96987" y="691.18776"/>
			<point x="73.629429" y="662.30206"/>
			<point x="33.750211" y="616.97157" type="curve" smooth="yes"/>
			<point x="26.873738" y="609.15512"/>
			<point x="19.898903" y="610.4933"/>
			<point x="17.406725" y="620.60464" type="curve" smooth="yes"/>
			<point x="-4.9916092" y="711.47987" type="line" smooth="yes"/>
			<point x="-7.4837868" y="721.591211"/>
			<point x="-2.950432" y="735.123493"/>
			<point x="5.535515" y="741.157388" type="curve" smooth="yes"/>
			<point x="69.178688" y="786.410581"/>
			<point x="149.02009" y="808.6062781"/>
			<point x="226.89006" y="802.180286" type="curve" smooth="yes"/>
			<point x="327.15141" y="793.9065104"/>
			<point x="422.41967" y="737.473695"/>
			<point x="477.57005" y="653.33554" type="curve" smooth="yes"/>
			<point x="523.08064" y="583.90398"/>
			<point x="540.95855" y="499.36374"/>
			<point x="543.03795" y="416.37198" type="curve" smooth="yes"/>
			<point x="544.91184" y="341.58248"/>
			<point x="534.38196" y="265.64061"/>
			<point x="504.35617" y="197.11737" type="curve" smooth="yes"/>
			<point x="474.33039" y="128.59414"/>
			<point x="423.8215" y="67.83078"/>
			<point x="357.75673" y="32.72483" type="curve" smooth="yes"/>
			<point x="327.02268" y="16.39316"/>
			<point x="293.49316" y="5.78798"/>
			<point x="259.42806" y="-1.34467" type="curve" smooth="yes"/>
			<point x="192.78971" y="-15.29759"/>
			<point x="123.43007" y="-16.08988"/>
			<point x="56.477859" y="-3.75268" type="curve" smooth="yes"/>
			<point x="46.236903" y="-1.86559"/>
			<point x="39.680108" y="8.27364"/>
			<point x="41.622086" y="18.50485" type="curve" smooth="yes"/>
			<point x="52.384093" y="75.20394"/>
			<point x="60.171127" y="132.46765"/>
			<point x="64.938638" y="189.98183" type="curve" smooth="yes"/>
			<point x="71.083048" y="264.10661"/>
			<point x="72.210436" y="338.62313"/>
			<point x="69.056663" y="412.93524" type="curve" smooth="yes"/>
			<point x="66.346892" y="476.78538"/>
			<point x="60.477844" y="540.50131"/>
			<point x="51.479667" y="603.77227" type="curve" smooth="yes"/>
			<point x="50.013392" y="614.08243"/>
			<point x="56.981991" y="620.62729"/>
			<point x="67.156456" y="618.40684" type="curve" smooth="yes"/>
			<point x="182.00207" y="593.34312" type="line" smooth="yes"/>
			<point x="192.17654" y="591.12267"/>
			<point x="197.66846" y="581.3421"/>
			<point x="194.47345" y="571.43054" type="curve"/>
		</contour>
	</outline>
	<anchor name="top" x="229.2618" y="801.2999042"/>
</glyph>
<glyph name="I" format="2">
  <advance height="1024" width="251"/>
  <unicode hex="0049"/>
  <anchor x="133.84598" y="796.9044437" name="top"/>
  <outline>
    <contour>
      <point x="65.860558" y="762.822055" type="curve" smooth="yes"/>
      <point x="70.840499" y="741.582727"/>
      <point x="74.812055" y="720.106948"/>
      <point x="77.755667" y="698.4911099999999" type="curve" smooth="yes"/>
      <point x="104.17693" y="504.47175"/>
      <point x="47.350334000000004" y="306.64245"/>
      <point x="70.87486100000001" y="112.25060000000008" type="curve" smooth="yes"/>
      <point x="74.789089" y="79.90589000000011"/>
      <point x="80.92176500000001" y="47.82996000000003"/>
      <point x="89.21207000000001" y="16.321720000000028" type="curve" smooth="yes"/>
      <point x="91.59145300000002" y="7.2786100000000715"/>
      <point x="101.27995000000001" y="0.4762200000000121"/>
      <point x="110.61260000000001" y="1.0636600000000271" type="curve" smooth="yes"/>
      <point x="199.75353" y="6.674650000000042" type="line" smooth="yes"/>
      <point x="211.38222000000002" y="7.406620000000089"/>
      <point x="216.26619000000002" y="16.287320000000022"/>
      <point x="211.16078000000002" y="26.759960000000092" type="curve" smooth="yes"/>
      <point x="202.79079000000002" y="43.929140000000075"/>
      <point x="195.41940000000002" y="61.58517000000006"/>
      <point x="189.09894000000003" y="79.60987000000011" type="curve" smooth="yes"/>
      <point x="155.45535" y="175.55470000000014"/>
      <point x="152.30262000000002" y="279.62074000000007"/>
      <point x="159.64589000000004" y="381.02773000000013" type="curve" smooth="yes"/>
      <point x="166.98916000000003" y="482.4347100000001"/>
      <point x="184.44125000000003" y="582.9398800000001"/>
      <point x="190.74702000000005" y="684.4166700000001" type="curve" smooth="yes"/>
      <point x="192.73872000000006" y="716.4685510000002"/>
      <point x="193.61564000000004" y="748.5896850000001"/>
      <point x="193.37607000000006" y="780.7024920000001" type="curve" smooth="yes"/>
      <point x="193.31397000000007" y="789.0264080000002"/>
      <point x="186.45165000000006" y="795.2795644000001"/>
      <point x="178.14978000000005" y="794.6703379000002" type="curve" smooth="yes"/>
      <point x="83.844472" y="787.74981" type="line" smooth="yes"/>
      <point x="70.675534" y="786.783416"/>
      <point x="62.846459" y="775.677114"/>
    </contour>
  </outline>
</glyph>
<glyph name="M" format="2">
  <advance height="1024" width="605"/>
  <unicode hex="004D"/>
  <outline>
    <contour>
      <point x="136.18424" y="-0.22730999999998858" type="line"/>
      <point x="38.03357799999999" y="-1.6004199999999855" type="line" smooth="yes"/>
      <point x="29.060154" y="-1.7259599999999864"/>
      <point x="20.672804" y="5.362229999999954"/>
      <point x="19.446657" y="14.252290000000016" type="curve" smooth="yes"/>
      <point x="13.420758" y="57.942499999999995"/>
      <point x="10.024664" y="101.99536999999998"/>
      <point x="9.285238" y="146.09299999999996" type="curve" smooth="yes"/>
      <point x="7.8497119" y="231.70446000000004"/>
      <point x="16.408596" y="317.11911"/>
      <point x="22.069642" y="402.55526" type="curve" smooth="yes"/>
      <point x="29.924323" y="521.09763"/>
      <point x="32.206457" y="640.00906"/>
      <point x="28.907106" y="758.765527" type="curve" smooth="yes"/>
      <point x="28.657874" y="767.736362"/>
      <point x="35.536888" y="776.521493"/>
      <point x="44.31475" y="778.388907" type="curve" smooth="yes"/>
      <point x="130.00493" y="796.6187481" type="line" smooth="yes"/>
      <point x="138.7828" y="798.4861619"/>
      <point x="148.98687" y="793.4128023"/>
      <point x="152.74573" y="785.263641" type="curve" smooth="yes"/>
      <point x="190.50679000000002" y="703.398245"/>
      <point x="224.47508" y="619.78348"/>
      <point x="254.50414" y="534.77702" type="curve" smooth="yes"/>
      <point x="281.76796" y="457.59842"/>
      <point x="305.78526" y="379.27305"/>
      <point x="326.47126000000003" y="300.07746" type="curve"/>
      <point x="273.27451" y="266.58767" type="line"/>
      <point x="298.85449" y="337.27481"/>
      <point x="323.26071" y="408.3867"/>
      <point x="346.47971" y="479.88414" type="curve" smooth="yes"/>
      <point x="376.79816" y="573.24266"/>
      <point x="405.09224" y="667.25859"/>
      <point x="431.33544" y="761.843554" type="curve" smooth="yes"/>
      <point x="433.73478" y="770.491169"/>
      <point x="442.80794000000003" y="778.866668"/>
      <point x="451.62404" y="780.544355" type="curve" smooth="yes"/>
      <point x="537.89868" y="796.9622779" type="line" smooth="yes"/>
      <point x="546.71478" y="798.6399655"/>
      <point x="556.61845" y="793.2649018"/>
      <point x="559.7119" y="784.841038" type="curve" smooth="yes"/>
      <point x="572.03845" y="751.274206"/>
      <point x="580.73885" y="716.375984"/>
      <point x="585.59914" y="680.94895" type="curve" smooth="yes"/>
      <point x="598.51242" y="586.82309"/>
      <point x="584.27945" y="491.38779"/>
      <point x="572.59844" y="397.10108" type="curve" smooth="yes"/>
      <point x="561.47243" y="307.29420000000005"/>
      <point x="552.6608699999999" y="216.21987000000001"/>
      <point x="564.5056099999999" y="126.50495000000001" type="curve" smooth="yes"/>
      <point x="568.25883" y="98.07713000000001"/>
      <point x="574.07863" y="69.92250999999999"/>
      <point x="581.8999899999999" y="42.33536000000004" type="curve" smooth="yes"/>
      <point x="584.3477699999999" y="33.70163000000002"/>
      <point x="579.4191099999999" y="25.30403000000001"/>
      <point x="570.6275899999999" y="23.50201000000004" type="curve" smooth="yes"/>
      <point x="462.96952999999996" y="1.4350800000000845" type="line" smooth="yes"/>
      <point x="454.17801" y="-0.3669399999998859"/>
      <point x="446.77612999999997" y="5.442670000000135"/>
      <point x="446.59005999999994" y="14.41495000000009" type="curve" smooth="yes"/>
      <point x="445.70750999999996" y="56.973460000000046"/>
      <point x="447.37963999999994" y="99.58490000000006"/>
      <point x="451.59676999999994" y="141.94317000000012" type="curve" smooth="yes"/>
      <point x="460.1279799999999" y="227.63349000000017"/>
      <point x="479.03023999999994" y="312.04524000000015"/>
      <point x="487.3250699999999" y="397.7587600000001" type="curve" smooth="yes"/>
      <point x="498.36899" y="511.87967"/>
      <point x="490.3818" y="627.8195000000001"/>
      <point x="463.79274" y="739.347844" type="curve"/>
      <point x="520.11783" y="760.1261939999999" type="line"/>
      <point x="482.35402" y="637.9933599999999"/>
      <point x="443.58023" y="516.17281"/>
      <point x="403.80177" y="394.68121" type="curve" smooth="yes"/>
      <point x="391.96362" y="358.52506000000005"/>
      <point x="380.03648999999996" y="322.39805"/>
      <point x="368.02053" y="286.30061" type="curve" smooth="yes"/>
      <point x="365.18611" y="277.78567"/>
      <point x="356.87285" y="266.78526"/>
      <point x="349.45901000000003" y="261.72829" type="curve" smooth="yes"/>
      <point x="293.06375" y="223.26114000000007" type="line" smooth="yes"/>
      <point x="285.64991000000003" y="218.2041700000001"/>
      <point x="275.87906000000004" y="220.3332200000001"/>
      <point x="271.39781000000005" y="228.10845000000006" type="curve" smooth="yes"/>
      <point x="247.6965" y="269.23159"/>
      <point x="227.2781" y="312.24662"/>
      <point x="210.40611" y="356.61113" type="curve" smooth="yes"/>
      <point x="174.46174" y="451.12604"/>
      <point x="154.63712" y="551.54703"/>
      <point x="113.18966" y="643.78137" type="curve" smooth="yes"/>
      <point x="99.83529" y="673.49927"/>
      <point x="84.286407" y="702.230735"/>
      <point x="66.711444" y="729.664534" type="curve"/>
      <point x="132.2259" y="754.402544" type="line"/>
      <point x="128.45244" y="702.996969"/>
      <point x="124.06681999999999" y="651.63633"/>
      <point x="119.0703" y="600.33519" type="curve" smooth="yes"/>
      <point x="111.79903" y="525.6784299999999"/>
      <point x="103.22609" y="451.02046"/>
      <point x="102.07146" y="376.01933" type="curve" smooth="yes"/>
      <point x="100.87109" y="298.04757"/>
      <point x="107.71422" y="220.03669000000002"/>
      <point x="120.73005" y="143.14961000000005" type="curve" smooth="yes"/>
      <point x="127.98677" y="100.2827400000001"/>
      <point x="137.16044" y="57.74045000000001"/>
      <point x="148.21353" y="15.692190000000096" type="curve" smooth="yes"/>
      <point x="150.49506" y="7.012790000000109"/>
      <point x="145.15766" y="-0.10176999999987402"/>
      <point x="136.18424" y="-0.2273099999998749" type="curve"/>
    </contour>
  </outline>
</glyph>
<glyph name="N" format="2">
	<unicode hex="004E"/>
	<advance height="1024" width="639"/>
	<outline>
		<contour>
			<point x="500.4504" y="92.66833" type="line"/>
			<point x="506.17858" y="139.96969"/>
			<point x="511.44757" y="187.32665"/>
			<point x="516.25637" y="234.7303" type="curve" smooth="yes"/>
			<point x="525.51924" y="326.04074"/>
			<point x="533.06407" y="418.31944"/>
			<point x="521.85149" y="509.41102" type="curve" smooth="yes"/>
			<point x="511.14275" y="596.40935"/>
			<point x="483.16443" y="681.23797"/>
			<point x="440.11439" y="757.587123" type="curve" smooth="yes"/>
			<point x="433.90273" y="768.603492"/>
			<point x="438.42471" y="780.006812"/>
			<point x="450.63609" y="783.299672" type="curve" smooth="yes"/>
			<point x="550.40733" y="810.203467" type="line" smooth="yes"/>
			<point x="562.61871" y="813.496327"/>
			<point x="574.45037" y="806.0963103"/>
			<point x="576.70485" y="793.651349" type="curve" smooth="yes"/>
			<point x="601.55263" y="656.48929"/>
			<point x="614.75483" y="517.21884"/>
			<point x="616.11346" y="377.83071" type="curve" smooth="yes"/>
			<point x="617.15137" y="271.34612"/>
			<point x="611.28594" y="164.79474"/>
			<point x="598.56621" y="59.06748" type="curve"/>
		</contour>
		<contour>
			<point x="452.01435" y="19.92673" type="line"/>
			<point x="415.05595" y="64.55953"/>
			<point x="383.71625" y="113.84412"/>
			<point x="359.00307" y="166.25949" type="curve" smooth="yes"/>
			<point x="326.30223" y="235.61626"/>
			<point x="305.38488" y="309.80774"/>
			<point x="279.80072" y="382.09299" type="curve" smooth="yes"/>
			<point x="250.35514" y="465.28825"/>
			<point x="214.3843" y="546.64195"/>
			<point x="165.85363" y="620.35265" type="curve" smooth="yes"/>
			<point x="133.52787" y="669.45056"/>
			<point x="95.740914" y="714.950026"/>
			<point x="53.413868" y="755.741944" type="curve"/>
			<point x="158.56791" y="798.2876456" type="line" smooth="yes"/>
			<point x="170.29217" y="803.0313256"/>
			<point x="185.56808" y="798.4000726"/>
			<point x="192.37453" y="787.740626" type="curve" smooth="yes"/>
			<point x="215.77291" y="751.096901"/>
			<point x="236.41689" y="712.694407"/>
			<point x="254.06864" y="672.96192" type="curve" smooth="yes"/>
			<point x="296.29425" y="577.91594"/>
			<point x="321.10929" y="476.09412"/>
			<point x="359.13921" y="379.29296" type="curve" smooth="yes"/>
			<point x="379.59916" y="327.21431"/>
			<point x="403.95281" y="276.49803"/>
			<point x="434.57341" y="229.6667" type="curve" smooth="yes"/>
			<point x="477.99173" y="163.26245"/>
			<point x="533.92761" y="105.07321"/>
			<point x="598.56621" y="59.06748" type="curve"/>
			<point x="493.08445" y="10.91825" type="line" smooth="yes"/>
			<point x="479.87441" y="4.88827"/>
			<point x="461.27516" y="8.74291"/>
			<point x="452.01435" y="19.92673" type="curve"/>
		</contour>
		<contour>
			<point x="168.77732" y="698.90623" type="line"/>
			<point x="169.1745" y="652.01295"/>
			<point x="168.93282" y="605.11426"/>
			<point x="168.05237" y="558.22756" type="curve" smooth="yes"/>
			<point x="166.89781" y="496.74359"/>
			<point x="164.645" y="435.28552"/>
			<point x="162.15485" y="373.84114" type="curve" smooth="yes"/>
			<point x="157.43889" y="257.47498"/>
			<point x="151.87124" y="141.14333"/>
			<point x="145.45249" y="24.85867" type="curve" smooth="yes"/>
			<point x="144.75542" y="12.23032"/>
			<point x="134.27026" y="4.62633"/>
			<point x="122.04676" y="7.87392" type="curve" smooth="yes"/>
			<point x="23.736057" y="33.99347" type="line" smooth="yes"/>
			<point x="11.512551" y="37.24106"/>
			<point x="5.5378147" y="49.34299"/>
			<point x="10.134185" y="61.12557" type="curve" smooth="yes"/>
			<point x="38.21192" y="133.10153"/>
			<point x="59.168162" y="207.8547"/>
			<point x="72.582705" y="283.94016" type="curve" smooth="yes"/>
			<point x="86.489659" y="362.81851"/>
			<point x="92.293953" y="443.16894"/>
			<point x="89.014818" y="523.19671" type="curve" smooth="yes"/>
			<point x="85.797732" y="601.71017"/>
			<point x="73.833262" y="679.86203"/>
			<point x="53.413868" y="755.741944" type="curve"/>
		</contour>
	</outline>
	<anchor name="top" x="255.13298" y="795.2004929"/>
</glyph>
<glyph name="O" format="2">
	<unicode hex="004F"/>
	<advance height="1024" width="618"/>
	<outline>
		<contour>
			<point x="338.86742" y="730.753871" type="line"/>
			<point x="275.81521" y="704.114705"/>
			<point x="221.41748" y="657.41466"/>
			<point x="185.53906" y="599.12259" type="curve" smooth="yes"/>
			<point x="149.66063" y="540.83052"/>
			<point x="132.47425" y="471.2271"/>
			<point x="137.0966" y="402.93464" type="curve" smooth="yes"/>
			<point x="141.98524" y="330.70785"/>
			<point x="171.32313" y="260.35396"/>
			<point x="219.19739" y="206.05237" type="curve" smooth="yes"/>
			<point x="267.07166" y="151.75077"/>
			<point x="333.19453" y="113.82787"/>
			<point x="404.23936" y="99.92678" type="curve"/>
			<point x="286.29207" y="45.69232" type="line"/>
			<point x="351.25194" y="76.33888"/>
			<point x="405.89493" y="128.39025"/>
			<point x="439.65925" y="191.78558" type="curve" smooth="yes"/>
			<point x="473.42356" y="255.1809"/>
			<point x="486.12335" y="329.5712"/>
			<point x="475.3039" y="400.57779" type="curve" smooth="yes"/>
			<point x="464.88387" y="468.96304"/>
			<point x="432.7496" y="533.87373"/>
			<point x="384.6864" y="583.6236" type="curve" smooth="yes"/>
			<point x="336.62321" y="633.37346"/>
			<point x="272.85903" y="667.72659"/>
			<point x="204.87369" y="680.49818" type="curve"/>
		</contour>
		<contour>
			<point x="591.94856" y="398.79047" type="line"/>
			<point x="592.30543" y="312.27124"/>
			<point x="565.33927" y="225.83944"/>
			<point x="515.84778" y="154.87257" type="curve" smooth="yes"/>
			<point x="466.35628" y="83.9057"/>
			<point x="394.5684" y="28.73207"/>
			<point x="313.25626" y="-0.83212" type="curve"/>
			<point x="229.35121" y="24.43332"/>
			<point x="153.90122" y="76.98565"/>
			<point x="101.11477" y="146.92841" type="curve" smooth="yes"/>
			<point x="48.328324" y="216.87118"/>
			<point x="18.480496" y="303.83988"/>
			<point x="17.192126" y="391.45689" type="curve" smooth="yes"/>
			<point x="15.877859" y="480.83509"/>
			<point x="44.325731" y="570.39888"/>
			<point x="96.973757" y="642.63721" type="curve" smooth="yes"/>
			<point x="149.62178" y="714.875529"/>
			<point x="226.17309" y="769.381046"/>
			<point x="311.66076" y="795.4971123" type="curve"/>
			<point x="392.80899" y="766.360146"/>
			<point x="464.60444" y="711.75721"/>
			<point x="514.35718" y="641.33944" type="curve" smooth="yes"/>
			<point x="564.10992" y="570.92167"/>
			<point x="591.59293" y="485.01037"/>
			<point x="591.94856" y="398.79047" type="curve"/>
		</contour>
	</outline>
	<anchor name="top" x="314.16815" y="805.9421196"/>
</glyph>
<glyph name="P" format="2">
	<unicode hex="0050"/>
	<advance height="1024" width="476"/>
	<outline>
		<contour>
			<point x="136.53424" y="349.46767" type="line"/>
			<point x="203.37004" y="349.36052"/>
			<point x="269.95462" y="374.2848"/>
			<point x="320.29198" y="418.2528" type="curve" smooth="yes"/>
			<point x="341.79914" y="437.03858"/>
			<point x="360.52204" y="459.35372"/>
			<point x="373.12143" y="484.98025" type="curve" smooth="yes"/>
			<point x="385.72081" y="510.60678"/>
			<point x="391.99704" y="539.6683"/>
			<point x="388.69676" y="568.03327" type="curve" smooth="yes"/>
			<point x="384.93494" y="600.36502"/>
			<point x="368.58826" y="630.90138"/>
			<point x="344.41472" y="652.69894" type="curve" smooth="yes"/>
			<point x="320.24119" y="674.4965"/>
			<point x="288.53815" y="687.54253"/>
			<point x="256.08607" y="690.0636" type="curve" smooth="yes"/>
			<point x="207.34118" y="693.8504"/>
			<point x="159.07204" y="674.42382"/>
			<point x="119.38724" y="645.8665" type="curve" smooth="yes"/>
			<point x="93.919657" y="627.53993"/>
			<point x="71.220458" y="605.3762"/>
			<point x="52.272296" y="580.36863" type="curve" smooth="yes"/>
			<point x="48.570794" y="575.48343"/>
			<point x="43.328672" y="575.75713"/>
			<point x="40.369068" y="581.12471" type="curve" smooth="yes"/>
			<point x="-9.1459848" y="670.92599" type="line" smooth="yes"/>
			<point x="-12.105589" y="676.29357"/>
			<point x="-11.401864" y="684.52848"/>
			<point x="-7.3798306" y="689.15331" type="curve" smooth="yes"/>
			<point x="49.049017" y="754.039412"/>
			<point x="133.20647" y="794.1810793"/>
			<point x="219.2114" y="796.7240056" type="curve" smooth="yes"/>
			<point x="271.92126" y="798.2824896"/>
			<point x="325.66717" y="785.895964"/>
			<point x="369.90569" y="757.195574" type="curve" smooth="yes"/>
			<point x="401.70898" y="736.562719"/>
			<point x="428.15043" y="707.754173"/>
			<point x="446.04412" y="674.33292" type="curve" smooth="yes"/>
			<point x="463.93781" y="640.91167"/>
			<point x="473.25207" y="602.95064"/>
			<point x="472.92414" y="565.04211" type="curve" smooth="yes"/>
			<point x="472.43063" y="507.9932"/>
			<point x="450.2127" y="452.40303"/>
			<point x="416.43019" y="406.42952" type="curve" smooth="yes"/>
			<point x="382.64767" y="360.45601"/>
			<point x="337.76869" y="323.53602"/>
			<point x="289.49691" y="293.12785" type="curve" smooth="yes"/>
			<point x="242.22993" y="263.35264"/>
			<point x="191.30516" y="239.39027"/>
			<point x="138.2333" y="221.95157" type="curve"/>
		</contour>
		<contour>
			<point x="179.1269" y="140.5503" type="line"/>
			<point x="186.03007" y="96.41862"/>
			<point x="196.63617" y="52.86691"/>
			<point x="210.79312" y="10.50144" type="curve" smooth="yes"/>
			<point x="212.73574" y="4.68803"/>
			<point x="209.41465" y="0"/>
			<point x="203.2852" y="0" type="curve" smooth="yes"/>
			<point x="83.169795" y="0" type="line" smooth="yes"/>
			<point x="77.04034" y="0"/>
			<point x="72.595781" y="4.94118"/>
			<point x="73.222207" y="11.03853" type="curve" smooth="yes"/>
			<point x="83.665161" y="112.68565"/>
			<point x="89.905091" y="214.76451"/>
			<point x="91.920183" y="316.92679" type="curve" smooth="yes"/>
			<point x="93.72027" y="408.1886"/>
			<point x="92.149181" y="499.51685"/>
			<point x="87.212125" y="590.6628" type="curve" smooth="yes"/>
			<point x="86.383924" y="605.95273"/>
			<point x="97.548071" y="614.94407"/>
			<point x="112.27564" y="610.75268" type="curve" smooth="yes"/>
			<point x="198.69381" y="586.1585" type="line" smooth="yes"/>
			<point x="204.58917" y="584.48071"/>
			<point x="208.15782" y="578.30129"/>
			<point x="206.71595" y="572.34385" type="curve" smooth="yes"/>
			<point x="198.03433" y="536.47355"/>
			<point x="190.73391" y="500.26897"/>
			<point x="184.83671" y="463.83722" type="curve" smooth="yes"/>
			<point x="167.5426" y="356.99761"/>
			<point x="162.40069" y="247.48029"/>
			<point x="179.1269" y="140.5503" type="curve"/>
		</contour>
	</outline>
	<anchor name="top" x="278.00394" y="794.7810497"/>
</glyph>
<glyph name="Q" format="2">
	<unicode hex="0051"/>
	<advance height="1024" width="621"/>
	<outline>
		<contour>
			<point x="344.40321" y="163.8926" type="line"/>
			<point x="324.20334" y="172.82646"/>
			<point x="301.80918" y="176.71016"/>
			<point x="279.77728" y="175.2306" type="curve" smooth="yes"/>
			<point x="271.95" y="174.70496"/>
			<point x="265.777" y="179.89669"/>
			<point x="265.90361" y="187.74423" type="curve" smooth="yes"/>
			<point x="267.77816" y="303.93802" type="line" smooth="yes"/>
			<point x="267.90477" y="311.78556"/>
			<point x="274.30151" y="317.15284"/>
			<point x="281.9312" y="315.31932" type="curve" smooth="yes"/>
			<point x="315.75514" y="307.19096"/>
			<point x="347.45698" y="290.3079"/>
			<point x="373.07871" y="266.778" type="curve" smooth="yes"/>
			<point x="378.85822" y="261.47035"/>
			<point x="387.58749" y="252.18967"/>
			<point x="392.61679" y="246.16582" type="curve" smooth="yes"/>
			<point x="405.50609" y="230.72766"/>
			<point x="416.6691" y="213.84128"/>
			<point x="428.43544" y="197.48977" type="curve" smooth="yes"/>
			<point x="442.97184" y="177.28875"/>
			<point x="458.80326" y="157.52308"/>
			<point x="479.11401" y="143.14039" type="curve" smooth="yes"/>
			<point x="513.04148" y="119.11526"/>
			<point x="558.59964" y="112.41266"/>
			<point x="598.00899" y="125.64834" type="curve"/>
			<point x="611.39724" y="17.67607" type="line" smooth="yes"/>
			<point x="612.28537" y="10.51364"/>
			<point x="607.20668" y="3.84821"/>
			<point x="600.00358" y="3.42764" type="curve" smooth="yes"/>
			<point x="575.43016" y="1.99286"/>
			<point x="550.54474" y="6.04774"/>
			<point x="527.67063" y="15.14147" type="curve" smooth="yes"/>
			<point x="515.57078" y="19.95182"/>
			<point x="497.19292" y="30.59469"/>
			<point x="486.7977" y="38.44025" type="curve" smooth="yes"/>
			<point x="467.56301" y="52.95719"/>
			<point x="450.69414" y="70.72661"/>
			<point x="434.30916" y="88.52776" type="curve" smooth="yes"/>
			<point x="407.62376" y="117.5196"/>
			<point x="380.43958" y="147.95469"/>
			<point x="344.40321" y="163.8926" type="curve"/>
		</contour>
		<contour>
			<point x="342.97447" y="734.829172" type="line"/>
			<point x="279.50584" y="708.014072"/>
			<point x="224.74885" y="661.0056"/>
			<point x="188.63347" y="602.32855" type="curve" smooth="yes"/>
			<point x="152.51809" y="543.6515"/>
			<point x="135.2182" y="473.58839"/>
			<point x="139.87108" y="404.8449" type="curve" smooth="yes"/>
			<point x="144.79201" y="332.1411"/>
			<point x="174.32366" y="261.32257"/>
			<point x="222.5141" y="206.66235" type="curve" smooth="yes"/>
			<point x="270.70454" y="152.00212"/>
			<point x="337.26411" y="113.82877"/>
			<point x="408.77815" y="99.83587" type="curve"/>
			<point x="290.05189" y="45.24322" type="line"/>
			<point x="355.44078" y="76.09218"/>
			<point x="410.44466" y="128.48732"/>
			<point x="444.43197" y="192.30133" type="curve" smooth="yes"/>
			<point x="478.41928" y="256.11534"/>
			<point x="491.20294" y="330.99695"/>
			<point x="480.31203" y="402.47249" type="curve" smooth="yes"/>
			<point x="469.82318" y="471.30938"/>
			<point x="437.47668" y="536.64876"/>
			<point x="389.09606" y="586.72719" type="curve" smooth="yes"/>
			<point x="340.71544" y="636.80563"/>
			<point x="276.53014" y="671.38563"/>
			<point x="208.0958" y="684.24157" type="curve"/>
		</contour>
		<contour>
			<point x="597.72705" y="400.67336" type="curve" smooth="yes"/>
			<point x="598.08627" y="313.58273"/>
			<point x="570.94202" y="226.58009"/>
			<point x="521.12367" y="155.14454" type="curve" smooth="yes"/>
			<point x="471.30531" y="83.70898"/>
			<point x="399.04331" y="28.17096"/>
			<point x="317.19416" y="-1.58848" type="curve"/>
			<point x="232.73497" y="23.84382"/>
			<point x="156.78669" y="76.74323"/>
			<point x="103.65162" y="147.14792" type="curve" smooth="yes"/>
			<point x="50.516549" y="217.55261"/>
			<point x="20.471596" y="305.09569"/>
			<point x="19.174718" y="393.29135" type="curve" smooth="yes"/>
			<point x="17.851771" y="483.25984"/>
			<point x="46.487524" y="573.41514"/>
			<point x="99.483257" y="646.13055" type="curve" smooth="yes"/>
			<point x="152.47899" y="718.845962"/>
			<point x="229.53587" y="773.711454"/>
			<point x="315.58813" y="800" type="curve"/>
			<point x="397.27229" y="770.670602"/>
			<point x="469.5419" y="715.707048"/>
			<point x="519.62323" y="644.82421" type="curve" smooth="yes"/>
			<point x="569.70455" y="573.94137"/>
			<point x="597.36907" y="487.46269"/>
		</contour>
	</outline>
</glyph>
<glyph name="R" format="2">
	<unicode hex="0052"/>
	<advance height="1024" width="517"/>
	<outline>
		<contour>
			<point x="125.73347" y="403.07151" type="line"/>
			<point x="155.21314" y="392.12056"/>
			<point x="187.29584" y="388.25034"/>
			<point x="218.53401" y="391.87673" type="curve" smooth="yes"/>
			<point x="273.83627" y="398.29669"/>
			<point x="325.59918" y="428.70529"/>
			<point x="359.58651" y="472.80084" type="curve" smooth="yes"/>
			<point x="378.31128" y="497.09457"/>
			<point x="392.04659" y="526.15654"/>
			<point x="393.55764" y="556.7918" type="curve" smooth="yes"/>
			<point x="394.55295" y="576.97085"/>
			<point x="390.1772" y="597.31845"/>
			<point x="381.51585" y="615.57128" type="curve" smooth="yes"/>
			<point x="372.8545" y="633.8241"/>
			<point x="359.96468" y="649.98312"/>
			<point x="344.47732" y="662.95717" type="curve" smooth="yes"/>
			<point x="313.50258" y="688.90528"/>
			<point x="272.71465" y="701.605362"/>
			<point x="232.31749" y="702.50446" type="curve" smooth="yes"/>
			<point x="188.33377" y="703.483383"/>
			<point x="144.06566" y="690.84181"/>
			<point x="107.52241" y="666.34452" type="curve" smooth="yes"/>
			<point x="83.932196" y="650.53048"/>
			<point x="63.608425" y="629.87913"/>
			<point x="48.112071" y="606.08265" type="curve" smooth="yes"/>
			<point x="43.881911" y="599.58673"/>
			<point x="38.095673" y="599.71914"/>
			<point x="34.695892" y="606.6873" type="curve" smooth="yes"/>
			<point x="-4.6757292" y="687.38303" type="line" smooth="yes"/>
			<point x="-8.0755095" y="694.35119"/>
			<point x="-6.4224492" y="704.484427"/>
			<point x="-0.72425639" y="709.741306" type="curve" smooth="yes"/>
			<point x="54.918039" y="761.074214"/>
			<point x="128.48767" y="792.7272911"/>
			<point x="204.07228" y="797.482539" type="curve" smooth="yes"/>
			<point x="273.66043" y="801.8605321"/>
			<point x="345.87301" y="782.895425"/>
			<point x="399.61845" y="738.475768" type="curve" smooth="yes"/>
			<point x="426.49116" y="716.265939"/>
			<point x="448.46036" y="687.97333"/>
			<point x="462.3691" y="656.00512" type="curve" smooth="yes"/>
			<point x="476.27784" y="624.03692"/>
			<point x="482.00515" y="588.40714"/>
			<point x="477.78502" y="553.80064" type="curve" smooth="yes"/>
			<point x="471.20631" y="499.85294"/>
			<point x="441.16084" y="451.14911"/>
			<point x="404.11943" y="411.38018" type="curve" smooth="yes"/>
			<point x="365.62009" y="370.04596"/>
			<point x="319.13212" y="336.57773"/>
			<point x="269.23859" y="310.09466" type="curve" smooth="yes"/>
			<point x="225.9243" y="287.1038"/>
			<point x="179.89551" y="269.23232"/>
			<point x="132.41541" y="256.97069" type="curve"/>
		</contour>
		<contour>
			<point x="163.98778" y="129.30883" type="curve" smooth="yes"/>
			<point x="172.18011" y="88.78348"/>
			<point x="185.72715" y="49.34519"/>
			<point x="204.1476" y="12.33093" type="curve" smooth="yes"/>
			<point x="207.60184" y="5.38993"/>
			<point x="204.30355" y="-0.14216"/>
			<point x="196.55025" y="-0.14216" type="curve" smooth="yes"/>
			<point x="82.315326" y="-0.14216" type="line" smooth="yes"/>
			<point x="74.56202" y="-0.14216"/>
			<point x="67.704353" y="6.11725"/>
			<point x="67.093375" y="13.84641" type="curve" smooth="yes"/>
			<point x="64.233292" y="50.02778"/>
			<point x="62.918795" y="86.33132"/>
			<point x="63.155402" y="122.6248" type="curve" smooth="yes"/>
			<point x="63.962407" y="246.41248"/>
			<point x="82.788538" y="369.67788"/>
			<point x="81.076649" y="493.45635" type="curve" smooth="yes"/>
			<point x="80.464992" y="537.68234"/>
			<point x="77.22641" y="581.87179"/>
			<point x="71.385581" y="625.71463" type="curve" smooth="yes"/>
			<point x="70.361723" y="633.39999"/>
			<point x="75.27908" y="637.28142"/>
			<point x="82.476578" y="634.39875" type="curve" smooth="yes"/>
			<point x="188.81746" y="591.80817" type="line" smooth="yes"/>
			<point x="196.01495" y="588.9255"/>
			<point x="200.60755" y="580.42729"/>
			<point x="199.09834" y="572.82229" type="curve" smooth="yes"/>
			<point x="190.88635" y="531.44139"/>
			<point x="183.18053" y="489.96003"/>
			<point x="175.98323" y="448.39063" type="curve" smooth="yes"/>
			<point x="157.71583" y="342.8838"/>
			<point x="142.77108" y="234.26235"/>
		</contour>
		<contour>
			<point x="322.42286" y="112.92029" type="curve" smooth="yes"/>
			<point x="305.47869" y="151.39723"/>
			<point x="291.80405" y="191.501"/>
			<point x="270.58484" y="227.79597" type="curve" smooth="yes"/>
			<point x="249.31895" y="264.17078"/>
			<point x="220.63048" y="296.18476"/>
			<point x="186.79644" y="321.29695" type="curve"/>
			<point x="281.35904" y="384.03073" type="line"/>
			<point x="302.06601" y="353.65714"/>
			<point x="321.83035" y="322.64094"/>
			<point x="340.61404" y="291.04179" type="curve" smooth="yes"/>
			<point x="376.34858" y="230.92681"/>
			<point x="408.52253" y="168.72437"/>
			<point x="445.22586" y="109.19595" type="curve" smooth="yes"/>
			<point x="463.08334" y="80.23326"/>
			<point x="482.00148" y="51.92458"/>
			<point x="501.92885" y="24.34512" type="curve" smooth="yes"/>
			<point x="511.72115" y="10.79258"/>
			<point x="506.37017" y="0"/>
			<point x="489.64978" y="0" type="curve" smooth="yes"/>
			<point x="414.9501" y="0" type="line" smooth="yes"/>
			<point x="398.22971" y="0"/>
			<point x="377.04343" y="11.21056"/>
			<point x="368.28939" y="25.45477" type="curve" smooth="yes"/>
			<point x="351.03902" y="53.52385"/>
			<point x="335.70097" y="82.76827"/>
		</contour>
	</outline>
	<anchor name="top" x="273.84598" y="796.9044445"/>
</glyph>
<glyph name="S" format="2">
  <advance height="1024" width="541"/>
  <unicode hex="0053"/>
  <anchor x="273.95251" y="798.6681671" name="top"/>
  <anchor x="402.89581" y="31.944399999999973" name="bottom"/>
  <outline>
    <contour>
      <point x="122.17851" y="390.2555" type="line"/>
      <point x="160.74043" y="405.6039"/>
      <point x="202.37720000000002" y="413.78917"/>
      <point x="243.84195" y="411.98078999999996" type="curve" smooth="yes"/>
      <point x="285.30669" y="410.17241999999993"/>
      <point x="326.5613" y="398.17079999999993"/>
      <point x="361.39491" y="375.60500999999994" type="curve" smooth="yes"/>
      <point x="383.84254" y="361.06305999999995"/>
      <point x="403.57595" y="342.15376999999995"/>
      <point x="418.18691" y="319.7509999999999" type="curve" smooth="yes"/>
      <point x="432.79788" y="297.34822999999994"/>
      <point x="442.19837" y="271.4232599999999"/>
      <point x="444.30001" y="244.75966999999991" type="curve" smooth="yes"/>
      <point x="447.23526" y="207.52013999999986"/>
      <point x="435.41342" y="169.19344999999987"/>
      <point x="411.46659999999997" y="140.52379999999994" type="curve" smooth="yes"/>
      <point x="387.51977999999997" y="111.85415999999998"/>
      <point x="351.61717999999996" y="93.3245599999999"/>
      <point x="314.32782999999995" y="91.11029999999994" type="curve" smooth="yes"/>
      <point x="280.73877999999996" y="89.11576999999988"/>
      <point x="247.20735999999994" y="99.98506999999995"/>
      <point x="218.55832999999996" y="117.63260999999989" type="curve" smooth="yes"/>
      <point x="189.9093" y="135.28015000000005"/>
      <point x="165.77109" y="159.43469000000005"/>
      <point x="144.33134" y="185.36805000000004" type="curve" smooth="yes"/>
      <point x="121.94597" y="212.44523000000004"/>
      <point x="102.20498" y="241.70655"/>
      <point x="85.466253" y="272.59466999999995" type="curve" smooth="yes"/>
      <point x="78.946436" y="284.62575000000004"/>
      <point x="69.789517" y="284.44736"/>
      <point x="64.395079" y="271.8701" type="curve" smooth="yes"/>
      <point x="15.378798" y="157.58745999999996" type="line" smooth="yes"/>
      <point x="11.755925" y="149.14064999999994"/>
      <point x="14.466068" y="137.43173000000002"/>
      <point x="21.540043" y="131.56394" type="curve" smooth="yes"/>
      <point x="41.761051" y="114.79084"/>
      <point x="62.63315300000001" y="98.80267000000003"/>
      <point x="84.09392" y="83.64806999999996" type="curve" smooth="yes"/>
      <point x="117.42536999999999" y="60.110939999999914"/>
      <point x="152.39371" y="38.47515999999996"/>
      <point x="190.26773" y="23.291600000000017" type="curve" smooth="yes"/>
      <point x="228.14175" y="8.108050000000048"/>
      <point x="269.16519" y="-0.4745100000000093"/>
      <point x="309.84441" y="2.716540000000009" type="curve" smooth="yes"/>
      <point x="368.47774" y="7.315990000000056"/>
      <point x="424.17900999999995" y="36.923940000000016"/>
      <point x="463.18551" y="80.94115999999997" type="curve" smooth="yes"/>
      <point x="502.192" y="124.95836999999995"/>
      <point x="524.70034" y="182.63171"/>
      <point x="529.01745" y="241.28649999999993" type="curve" smooth="yes"/>
      <point x="532.3862200000001" y="287.05656999999997"/>
      <point x="524.8813600000001" y="333.8376799999999"/>
      <point x="505.4940500000001" y="375.4355099999999" type="curve" smooth="yes"/>
      <point x="486.1067300000001" y="417.0333399999999"/>
      <point x="454.6548900000001" y="453.2383099999999"/>
      <point x="415.1163000000001" y="476.5395499999999" type="curve" smooth="yes"/>
      <point x="368.28850000000006" y="504.1365299999999"/>
      <point x="312.23795000000007" y="512.7944499999999"/>
      <point x="257.9313300000001" y="510.50830999999994" type="curve" smooth="yes"/>
      <point x="214.5214800000001" y="508.6808899999999"/>
      <point x="171.39847000000012" y="500.18763999999993"/>
      <point x="130.53772000000012" y="485.4176299999999" type="curve"/>
      <point x="151.62942000000012" y="539.9447599999999"/>
      <point x="190.10186000000013" y="587.597"/>
      <point x="238.95825000000013" y="619.7080599999999" type="curve" smooth="yes"/>
      <point x="275.39681000000013" y="643.6574499999999"/>
      <point x="317.57661000000013" y="659.0404699999999"/>
      <point x="360.99219000000016" y="663.0937499999999" type="curve" smooth="yes"/>
      <point x="399.84999000000016" y="666.7215199999998"/>
      <point x="439.5118600000002" y="661.1770299999998"/>
      <point x="475.95007000000015" y="647.2237899999999" type="curve" smooth="yes"/>
      <point x="489.15711000000016" y="642.1664299999999"/>
      <point x="497.27822000000015" y="648.1407299999998"/>
      <point x="494.70131000000015" y="662.0524599999999" type="curve" smooth="yes"/>
      <point x="473.08862" y="778.731048" type="line" smooth="yes"/>
      <point x="470.91279" y="790.4775657"/>
      <point x="459.47785" y="799.40695033"/>
      <point x="447.60002" y="798.1371023" type="curve" smooth="yes"/>
      <point x="413.34057" y="794.4744559"/>
      <point x="379.43539" y="787.497361"/>
      <point x="346.51703" y="777.322787" type="curve" smooth="yes"/>
      <point x="271.2666" y="754.064005"/>
      <point x="201.52938" y="714.104106"/>
      <point x="141.50878" y="663.10288" type="curve" smooth="yes"/>
      <point x="91.326147" y="620.46126"/>
      <point x="47.757193" y="570.05562"/>
      <point x="12.793445" y="514.2528500000001" type="curve" smooth="yes"/>
      <point x="7.695992" y="506.11723"/>
      <point x="6.6714971" y="492.17798000000005"/>
      <point x="10.257159" y="483.27174" type="curve" smooth="yes"/>
      <point x="52.969764000000005" y="377.18008000000003" type="line" smooth="yes"/>
      <point x="57.211832" y="366.64343"/>
      <point x="68.30369900000001" y="363.24055000000004"/>
      <point x="78.13967000000001" y="368.91771000000006" type="curve" smooth="yes"/>
      <point x="92.279577" y="377.07903000000005"/>
      <point x="107.00966000000001" y="384.2180000000001"/>
      <point x="122.17851000000002" y="390.25550000000004" type="curve"/>
    </contour>
  </outline>
</glyph>
<glyph name="U" format="2">
	<unicode hex="0055"/>
	<advance height="1024" width="496"/>
	<outline>
		<contour>
			<point x="25.979461" y="784" type="curve" smooth="yes"/>
			<point x="127.40039" y="784" type="line" smooth="yes"/>
			<point x="137.46152" y="784"/>
			<point x="143.35074" y="776.164316"/>
			<point x="140.75706" y="766.443398" type="curve" smooth="yes"/>
			<point x="125.92847" y="710.866777"/>
			<point x="116.01954" y="653.9779"/>
			<point x="111.19253" y="596.65978" type="curve" smooth="yes"/>
			<point x="101.72072" y="484.18716"/>
			<point x="111.89767" y="370.36969"/>
			<point x="137.69197" y="260.48585" type="curve" smooth="yes"/>
			<point x="145.50885" y="227.18592"/>
			<point x="155.1063" y="193.45385"/>
			<point x="174.94483" y="165.5895" type="curve" smooth="yes"/>
			<point x="184.86409" y="151.65733"/>
			<point x="197.31503" y="139.37919"/>
			<point x="212.06202" y="130.71758" type="curve" smooth="yes"/>
			<point x="226.80901" y="122.05598"/>
			<point x="243.91381" y="117.11978"/>
			<point x="261.00181" y="117.82509" type="curve" smooth="yes"/>
			<point x="276.9281" y="118.48245"/>
			<point x="292.4848" y="124.01687"/>
			<point x="305.84516" y="132.71053" type="curve" smooth="yes"/>
			<point x="319.20551" y="141.40418"/>
			<point x="330.42058" y="153.17878"/>
			<point x="339.35361" y="166.38028" type="curve" smooth="yes"/>
			<point x="357.21967" y="192.78329"/>
			<point x="365.85104" y="224.27013"/>
			<point x="372.39058" y="255.47188" type="curve" smooth="yes"/>
			<point x="401.00812" y="392.0132"/>
			<point x="394.68465" y="534.6638"/>
			<point x="363.5582" y="670.65512" type="curve" smooth="yes"/>
			<point x="356.00781" y="703.642728"/>
			<point x="347.01809" y="736.300842"/>
			<point x="336.62404" y="768.505715" type="curve" smooth="yes"/>
			<point x="333.85587" y="777.082589"/>
			<point x="338.80923" y="784"/>
			<point x="347.82183" y="784" type="curve" smooth="yes"/>
			<point x="452.52256" y="784" type="line" smooth="yes"/>
			<point x="462.13046" y="784"/>
			<point x="470.65508" y="776.246013"/>
			<point x="471.49746" y="766.67513" type="curve" smooth="yes"/>
			<point x="478.013" y="692.64734"/>
			<point x="481.627" y="618.3642"/>
			<point x="482.32767" y="544.05353" type="curve" smooth="yes"/>
			<point x="483.51913" y="417.69122"/>
			<point x="475.91804" y="289.32407"/>
			<point x="434.79627" y="169.8341" type="curve" smooth="yes"/>
			<point x="421.91996" y="132.41863"/>
			<point x="405.53891" y="95.6407"/>
			<point x="380.63301" y="64.89314" type="curve" smooth="yes"/>
			<point x="355.7271" y="34.14558"/>
			<point x="321.49267" y="9.69241"/>
			<point x="282.60148" y="2.39914" type="curve" smooth="yes"/>
			<point x="240.67174" y="-5.46395"/>
			<point x="196.47853" y="7.40504"/>
			<point x="161.48305" y="31.80273" type="curve" smooth="yes"/>
			<point x="126.48756" y="56.20043"/>
			<point x="100.02447" y="91.29844"/>
			<point x="80.261419" y="129.10523" type="curve" smooth="yes"/>
			<point x="21.233237" y="242.02633"/>
			<point x="20.058243" y="375.08674"/>
			<point x="17.685738" y="502.48326" type="curve" smooth="yes"/>
			<point x="16.047033" y="590.47689"/>
			<point x="13.202197" y="678.44805"/>
			<point x="9.1523289" y="766.363703" type="curve" smooth="yes"/>
			<point x="8.7036211" y="776.104376"/>
			<point x="16.228457" y="784"/>
		</contour>
	</outline>
	<anchor name="top" x="240.12778" y="794.1843033"/>
</glyph>
<glyph name="V" format="2">
	<unicode hex="0056"/>
	<advance height="1024" width="537"/>
	<outline>
		<contour>
			<point x="243.4307" y="114.83303" type="line"/>
			<point x="301.96989" y="188.91368"/>
			<point x="345.47844" y="274.82077"/>
			<point x="370.55926" y="365.84676" type="curve" smooth="yes"/>
			<point x="405.94121" y="494.25874"/>
			<point x="404.00122" y="632.68433"/>
			<point x="365.34722" y="760.126201" type="curve" smooth="yes"/>
			<point x="361.77091" y="771.917251"/>
			<point x="368.44184" y="782.596586"/>
			<point x="380.6704" y="784.111271" type="curve" smooth="yes"/>
			<point x="486.80374" y="797.2574212" type="line" smooth="yes"/>
			<point x="499.0323" y="798.7721056"/>
			<point x="509.37409" y="790.0196837"/>
			<point x="509.71744" y="777.702549" type="curve" smooth="yes"/>
			<point x="513.78559" y="631.76613"/>
			<point x="498.56418" y="485.29996"/>
			<point x="464.54148" y="343.32546" type="curve" smooth="yes"/>
			<point x="437.26691" y="229.51047"/>
			<point x="397.9441" y="118.58667"/>
			<point x="347.44222" y="13.00583" type="curve"/>
		</contour>
		<contour>
			<point x="141.51743" y="779.241485" type="curve" smooth="yes"/>
			<point x="181.58007" y="676.59542"/>
			<point x="216.88676" y="572.0932"/>
			<point x="247.28487" y="466.18198" type="curve" smooth="yes"/>
			<point x="275.3255" y="368.48454"/>
			<point x="299.18837" y="269.59709"/>
			<point x="319.2029" y="169.94527" type="curve" smooth="yes"/>
			<point x="329.67015" y="117.82913"/>
			<point x="339.08581" y="65.50179"/>
			<point x="347.44222" y="13.00583" type="curve"/>
			<point x="208.97293" y="-9.17997" type="line" smooth="yes"/>
			<point x="196.8061" y="-11.12937"/>
			<point x="188.85762" y="-2.90393"/>
			<point x="190.87524" y="9.25144" type="curve" smooth="yes"/>
			<point x="213.47538" y="145.40854"/>
			<point x="204.04341" y="286.81111"/>
			<point x="163.38433" y="418.71718" type="curve" smooth="yes"/>
			<point x="130.31111" y="526.01322"/>
			<point x="76.738461" y="626.9427"/>
			<point x="6.4845764" y="714.519371" type="curve" smooth="yes"/>
			<point x="-1.2255983" y="724.130675"/>
			<point x="1.2968223" y="736.096004"/>
			<point x="12.388204" y="741.463801" type="curve" smooth="yes"/>
			<point x="113.25778" y="790.280744" type="line" smooth="yes"/>
			<point x="124.34916" y="795.6485409"/>
			<point x="137.03731" y="790.7201638"/>
		</contour>
	</outline>
	<anchor name="top" x="259.1048" y="794.9140453"/>
</glyph>
<glyph name="X" format="2">
	<unicode hex="0058"/>
	<advance height="1024" width="557"/>
	<outline>
		<contour>
			<point x="532.32996" y="40.93495" type="curve" smooth="yes"/>
			<point x="408.73987" y="5.95456" type="line" smooth="yes"/>
			<point x="397.12078" y="2.66595"/>
			<point x="383.99667" y="9.06102"/>
			<point x="379.36025" y="20.21098" type="curve" smooth="yes"/>
			<point x="333.95773" y="129.39765"/>
			<point x="283.85569" y="236.63007"/>
			<point x="229.23834" y="341.51127" type="curve" smooth="yes"/>
			<point x="162.86606" y="468.96534"/>
			<point x="89.82389" y="592.94566"/>
			<point x="10.51223" y="712.776682" type="curve" smooth="yes"/>
			<point x="3.847472" y="722.846383"/>
			<point x="7.2262957" y="735.203284"/>
			<point x="18.118677" y="740.416176" type="curve" smooth="yes"/>
			<point x="122.89718" y="790.5612241" type="line" smooth="yes"/>
			<point x="133.78956" y="795.7741161"/>
			<point x="144.79425" y="790.4548808"/>
			<point x="147.65841" y="778.724047" type="curve" smooth="yes"/>
			<point x="180.55268" y="643.99796"/>
			<point x="231.18595" y="513.61054"/>
			<point x="297.86634" y="392.00805" type="curve" smooth="yes"/>
			<point x="363.39382" y="272.50808"/>
			<point x="444.40367" y="161.51113"/>
			<point x="538.20938" y="62.64599" type="curve" smooth="yes"/>
			<point x="546.52091" y="53.88618"/>
			<point x="543.94905" y="44.22356"/>
		</contour>
		<contour>
			<point x="263.81853" y="408.03699" type="curve" smooth="yes"/>
			<point x="326.80228" y="526.11188"/>
			<point x="374.77504" y="652.18536"/>
			<point x="406.21667" y="782.262484" type="curve" smooth="yes"/>
			<point x="408.5813" y="792.0451579"/>
			<point x="417.75535" y="796.4778977"/>
			<point x="426.83371" y="792.1331644" type="curve" smooth="yes"/>
			<point x="554.61919" y="730.9774" type="line"/>
			<point x="473.99733" y="610.56041"/>
			<point x="399.73066" y="485.88888"/>
			<point x="332.22983" y="357.65563" type="curve" smooth="yes"/>
			<point x="327.54182" y="348.74969"/>
			<point x="320.00497" y="334.27674"/>
			<point x="315.39593" y="325.32968" type="curve" smooth="yes"/>
			<point x="263.46891" y="224.52897"/>
			<point x="215.70233" y="121.58511"/>
			<point x="172.2586" y="16.8481" type="curve" smooth="yes"/>
			<point x="168.40254" y="7.55166"/>
			<point x="157.46336" y="2.22196"/>
			<point x="147.77932" y="4.96289" type="curve" smooth="yes"/>
			<point x="-0.352711" y="46.88951" type="line"/>
			<point x="95.661468" y="145.31558"/>
			<point x="178.79708" y="256.28805"/>
			<point x="246.2952" y="376.0803" type="curve" smooth="yes"/>
			<point x="251.23577" y="384.84859"/>
			<point x="259.08173" y="399.15696"/>
		</contour>
	</outline>
</glyph>
<glyph name="Z" format="2">
	<unicode hex="005A"/>
	<advance height="1024" width="614"/>
	<outline>
		<contour>
			<point x="470.79688" y="727.389216" type="line"/>
			<point x="434.93001" y="683.49565"/>
			<point x="387.04098" y="649.5262"/>
			<point x="333.75933" y="630.18342" type="curve" smooth="yes"/>
			<point x="248.40844" y="599.19858"/>
			<point x="149.777" y="607.68857"/>
			<point x="70.591472" y="651.91344" type="curve" smooth="yes"/>
			<point x="60.974156" y="657.28469"/>
			<point x="53.547992" y="671.1416"/>
			<point x="53.595687" y="682.1591" type="curve" smooth="yes"/>
			<point x="54.023273" y="780.930545" type="line" smooth="yes"/>
			<point x="54.070968" y="791.9480453"/>
			<point x="61.470373" y="795.8096877"/>
			<point x="70.864701" y="790.0554872" type="curve" smooth="yes"/>
			<point x="123.42636" y="757.860493"/>
			<point x="183.11416" y="737.326742"/>
			<point x="244.38041" y="730.506099" type="curve" smooth="yes"/>
			<point x="292.43006" y="725.156832"/>
			<point x="342.67377" y="728.493172"/>
			<point x="386.28821" y="749.353757" type="curve" smooth="yes"/>
			<point x="411.15359" y="761.246753"/>
			<point x="433.35424" y="778.671998"/>
			<point x="450.8141" y="800" type="curve"/>
		</contour>
		<contour>
			<point x="130.4798" y="96.6731" type="line"/>
			<point x="212.93484" y="144.28975"/>
			<point x="307.16871" y="171.33102"/>
			<point x="402.32621" y="174.68191" type="curve" smooth="yes"/>
			<point x="461.04487" y="176.74964"/>
			<point x="520.06698" y="169.88484"/>
			<point x="576.75401" y="154.43938" type="curve" smooth="yes"/>
			<point x="587.38357" y="151.54316"/>
			<point x="593.30547" y="140.32184"/>
			<point x="590.09542" y="129.78224" type="curve" smooth="yes"/>
			<point x="556.37988" y="19.08363" type="line" smooth="yes"/>
			<point x="553.16983" y="8.54403"/>
			<point x="542.7394" y="4.30769"/>
			<point x="532.87907" y="9.22176" type="curve" smooth="yes"/>
			<point x="495.14219" y="28.02861"/>
			<point x="455.23389" y="42.47782"/>
			<point x="414.19883" y="52.16974" type="curve" smooth="yes"/>
			<point x="349.30248" y="67.49738"/>
			<point x="278.80526" y="70.3624"/>
			<point x="217.93718" y="43.131" type="curve" smooth="yes"/>
			<point x="194.60207" y="32.69125"/>
			<point x="173.17597" y="18.00197"/>
			<point x="155.02536" y="0" type="curve"/>
		</contour>
		<contour>
			<point x="19.159266" y="14.99329" type="curve" smooth="yes"/>
			<point x="125.23435" y="137.01012"/>
			<point x="217.2955" y="271.20268"/>
			<point x="292.93554" y="414.09703" type="curve" smooth="yes"/>
			<point x="358.06265" y="537.13102"/>
			<point x="411.02949" y="666.59802"/>
			<point x="450.8141" y="800" type="curve"/>
			<point x="595.90773" y="800" type="line" smooth="yes"/>
			<point x="603.4144" y="800"/>
			<point x="606.82777" y="794.5326304"/>
			<point x="603.51795" y="787.795033" type="curve" smooth="yes"/>
			<point x="534.58579" y="647.47379"/>
			<point x="461.23214" y="509.32461"/>
			<point x="383.60226" y="373.62164" type="curve" smooth="yes"/>
			<point x="311.09611" y="246.87534"/>
			<point x="234.85984" y="122.26292"/>
			<point x="155.02536" y="0" type="curve"/>
			<point x="25.949136" y="0" type="line" smooth="yes"/>
			<point x="14.931532" y="0"/>
			<point x="11.930804" y="6.67848"/>
		</contour>
	</outline>
	<anchor name="top" x="309.73236" y="804.3088989"/>
</glyph>
<glyph name="bracketleft" format="2">
  <advance height="1024" width="302"/>
  <unicode hex="005B"/>
  <outline>
    <contour>
      <point x="38.848535" y="700.0" type="curve" smooth="yes"/>
      <point x="274.91436" y="700.0" type="line" smooth="yes"/>
      <point x="280.55491254912226" y="699.9999999204717"/>
      <point x="285.96238228205164" y="697.7496754116775"/>
      <point x="289.9376503279228" y="693.7480411176814" type="curve" smooth="yes"/>
      <point x="293.91291837379396" y="689.7464068236854"/>
      <point x="296.1274472224761" y="684.3241793030273"/>
      <point x="296.09015999999997" y="678.68375" type="curve" smooth="yes"/>
      <point x="295.72884999999997" y="624.0291500000001" type="line" smooth="yes"/>
      <point x="295.65104999999994" y="612.25651"/>
      <point x="286.84078999999997" y="606.55376"/>
      <point x="275.78279999999995" y="610.5891" type="curve" smooth="yes"/>
      <point x="247.59656999999996" y="620.8749600000001"/>
      <point x="218.17031999999995" y="627.76376"/>
      <point x="188.34413999999995" y="631.0336500000001" type="curve" smooth="yes"/>
      <point x="163.75440999999995" y="633.72946"/>
      <point x="138.89678999999995" y="633.97158"/>
      <point x="114.25852999999995" y="631.7648800000001" type="curve" smooth="yes"/>
      <point x="106.09114999999996" y="631.0333800000001"/>
      <point x="98.06960199999995" y="623.65363"/>
      <point x="96.40775799999994" y="615.62321" type="curve" smooth="yes"/>
      <point x="79.05700299999995" y="531.7802300000001"/>
      <point x="69.95608699999994" y="446.2314"/>
      <point x="69.28856299999994" y="360.61432" type="curve" smooth="yes"/>
      <point x="68.57101699999994" y="268.58133"/>
      <point x="77.60329099999994" y="176.47587999999996"/>
      <point x="96.17419599999994" y="86.33347000000003" type="curve" smooth="yes"/>
      <point x="97.82890699999994" y="78.30158000000006"/>
      <point x="105.81700999999994" y="70.73203999999998"/>
      <point x="113.96261999999993" y="69.78912000000003" type="curve" smooth="yes"/>
      <point x="141.77159999999992" y="66.57001000000002"/>
      <point x="169.96472999999992" y="66.67009000000007"/>
      <point x="197.74849999999992" y="70.10309000000007" type="curve" smooth="yes"/>
      <point x="225.11497999999992" y="73.48453000000006"/>
      <point x="252.07892999999993" y="80.1011400000001"/>
      <point x="277.90969999999993" y="89.75026000000003" type="curve" smooth="yes"/>
      <point x="288.93655999999993" y="93.86935000000005"/>
      <point x="297.85045999999994" y="88.26880000000006"/>
      <point x="298.1096299999999" y="76.49874999999997" type="curve" smooth="yes"/>
      <point x="299.3248699999999" y="21.31155000000001" type="line" smooth="yes"/>
      <point x="299.44837400625727" y="15.702898620639871"/>
      <point x="297.3067619900567" y="10.281063231113421"/>
      <point x="293.383793449132" y="6.2707588334805" type="curve" smooth="yes"/>
      <point x="289.4608249082072" y="2.2604544358475778"/>
      <point x="284.0874510102173" y="6.305958777375054e-08"/>
      <point x="278.47744" y="-1.1368683772161603e-13" type="curve"/>
      <point x="38.848535" y="0.0" type="line" smooth="yes"/>
      <point x="30.647916" y="0.0"/>
      <point x="23.055523" y="6.580559999999991"/>
      <point x="21.944943" y="14.705609999999979" type="curve" smooth="yes"/>
      <point x="6.4417991" y="128.12735999999995"/>
      <point x="-1.1838095" y="242.62532999999996"/>
      <point x="-0.855442" y="357.10129" type="curve" smooth="yes"/>
      <point x="-0.54065425" y="466.84307"/>
      <point x="7.0828461" y="576.56323"/>
      <point x="21.944937" y="685.29439" type="curve" smooth="yes"/>
      <point x="23.055523" y="693.41944"/>
      <point x="30.647916" y="700.0"/>
    </contour>
  </outline>
</glyph>
<glyph name="a" format="2">
  <advance height="1024" width="502"/>
  <unicode hex="0061"/>
  <anchor x="229.3768" y="648.63333" name="top"/>
  <outline>
    <contour>
      <point x="412.40039" y="329.03944" type="line"/>
      <point x="401.89816" y="256.2659100000001"/>
      <point x="379.37605" y="185.24117999999999"/>
      <point x="346.02273" y="119.71378000000004" type="curve" smooth="yes"/>
      <point x="334.02793" y="96.14827000000002"/>
      <point x="320.54454000000004" y="73.14946000000009"/>
      <point x="303.31052" y="53.0946100000001" type="curve" smooth="yes"/>
      <point x="286.07651" y="33.039760000000115"/>
      <point x="264.87883999999997" y="15.945430000000101"/>
      <point x="240.31508" y="6.156150000000139" type="curve" smooth="yes"/>
      <point x="210.596" y="-5.687659999999823"/>
      <point x="176.53469" y="-6.185849999999846"/>
      <point x="146.44135999999997" y="4.671920000000114" type="curve" smooth="yes"/>
      <point x="109.30201" y="18.071910000000003"/>
      <point x="79.641938" y="47.69152999999994"/>
      <point x="59.607329" y="81.71366" type="curve" smooth="yes"/>
      <point x="21.805167" y="145.90808000000004"/>
      <point x="15.93024" y="224.65078000000005"/>
      <point x="26.154207" y="298.44372" type="curve" smooth="yes"/>
      <point x="37.134452" y="377.6952"/>
      <point x="66.466998" y="455.73004"/>
      <point x="118.67941" y="516.3536899999999" type="curve" smooth="yes"/>
      <point x="140.40646" y="541.58089"/>
      <point x="166.07558" y="563.7064799999999"/>
      <point x="195.51844" y="579.24981" type="curve" smooth="yes"/>
      <point x="224.96129" y="594.79314"/>
      <point x="258.29916000000003" y="603.57726"/>
      <point x="291.55754" y="602.0419899999999" type="curve" smooth="yes"/>
      <point x="332.20797000000005" y="600.16549"/>
      <point x="371.50741000000005" y="582.7547199999999"/>
      <point x="402.11759" y="555.9406299999999" type="curve" smooth="yes"/>
      <point x="433.70635" y="528.2693099999999"/>
      <point x="456.31761" y="490.54857999999996"/>
      <point x="466.04323" y="449.71178999999995" type="curve" smooth="yes"/>
      <point x="467.528" y="443.47739999999993"/>
      <point x="463.40537" y="436.91806999999994"/>
      <point x="457.24375" y="435.15216999999996" type="curve" smooth="yes"/>
      <point x="363.49455" y="408.28392999999994" type="line" smooth="yes"/>
      <point x="357.33293" y="406.51802999999995"/>
      <point x="352.44085" y="410.32021999999995"/>
      <point x="351.44982" y="416.6460399999999" type="curve" smooth="yes"/>
      <point x="349.43482" y="429.5078999999999"/>
      <point x="344.04965" y="441.84800999999993"/>
      <point x="335.88154" y="451.99254999999994" type="curve" smooth="yes"/>
      <point x="325.4256" y="464.97849999999994"/>
      <point x="310.62019999999995" y="474.22838999999993"/>
      <point x="294.58389" y="478.78887999999995" type="curve" smooth="yes"/>
      <point x="266.22528" y="486.85364999999996"/>
      <point x="235.00721" y="480.2097299999999"/>
      <point x="209.62063999999998" y="465.21727999999996" type="curve" smooth="yes"/>
      <point x="184.23406999999997" y="450.22482999999994"/>
      <point x="164.15402999999998" y="427.53551999999996"/>
      <point x="147.86640999999997" y="402.95982" type="curve" smooth="yes"/>
      <point x="113.24985999999998" y="350.72837999999996"/>
      <point x="94.14413399999998" y="286.31038"/>
      <point x="104.80661999999998" y="224.56299" type="curve" smooth="yes"/>
      <point x="108.63947999999998" y="202.36656000000005"/>
      <point x="116.35669999999998" y="180.57677999999999"/>
      <point x="129.48366" y="162.27227000000005" type="curve" smooth="yes"/>
      <point x="142.61060999999998" y="143.96775000000002"/>
      <point x="161.42428999999998" y="129.32572000000005"/>
      <point x="183.1582" y="123.40883000000008" type="curve" smooth="yes"/>
      <point x="199.00546" y="119.09454000000005"/>
      <point x="215.99603" y="119.5074800000001"/>
      <point x="231.85772" y="123.7684700000001" type="curve" smooth="yes"/>
      <point x="247.7194" y="128.0294500000001"/>
      <point x="262.46174" y="136.05999000000008"/>
      <point x="275.20789" y="146.4178300000001" type="curve" smooth="yes"/>
      <point x="300.70017" y="167.13350000000014"/>
      <point x="317.81573000000003" y="196.55304000000012"/>
      <point x="329.79661000000004" y="227.1382400000001" type="curve" smooth="yes"/>
      <point x="349.45127" y="277.3133500000001"/>
      <point x="356.52420000000006" y="332.3496000000001"/>
      <point x="350.30509000000006" y="385.8703900000001" type="curve" smooth="yes"/>
      <point x="349.56530000000004" y="392.2369000000001"/>
      <point x="353.7951300000001" y="396.0898300000001"/>
      <point x="360.00655000000006" y="394.5079600000001" type="curve" smooth="yes"/>
      <point x="455.20529000000005" y="370.2635400000001" type="line" smooth="yes"/>
      <point x="461.41671" y="368.6816700000001"/>
      <point x="464.76016000000004" y="362.48480000000006"/>
      <point x="462.88506000000007" y="356.35579000000007" type="curve" smooth="yes"/>
      <point x="448.0046500000001" y="307.7172500000001"/>
      <point x="443.0347100000001" y="256.05938000000003"/>
      <point x="448.43126000000007" y="205.47962000000007" type="curve" smooth="yes"/>
      <point x="454.55904000000004" y="148.04633000000013"/>
      <point x="474.08918000000006" y="92.09188000000006"/>
      <point x="504.97172000000006" y="43.28658000000007" type="curve" smooth="yes"/>
      <point x="507.53728000000007" y="39.232110000000034"/>
      <point x="506.1072700000001" y="34.51529000000005"/>
      <point x="501.6724700000001" y="32.68380000000002" type="curve" smooth="yes"/>
      <point x="406.3469100000001" y="-6.683800000000019" type="line" smooth="yes"/>
      <point x="401.9121100000001" y="-8.51529000000005"/>
      <point x="397.4214700000001" y="-6.214780000000019"/>
      <point x="396.3580900000001" y="-1.536010000000033" type="curve" smooth="yes"/>
      <point x="386.8541300000001" y="40.280309999999986"/>
      <point x="379.79763000000014" y="82.65280999999993"/>
      <point x="375.2378900000001" y="125.29246" type="curve" smooth="yes"/>
      <point x="369.0596700000001" y="183.06708000000003"/>
      <point x="367.4689400000001" y="241.33166000000006"/>
      <point x="370.4856000000001" y="299.35732" type="curve"/>
    </contour>
  </outline>
</glyph>
<glyph name="c" format="2">
	<unicode hex="0063"/>
	<advance height="1024" width="475"/>
	<outline>
		<contour>
			<point x="380.7287" y="587.69051" type="line"/>
			<point x="400.2224" y="574.52117"/>
			<point x="415.77376" y="556.018"/>
			<point x="427.30144" y="535.51072" type="curve" smooth="yes"/>
			<point x="438.82912" y="515.00344"/>
			<point x="446.46961" y="492.49986"/>
			<point x="451.95372" y="469.62279" type="curve" smooth="yes"/>
			<point x="458.92278" y="440.55121"/>
			<point x="462.48975" y="410.66669"/>
			<point x="462.57787" y="380.772" type="curve" smooth="yes"/>
			<point x="462.60767" y="370.66761"/>
			<point x="454.01059" y="362.17006"/>
			<point x="443.91245" y="361.7874" type="curve" smooth="yes"/>
			<point x="358.06701" y="358.53438" type="line" smooth="yes"/>
			<point x="347.96887" y="358.15172"/>
			<point x="343.59594" y="365.17409"/>
			<point x="346.46498" y="374.8504" type="curve" smooth="yes"/>
			<point x="353.85891" y="399.78766"/>
			<point x="352.25059" y="427.41467"/>
			<point x="341.51753" y="451.14431" type="curve" smooth="yes"/>
			<point x="333.21547" y="469.49929"/>
			<point x="319.12757" y="485.87453"/>
			<point x="300.51543" y="493.58283" type="curve" smooth="yes"/>
			<point x="289.47858" y="498.15379"/>
			<point x="277.23148" y="499.52831"/>
			<point x="265.35809" y="498.21359" type="curve" smooth="yes"/>
			<point x="253.4847" y="496.89887"/>
			<point x="241.9785" y="492.95067"/>
			<point x="231.44407" y="487.31759" type="curve" smooth="yes"/>
			<point x="210.37521" y="476.05143"/>
			<point x="193.47015" y="458.37619"/>
			<point x="178.35979" y="439.86942" type="curve" smooth="yes"/>
			<point x="152.43323" y="408.11524"/>
			<point x="130.48568" y="372.6688"/>
			<point x="117.45214" y="333.80183" type="curve" smooth="yes"/>
			<point x="104.41859" y="294.93486"/>
			<point x="100.61352" y="252.45359"/>
			<point x="110.46518" y="212.66089" type="curve" smooth="yes"/>
			<point x="116.06573" y="190.0392"/>
			<point x="126.08698" y="168.39084"/>
			<point x="140.68208" y="150.22245" type="curve" smooth="yes"/>
			<point x="155.27717" y="132.05406"/>
			<point x="174.52401" y="117.45515"/>
			<point x="196.39792" y="109.41531" type="curve" smooth="yes"/>
			<point x="218.7191" y="101.21107"/>
			<point x="243.27182" y="99.98089"/>
			<point x="266.73046" y="103.88433" type="curve" smooth="yes"/>
			<point x="290.18909" y="107.78778"/>
			<point x="312.62105" y="116.67734"/>
			<point x="333.48509" y="128.08945" type="curve" smooth="yes"/>
			<point x="363.60572" y="144.56467"/>
			<point x="390.75998" y="166.43295"/>
			<point x="413.32597" y="192.30389" type="curve" smooth="yes"/>
			<point x="419.96745" y="199.91806"/>
			<point x="426.9703" y="198.53517"/>
			<point x="429.51227" y="188.75471" type="curve" smooth="yes"/>
			<point x="457.59411" y="80.70712" type="line" smooth="yes"/>
			<point x="460.13608" y="70.92666"/>
			<point x="455.21549" y="58.7084"/>
			<point x="446.4504" y="53.67989" type="curve" smooth="yes"/>
			<point x="424.45945" y="41.06377"/>
			<point x="401.76142" y="29.68011"/>
			<point x="378.49761" y="19.60219" type="curve" smooth="yes"/>
			<point x="332.58303" y="-0.28808"/>
			<point x="283.1113" y="-15.24877"/>
			<point x="233.19132" y="-11.81851" type="curve" smooth="yes"/>
			<point x="188.14863" y="-8.7234"/>
			<point x="144.59565" y="9.60102"/>
			<point x="109.52225" y="38.03129" type="curve" smooth="yes"/>
			<point x="74.448852" y="66.46156"/>
			<point x="47.772252" y="104.71324"/>
			<point x="31.20141" y="146.71122" type="curve" smooth="yes"/>
			<point x="5.8252655" y="211.02581"/>
			<point x="4.216025" y="283.72238"/>
			<point x="22.618453" y="350.3682" type="curve" smooth="yes"/>
			<point x="41.020882" y="417.01402"/>
			<point x="78.821536" y="477.60969"/>
			<point x="127.57293" y="526.63638" type="curve" smooth="yes"/>
			<point x="162.83015" y="562.0927"/>
			<point x="205.00833" y="592.3406"/>
			<point x="253.37173" y="605.03721" type="curve" smooth="yes"/>
			<point x="274.73254" y="610.64496"/>
			<point x="297.11292" y="612.72987"/>
			<point x="319.04054" y="610.10112" type="curve" smooth="yes"/>
			<point x="340.96816" y="607.47238"/>
			<point x="362.42871" y="600.05342"/>
			<point x="380.7287" y="587.69051" type="curve"/>
		</contour>
	</outline>
	<anchor name="top" x="296.41199" y="657.25195"/>
	<anchor name="bottom" x="316.36844" y="5.45697"/>
</glyph>
<glyph name="e" format="2">
	<unicode hex="0065"/>
	<advance height="1024" width="457"/>
	<outline>
		<contour>
			<point x="245.85846" y="606.56494" type="line"/>
			<point x="194.57143" y="593.90636"/>
			<point x="148.18485" y="564.43291"/>
			<point x="111.73847" y="526.1934" type="curve" smooth="yes"/>
			<point x="59.747292" y="471.6443"/>
			<point x="27.648869" y="399.58259"/>
			<point x="16.507556" y="325.05368" type="curve" smooth="yes"/>
			<point x="7.131253" y="262.33166"/>
			<point x="12.345412" y="196.82736"/>
			<point x="36.336796" y="138.12148" type="curve" smooth="yes"/>
			<point x="50.327486" y="103.88687"/>
			<point x="70.722935" y="72.04551"/>
			<point x="97.518604" y="46.5555" type="curve" smooth="yes"/>
			<point x="124.31427" y="21.0655"/>
			<point x="157.63587" y="2.08942"/>
			<point x="193.75183" y="-5.87211" type="curve" smooth="yes"/>
			<point x="250.16218" y="-18.3074"/>
			<point x="309.86986" y="-3.2938"/>
			<point x="360.72063" y="24.10991" type="curve" smooth="yes"/>
			<point x="378.97076" y="33.94499"/>
			<point x="396.37084" y="45.35587"/>
			<point x="412.67002" y="58.16712" type="curve" smooth="yes"/>
			<point x="422.09533" y="65.57547"/>
			<point x="428.40334" y="81.76366"/>
			<point x="427.26577" y="93.69972" type="curve" smooth="yes"/>
			<point x="418.29797" y="187.79534" type="line" smooth="yes"/>
			<point x="417.1604" y="199.7314"/>
			<point x="410.34946" y="201.6606"/>
			<point x="402.4594" y="192.63479" type="curve" smooth="yes"/>
			<point x="378.19075" y="164.87277"/>
			<point x="349.59943" y="140.88923"/>
			<point x="318.01015" y="121.86479" type="curve" smooth="yes"/>
			<point x="297.88402" y="109.74396"/>
			<point x="276.34088" y="99.54855"/>
			<point x="253.3918" y="94.51714" type="curve" smooth="yes"/>
			<point x="230.44271" y="89.48572"/>
			<point x="205.93737" y="89.84251"/>
			<point x="184.00696" y="98.27059" type="curve" smooth="yes"/>
			<point x="165.1942" y="105.50053"/>
			<point x="148.835" y="118.46937"/>
			<point x="136.33091" y="134.2757" type="curve" smooth="yes"/>
			<point x="123.82683" y="150.08203"/>
			<point x="115.07301" y="168.65479"/>
			<point x="109.40131" y="187.99449" type="curve" smooth="yes"/>
			<point x="98.604729" y="224.80933"/>
			<point x="98.857242" y="264.15552"/>
			<point x="104.75946" y="302.06412" type="curve" smooth="yes"/>
			<point x="110.8834" y="341.39682"/>
			<point x="123.1176" y="380.03735"/>
			<point x="143.32722" y="414.33219" type="curve" smooth="yes"/>
			<point x="163.53683" y="448.62703"/>
			<point x="191.94249" y="478.47137"/>
			<point x="226.69049" y="497.89149" type="curve" smooth="yes"/>
			<point x="236.78565" y="503.53352"/>
			<point x="247.47205" y="508.31892"/>
			<point x="258.78648" y="510.71233" type="curve" smooth="yes"/>
			<point x="270.10091" y="513.10573"/>
			<point x="282.11545" y="513.01239"/>
			<point x="293.00216" y="509.11056" type="curve" smooth="yes"/>
			<point x="309.00886" y="503.37371"/>
			<point x="321.35715" y="489.76153"/>
			<point x="328.40315" y="474.2864" type="curve" smooth="yes"/>
			<point x="335.20606" y="459.34517"/>
			<point x="337.54223" y="442.54845"/>
			<point x="336.13483" y="426.19183" type="curve" smooth="yes"/>
			<point x="334.72744" y="409.83521"/>
			<point x="329.66267" y="393.90678"/>
			<point x="322.31989" y="379.22334" type="curve" smooth="yes"/>
			<point x="298.9651" y="332.52053"/>
			<point x="253.90127" y="300.0729"/>
			<point x="206.33288" y="278.53578" type="curve" smooth="yes"/>
			<point x="164.15793" y="259.4406"/>
			<point x="118.77053" y="247.4639"/>
			<point x="72.665081" y="243.2639" type="curve"/>
			<point x="113.21944" y="126.72667" type="line"/>
			<point x="169.50981" y="152.22812"/>
			<point x="223.39438" y="183.03686"/>
			<point x="273.92557" y="218.61112" type="curve" smooth="yes"/>
			<point x="334.13918" y="261.00185"/>
			<point x="391.0061" y="311.99968"/>
			<point x="423.13224" y="378.26102" type="curve" smooth="yes"/>
			<point x="441.37082" y="415.87876"/>
			<point x="451.06075" y="458.99189"/>
			<point x="442.35505" y="499.88139" type="curve" smooth="yes"/>
			<point x="433.46813" y="541.62206"/>
			<point x="404.78524" y="578.79567"/>
			<point x="366.44793" y="597.54429" type="curve" smooth="yes"/>
			<point x="329.4906" y="615.61804"/>
			<point x="285.7999" y="616.42322"/>
			<point x="245.85846" y="606.56494" type="curve"/>
		</contour>
	</outline>
	<anchor name="top" x="253.84598" y="656.90445"/>
</glyph>
<glyph name="h" format="2">
  <advance height="1024" width="467"/>
  <unicode hex="0068"/>
  <anchor x="253.36914" y="797.9562397" name="top"/>
  <outline>
    <contour>
      <point x="458.69888" y="11.791659999999979" type="line"/>
      <point x="345.31933" y="1.3864700000000312" type="line" smooth="yes"/>
      <point x="334.46702999999997" y="0.3905200000000377"/>
      <point x="325.14851999999996" y="8.403430000000071"/>
      <point x="324.75995" y="19.29421000000002" type="curve" smooth="yes"/>
      <point x="323.05878" y="66.97447"/>
      <point x="324.96924" y="114.7835"/>
      <point x="330.47520000000003" y="162.17542000000003" type="curve" smooth="yes"/>
      <point x="340.52701" y="248.6953000000001"/>
      <point x="362.4963" y="336.44675000000007"/>
      <point x="344.69598" y="421.71033000000006" type="curve" smooth="yes"/>
      <point x="342.28470000000004" y="433.26036000000005"/>
      <point x="339.09663" y="444.8001300000001"/>
      <point x="333.25948" y="455.05416" type="curve" smooth="yes"/>
      <point x="327.42233" y="465.30819"/>
      <point x="318.68433" y="474.26191"/>
      <point x="307.67212" y="478.49850000000004" type="curve" smooth="yes"/>
      <point x="299.42022000000003" y="481.67315"/>
      <point x="290.27323" y="482.06388000000004"/>
      <point x="281.54345" y="480.66271000000006" type="curve" smooth="yes"/>
      <point x="272.81367" y="479.26155000000006"/>
      <point x="264.44608" y="476.1342900000001"/>
      <point x="256.40847" y="472.45065000000005" type="curve" smooth="yes"/>
      <point x="218.13998000000004" y="454.91219000000007"/>
      <point x="186.47488000000004" y="424.36830000000003"/>
      <point x="164.83793000000003" y="388.25851000000006" type="curve" smooth="yes"/>
      <point x="142.60927000000004" y="351.16122000000007"/>
      <point x="130.69101000000003" y="308.52754000000004"/>
      <point x="125.85488000000004" y="265.5515700000001" type="curve" smooth="yes"/>
      <point x="119.01568000000003" y="204.77547000000004"/>
      <point x="125.90458000000004" y="143.4244000000001"/>
      <point x="129.93269000000004" y="82.39749000000006" type="curve" smooth="yes"/>
      <point x="131.39824000000004" y="60.19413000000009"/>
      <point x="132.48448000000005" y="37.965740000000096"/>
      <point x="133.19084000000004" y="15.725290000000086" type="curve" smooth="yes"/>
      <point x="133.53679000000002" y="4.832920000000058"/>
      <point x="124.93193000000004" y="-3.0728099999998904"/>
      <point x="114.09421000000003" y="-1.9290699999999106" type="curve" smooth="yes"/>
      <point x="20.517183" y="7.946469999999977" type="line" smooth="yes"/>
      <point x="9.6794624" y="9.090209999999956"/>
      <point x="4.5659629" y="18.05817000000002"/>
      <point x="8.6024393" y="28.180039999999963" type="curve" smooth="yes"/>
      <point x="13.434744" y="40.29753000000005"/>
      <point x="17.740423" y="52.62503000000004"/>
      <point x="21.502202" y="65.11638000000005" type="curve" smooth="yes"/>
      <point x="56.621755" y="181.73422000000005"/>
      <point x="43.161713" y="306.59923"/>
      <point x="33.076812" y="427.97221" type="curve" smooth="yes"/>
      <point x="25.733337" y="516.3518"/>
      <point x="20.352823" y="604.94471"/>
      <point x="19.798788" y="693.62713" type="curve" smooth="yes"/>
      <point x="19.618321" y="722.513791"/>
      <point x="19.950046" y="751.403651"/>
      <point x="20.79368" y="780.278555" type="curve" smooth="yes"/>
      <point x="21.111946" y="791.1717817"/>
      <point x="30.221685" y="798.9519812999999"/>
      <point x="41.042638" y="797.6591846" type="curve" smooth="yes"/>
      <point x="135.77953" y="786.340815" type="line" smooth="yes"/>
      <point x="146.60048" y="785.048019"/>
      <point x="151.34093" y="776.133825"/>
      <point x="146.82891999999998" y="766.214716" type="curve" smooth="yes"/>
      <point x="135.70589999999999" y="741.762144"/>
      <point x="126.67019999999998" y="716.360002"/>
      <point x="119.86044999999999" y="690.37379" type="curve" smooth="yes"/>
      <point x="100.39989999999999" y="616.11181"/>
      <point x="99.32995499999998" y="538.39793"/>
      <point x="99.98513399999999" y="461.63123" type="curve" smooth="yes"/>
      <point x="100.53065999999998" y="397.71221"/>
      <point x="102.19004999999999" y="333.8027"/>
      <point x="104.96227999999999" y="269.94149000000004" type="curve"/>
      <point x="66.99020999999999" y="264.87089000000003" type="line"/>
      <point x="73.918759" y="367.51109"/>
      <point x="118.93689999999998" y="467.14433"/>
      <point x="191.38551999999999" y="540.18004" type="curve" smooth="yes"/>
      <point x="210.13376" y="559.0802100000001"/>
      <point x="230.89284999999998" y="576.41354"/>
      <point x="254.84008999999998" y="588.04294" type="curve" smooth="yes"/>
      <point x="278.78731999999997" y="599.6723400000001"/>
      <point x="306.23461999999995" y="605.31071"/>
      <point x="332.37492999999995" y="600.2711300000001" type="curve" smooth="yes"/>
      <point x="353.17096999999995" y="596.26187"/>
      <point x="372.44796999999994" y="585.59952"/>
      <point x="387.83163999999994" y="571.0430200000001" type="curve" smooth="yes"/>
      <point x="403.21530999999993" y="556.48651"/>
      <point x="414.7886199999999" y="538.1448"/>
      <point x="422.5691099999999" y="518.4467500000001" type="curve" smooth="yes"/>
      <point x="438.1300799999999" y="479.05065"/>
      <point x="438.5367899999999" y="435.26939000000004"/>
      <point x="434.0531499999999" y="393.1494" type="curve" smooth="yes"/>
      <point x="428.0086099999999" y="336.36608"/>
      <point x="413.5085999999999" y="280.57158000000004"/>
      <point x="410.4544699999999" y="223.54917999999998" type="curve" smooth="yes"/>
      <point x="407.3255299999999" y="165.13009"/>
      <point x="416.9349799999999" y="104.71028999999999"/>
      <point x="447.0015099999999" y="54.524799999999914" type="curve" smooth="yes"/>
      <point x="452.4721199999999" y="45.393539999999916"/>
      <point x="458.5877299999999" y="36.649049999999875"/>
      <point x="465.2843499999999" y="28.374869999999873" type="curve" smooth="yes"/>
      <point x="472.1381999999999" y="19.90643999999986"/>
      <point x="469.55117999999993" y="12.787609999999859"/>
      <point x="458.6988799999999" y="11.791659999999865" type="curve"/>
    </contour>
  </outline>
</glyph>
<glyph name="i" format="2">
	<unicode hex="0069"/>
	<advance height="1024" width="146"/>
	<outline>
		<contour>
			<point x="22.716031" y="18.24718" type="curve" smooth="yes"/>
			<point x="22.311297" y="43.06339"/>
			<point x="22.371619" y="67.88719"/>
			<point x="22.897052" y="92.70115" type="curve" smooth="yes"/>
			<point x="25.669276" y="223.62147"/>
			<point x="41.360841" y="355.011"/>
			<point x="26.505992" y="485.11538" type="curve" smooth="yes"/>
			<point x="23.618075" y="510.40884"/>
			<point x="19.579585" y="535.57088"/>
			<point x="14.408416" y="560.49793" type="curve" smooth="yes"/>
			<point x="12.148139" y="571.39335"/>
			<point x="18.948826" y="581.82154"/>
			<point x="29.889624" y="583.85224" type="curve" smooth="yes"/>
			<point x="107.07524" y="598.17852" type="line" smooth="yes"/>
			<point x="118.11381" y="600.22737"/>
			<point x="126.78228" y="592.79111"/>
			<point x="126.35226" y="581.57227" type="curve" smooth="yes"/>
			<point x="125.14475" y="550.06964"/>
			<point x="123.44273" y="518.58596"/>
			<point x="121.24697" y="487.13675" type="curve" smooth="yes"/>
			<point x="111.9022" y="353.29413"/>
			<point x="93.816955" y="216.80948"/>
			<point x="125.67312" y="86.47776" type="curve" smooth="yes"/>
			<point x="130.07299" y="68.47675"/>
			<point x="135.41001" y="50.70492"/>
			<point x="141.6532" y="33.25737" type="curve" smooth="yes"/>
			<point x="146.292" y="20.2935"/>
			<point x="139.50123" y="8.76692"/>
			<point x="125.81356" y="7.2627" type="curve" smooth="yes"/>
			<point x="45.33695" y="-1.58134" type="line" smooth="yes"/>
			<point x="33.1132" y="-2.92468"/>
			<point x="22.916564" y="5.95153"/>
		</contour>
		<contour>
			<point x="115.38291" y="753.568988" type="line"/>
			<point x="31.04761" y="759.121673" type="line" smooth="yes"/>
			<point x="27.6654797134" y="759.3443543128"/>
			<point x="24.3500941482" y="758.1068246491"/>
			<point x="21.9410810389" y="755.7224907627" type="curve" smooth="yes"/>
			<point x="19.5320679295" y="753.3381568763"/>
			<point x="18.260465319" y="750.0356899324"/>
			<point x="18.448309" y="746.651446" type="curve" smooth="yes"/>
			<point x="23.070397" y="663.37854" type="line" smooth="yes"/>
			<point x="23.4845639036" y="655.9167935227"/>
			<point x="29.7066712129" y="650.1076312"/>
			<point x="37.179255" y="650.20605" type="curve" smooth="yes"/>
			<point x="112.07147" y="651.19243" type="line" smooth="yes"/>
			<point x="119.5508842249" y="651.2909380381"/>
			<point x="125.6301684602" y="657.254442241"/>
			<point x="125.87246" y="664.73058" type="curve" smooth="yes"/>
			<point x="128.29008" y="739.328575" type="line" smooth="yes"/>
			<point x="128.5315462285" y="746.779241622"/>
			<point x="122.8213830164" y="753.0792347605"/>
			<point x="115.38291" y="753.568988" type="curve"/>
		</contour>
	</outline>
	<anchor name="top" x="71.856949" y="798.3049393"/>
</glyph>
<glyph name="k" format="2">
  <advance height="1024" width="501"/>
  <unicode hex="006B"/>
  <outline>
    <contour>
      <point x="35.427302" y="779.092676" type="curve" smooth="yes"/>
      <point x="120.59924" y="794.9073237" type="line" smooth="yes"/>
      <point x="135.74692" y="797.7199312"/>
      <point x="148.25986" y="787.511185"/>
      <point x="148.20648" y="772.104941" type="curve" smooth="yes"/>
      <point x="148.11258" y="745.021031"/>
      <point x="147.2367" y="717.939829"/>
      <point x="145.5797" y="690.90649" type="curve" smooth="yes"/>
      <point x="140.05319" y="600.7435"/>
      <point x="125.86116" y="511.34695"/>
      <point x="117.30899" y="421.42049" type="curve" smooth="yes"/>
      <point x="108.21108" y="325.75557999999995"/>
      <point x="105.87754" y="226.86479999999995"/>
      <point x="137.56964" y="136.1445799999999" type="curve" smooth="yes"/>
      <point x="148.31985" y="105.37157999999988"/>
      <point x="162.90176" y="75.94166999999993"/>
      <point x="180.8441" y="48.72818999999993" type="curve" smooth="yes"/>
      <point x="189.32282" y="35.868349999999964"/>
      <point x="184.65875" y="24.138729999999896"/>
      <point x="169.42419999999998" y="21.84272999999996" type="curve" smooth="yes"/>
      <point x="52.076345" y="4.1572700000000395" type="line" smooth="yes"/>
      <point x="36.841799" y="1.8612699999999904"/>
      <point x="23.697824" y="12.465529999999944"/>
      <point x="23.034799" y="27.857629999999972" type="curve" smooth="yes"/>
      <point x="21.566104" y="61.95335"/>
      <point x="21.248892" y="96.09866999999997"/>
      <point x="22.084602" y="130.21577000000002" type="curve" smooth="yes"/>
      <point x="26.455263" y="308.64402"/>
      <point x="62.236416" y="488.10161"/>
      <point x="34.122113" y="664.3552" type="curve" smooth="yes"/>
      <point x="29.662998" y="692.31019"/>
      <point x="23.607825" y="720.010399"/>
      <point x="15.999179" y="747.277082" type="curve" smooth="yes"/>
      <point x="11.85848" y="762.115877"/>
      <point x="20.279621" y="776.280069"/>
    </contour>
    <contour>
      <point x="311.00708" y="588.0106000000001" type="line"/>
      <point x="401.83261" y="545.90715" type="line" smooth="yes"/>
      <point x="415.81037" y="539.4275600000001"/>
      <point x="421.60307" y="522.9679100000001"/>
      <point x="413.94813999999997" y="509.59982" type="curve" smooth="yes"/>
      <point x="378.87041" y="448.34231"/>
      <point x="331.12212" y="394.35006000000004"/>
      <point x="274.51381" y="352.16711000000004" type="curve" smooth="yes"/>
      <point x="226.11039999999997" y="316.09822"/>
      <point x="171.31705999999997" y="288.62997"/>
      <point x="113.45571999999999" y="271.42766000000006" type="curve"/>
      <point x="121.76147999999998" y="331.9687400000001" type="line"/>
      <point x="210.58151999999998" y="302.07585000000006"/>
      <point x="292.88879" y="252.99182000000008"/>
      <point x="361.40716" y="189.05577000000005" type="curve" smooth="yes"/>
      <point x="412.37593" y="141.49566000000004"/>
      <point x="455.71360999999996" y="85.78243000000009"/>
      <point x="489.33408" y="24.716049999999996" type="curve" smooth="yes"/>
      <point x="496.764" y="11.220739999999978"/>
      <point x="489.77483" y="0.0"/>
      <point x="474.36824" y="0.0" type="curve" smooth="yes"/>
      <point x="386.53655000000003" y="0.0" type="line" smooth="yes"/>
      <point x="371.12996000000004" y="0.0"/>
      <point x="353.06734000000006" y="11.183959999999956"/>
      <point x="345.58457000000004" y="24.650179999999978" type="curve" smooth="yes"/>
      <point x="336.84336" y="40.381110000000035"/>
      <point x="327.49034000000006" y="55.772089999999935"/>
      <point x="317.55286000000007" y="70.77600999999993" type="curve" smooth="yes"/>
      <point x="288.13454" y="115.19268999999997"/>
      <point x="253.53877" y="156.24518"/>
      <point x="214.11449" y="192.07821" type="curve" smooth="yes"/>
      <point x="167.3338" y="234.59753999999998"/>
      <point x="113.8" y="269.67152"/>
      <point x="56.136984" y="295.58104" type="curve"/>
      <point x="108.76013" y="327.32489"/>
      <point x="156.99503" y="366.33208"/>
      <point x="199.04534" y="411.14992" type="curve" smooth="yes"/>
      <point x="234.39944000000003" y="448.83084"/>
      <point x="266.05822" y="491.97158"/>
      <point x="279.16082" y="541.95243" type="curve" smooth="yes"/>
      <point x="281.73583" y="551.7750000000001"/>
      <point x="283.56865" y="561.7915300000001"/>
      <point x="284.64644" y="571.8886200000001" type="curve" smooth="yes"/>
      <point x="286.28040999999996" y="587.19613"/>
      <point x="297.02932" y="594.4901900000001"/>
      <point x="311.00708" y="588.0106000000001" type="curve"/>
    </contour>
  </outline>
</glyph>
<glyph name="l" format="2">
	<unicode hex="006C"/>
	<advance height="1024" width="152"/>
	<outline>
		<contour>
			<point x="20.651739" y="17.80465" type="curve" smooth="yes"/>
			<point x="17.382421" y="50.99096"/>
			<point x="15.384541" y="84.30252"/>
			<point x="14.664851" y="117.64172" type="curve" smooth="yes"/>
			<point x="10.585036" y="306.63674"/>
			<point x="47.525395" y="495.79901"/>
			<point x="30.052456" y="684.02882" type="curve" smooth="yes"/>
			<point x="27.824467" y="708.030155"/>
			<point x="24.713849" y="731.949526"/>
			<point x="20.729896" y="755.722534" type="curve" smooth="yes"/>
			<point x="18.204397" y="770.792671"/>
			<point x="27.874871" y="785.591429"/>
			<point x="42.802187" y="788.859119" type="curve" smooth="yes"/>
			<point x="102.76442" y="801.9852578" type="line" smooth="yes"/>
			<point x="112.89331" y="804.2025387"/>
			<point x="121.06629" y="797.5945098"/>
			<point x="120.96395" y="787.226292" type="curve" smooth="yes"/>
			<point x="120.59001" y="749.342142"/>
			<point x="119.66803" y="711.4634"/>
			<point x="118.19838" y="673.60592" type="curve" smooth="yes"/>
			<point x="111.06234" y="489.78549"/>
			<point x="91.097643" y="304.46632"/>
			<point x="120.01868" y="122.79506" type="curve" smooth="yes"/>
			<point x="123.77105" y="99.22404"/>
			<point x="128.34027" y="75.78309"/>
			<point x="133.71474" y="52.52824" type="curve" smooth="yes"/>
			<point x="136.59495" y="40.06582"/>
			<point x="129.27976" y="26.9468"/>
			<point x="117.06438" y="23.15225" type="curve" smooth="yes"/>
			<point x="46.082549" y="1.10272" type="line" smooth="yes"/>
			<point x="33.454516" y="-2.82"/>
			<point x="21.948124" y="4.64526"/>
		</contour>
	</outline>
</glyph>
<glyph name="r" format="2">
	<unicode hex="0072"/>
	<advance height="1024" width="345"/>
	<outline>
		<contour>
			<point x="232.40126" y="388.15347" type="line"/>
			<point x="237.62167" y="413.54616"/>
			<point x="238.96946" y="439.73303"/>
			<point x="236.36958" y="465.52659" type="curve" smooth="yes"/>
			<point x="233.01478" y="498.80973"/>
			<point x="223.06454" y="531.41501"/>
			<point x="207.26419" y="560.90011" type="curve"/>
			<point x="276.06767" y="571.58635" type="line"/>
			<point x="255.06482" y="543.65877"/>
			<point x="236.23399" y="514.09816"/>
			<point x="219.80121" y="483.25934" type="curve" smooth="yes"/>
			<point x="195.25396" y="437.19239"/>
			<point x="176.08995" y="388.32354"/>
			<point x="161.76201" y="338.1295" type="curve" smooth="yes"/>
			<point x="149.57935" y="295.45086"/>
			<point x="140.85628" y="251.64262"/>
			<point x="138.3739" y="207.32873" type="curve" smooth="yes"/>
			<point x="134.98094" y="146.75967"/>
			<point x="143.39804" y="85.55339"/>
			<point x="162.98744" y="28.14075" type="curve" smooth="yes"/>
			<point x="164.07572" y="24.95122"/>
			<point x="162.31769" y="21.83752"/>
			<point x="159.01433" y="21.1701" type="curve" smooth="yes"/>
			<point x="32.049584" y="-4.48205" type="line" smooth="yes"/>
			<point x="28.74622" y="-5.14947"/>
			<point x="26.543576" y="-3.00015"/>
			<point x="27.115459" y="0.32109" type="curve" smooth="yes"/>
			<point x="40.07559" y="75.58762"/>
			<point x="47.555951" y="151.79723"/>
			<point x="49.476197" y="228.1473" type="curve" smooth="yes"/>
			<point x="51.57749" y="311.69589"/>
			<point x="46.961949" y="395.82618"/>
			<point x="28.598963" y="477.35889" type="curve" smooth="yes"/>
			<point x="20.890737" y="511.58386"/>
			<point x="10.777103" y="545.2668"/>
			<point x="-1.6413433" y="578.07755" type="curve" smooth="yes"/>
			<point x="-2.8342961" y="581.22945"/>
			<point x="-1.1837218" y="584.47547"/>
			<point x="2.0739722" y="585.33866" type="curve" smooth="yes"/>
			<point x="104.47631" y="612.47207" type="line" smooth="yes"/>
			<point x="107.73401" y="613.33526"/>
			<point x="110.41208" y="611.30325"/>
			<point x="110.45797" y="607.93345" type="curve" smooth="yes"/>
			<point x="111.40479" y="538.40164"/>
			<point x="112.35399" y="468.86987"/>
			<point x="113.30559" y="399.33813" type="curve" smooth="yes"/>
			<point x="114.35721" y="322.49795"/>
			<point x="115.41175" y="245.6578"/>
			<point x="116.4692" y="168.8177" type="curve"/>
			<point x="61.829699" y="166.53686" type="line"/>
			<point x="75.036645" y="211.3085"/>
			<point x="86.817957" y="256.50067"/>
			<point x="97.149775" y="302.02184" type="curve" smooth="yes"/>
			<point x="114.83701" y="379.95039"/>
			<point x="128.80454" y="460.31894"/>
			<point x="167.33602" y="530.32624" type="curve" smooth="yes"/>
			<point x="176.68822" y="547.31812"/>
			<point x="187.42331" y="563.54854"/>
			<point x="199.39858" y="578.80564" type="curve" smooth="yes"/>
			<point x="201.47934" y="581.45664"/>
			<point x="205.88848" y="584.09611"/>
			<point x="209.19633" y="584.7409" type="curve" smooth="yes"/>
			<point x="281.66765" y="598.86751" type="line" smooth="yes"/>
			<point x="284.9755" y="599.5123"/>
			<point x="288.7296" y="597.52227"/>
			<point x="290.02417" y="594.41073" type="curve" smooth="yes"/>
			<point x="303.15728" y="562.8451"/>
			<point x="314.1151" y="530.37457"/>
			<point x="322.79285" y="497.30546" type="curve" smooth="yes"/>
			<point x="328.78957" y="474.45321"/>
			<point x="333.69837" y="451.31553"/>
			<point x="337.49751" y="427.99703" type="curve" smooth="yes"/>
			<point x="338.03944" y="424.67079"/>
			<point x="335.89227" y="421.02111"/>
			<point x="332.73212" y="419.85014" type="curve" smooth="yes"/>
			<point x="236.82292" y="384.31186" type="line" smooth="yes"/>
			<point x="233.66277" y="383.14089"/>
			<point x="231.72262" y="384.85248"/>
			<point x="232.40126" y="388.15347" type="curve"/>
		</contour>
	</outline>
	<anchor name="top" x="144.89188" y="595.03725"/>
</glyph>
<glyph name="z" format="2">
	<unicode hex="007A"/>
	<advance height="1024" width="471"/>
	<outline>
		<contour>
			<point x="63.221046" y="420.34499" type="line"/>
			<point x="4.8743217" y="473.57973" type="line" smooth="yes"/>
			<point x="-4.1153998" y="481.78183"/>
			<point x="-7.1695652" y="497.38965"/>
			<point x="-0.54252932" y="507.58716" type="curve" smooth="yes"/>
			<point x="22.119003" y="542.45811"/>
			<point x="56.596898" y="569.64172"/>
			<point x="95.996014" y="583.06253" type="curve" smooth="yes"/>
			<point x="146.34456" y="600.21312"/>
			<point x="201.08095" y="595.126"/>
			<point x="254.26692" y="594.51673" type="curve" smooth="yes"/>
			<point x="315.91318" y="593.81055"/>
			<point x="377.6294" y="599.43016"/>
			<point x="438.13693" y="611.24354" type="curve" smooth="yes"/>
			<point x="450.08033" y="613.57535"/>
			<point x="455.71003" y="606.71114"/>
			<point x="450.7537" y="595.59699" type="curve" smooth="yes"/>
			<point x="406.48444" y="496.32704"/>
			<point x="360.85004" y="397.66586"/>
			<point x="313.86772" y="299.6508" type="curve" smooth="yes"/>
			<point x="272.9036" y="214.19098"/>
			<point x="230.9148" y="129.22233"/>
			<point x="187.91338" y="44.76928" type="curve"/>
			<point x="149.34266" y="95.15171" type="line"/>
			<point x="182.12395" y="91.3573"/>
			<point x="215.12136" y="89.43092"/>
			<point x="248.12149" y="89.38501" type="curve" smooth="yes"/>
			<point x="287.11756" y="89.33081"/>
			<point x="326.44321" y="91.95728"/>
			<point x="364.01043" y="102.41677" type="curve" smooth="yes"/>
			<point x="400.81281" y="112.66331"/>
			<point x="435.48478" y="130.45669"/>
			<point x="465.33765" y="154.28673" type="curve" smooth="yes"/>
			<point x="474.84589" y="161.87668"/>
			<point x="481.64674" y="158.83276"/>
			<point x="481.20598" y="146.67154" type="curve" smooth="yes"/>
			<point x="477.16635" y="35.2111" type="line" smooth="yes"/>
			<point x="476.72559" y="23.04988"/>
			<point x="466.63051" y="11.58694"/>
			<point x="454.55333" y="10.09872" type="curve" smooth="yes"/>
			<point x="437.39227" y="7.98405"/>
			<point x="420.14055" y="6.60505"/>
			<point x="402.86142" y="5.96795" type="curve" smooth="yes"/>
			<point x="326.59912" y="3.15606"/>
			<point x="250.19361" y="14.78122"/>
			<point x="174.0637" y="9.48209" type="curve" smooth="yes"/>
			<point x="135.56207" y="6.80213"/>
			<point x="97.365711" y="-0.22401"/>
			<point x="60.425111" y="-11.4006" type="curve" smooth="yes"/>
			<point x="48.778245" y="-14.92442"/>
			<point x="44.909047" y="-9.99542"/>
			<point x="51.535185" y="0.2116" type="curve" smooth="yes"/>
			<point x="110.99222" y="91.80026"/>
			<point x="166.06428" y="186.23544"/>
			<point x="216.49815" y="283.0861" type="curve" smooth="yes"/>
			<point x="261.08056" y="368.69992"/>
			<point x="302.0395" y="456.20054"/>
			<point x="339.22856" y="545.27518" type="curve"/>
			<point x="358.5579" y="507.63618" type="line"/>
			<point x="336.97324" y="512.14662"/>
			<point x="315.12756" y="515.40765"/>
			<point x="293.16664" y="517.39752" type="curve" smooth="yes"/>
			<point x="266.80165" y="519.78644"/>
			<point x="240.12621" y="520.33349"/>
			<point x="213.94458" y="516.41662" type="curve" smooth="yes"/>
			<point x="187.76294" y="512.49975"/>
			<point x="162.00884" y="503.98294"/>
			<point x="139.97374" y="489.31072" type="curve" smooth="yes"/>
			<point x="116.79028" y="473.87386"/>
			<point x="98.240226" y="451.64902"/>
			<point x="86.910349" y="426.22137" type="curve" smooth="yes"/>
			<point x="81.962287" y="415.11644"/>
			<point x="72.210768" y="412.14289"/>
			<point x="63.221046" y="420.34499" type="curve"/>
		</contour>
	</outline>
	<anchor name="top" x="229.01007" y="648.32217"/>
</glyph>
<glyph name="braceleft" format="2">
	<unicode hex="007B"/>
	<advance height="1024" width="286"/>
	<outline>
		<contour>
			<point x="270.1139" y="711.174108" type="line"/>
			<point x="283.54923" y="785.345252" type="line" smooth="yes"/>
			<point x="285.0153" y="793.4388457"/>
			<point x="279.66012" y="801.33817"/>
			<point x="271.49454" y="802.3115697" type="curve" smooth="yes"/>
			<point x="223.26715" y="808.060647"/>
			<point x="173.03896" y="796.3582279"/>
			<point x="132.51534" y="769.525349" type="curve" smooth="yes"/>
			<point x="110.78456" y="755.136227"/>
			<point x="91.726008" y="736.472352"/>
			<point x="78.033974" y="714.295749" type="curve" smooth="yes"/>
			<point x="64.34194" y="692.11915"/>
			<point x="56.139721" y="666.38048"/>
			<point x="55.827003" y="640.31948" type="curve" smooth="yes"/>
			<point x="55.301866" y="596.5561"/>
			<point x="76.351356" y="555.7694"/>
			<point x="86.326991" y="513.15489" type="curve" smooth="yes"/>
			<point x="91.314809" y="491.84764"/>
			<point x="93.517583" y="469.47284"/>
			<point x="88.798727" y="448.10441" type="curve" smooth="yes"/>
			<point x="86.439299" y="437.4202"/>
			<point x="82.343678" y="427.07586"/>
			<point x="76.319432" y="417.94198" type="curve" smooth="yes"/>
			<point x="70.295185" y="408.8081"/>
			<point x="62.314263" y="400.90545"/>
			<point x="52.858908" y="395.39949" type="curve" smooth="yes"/>
			<point x="41.696958" y="388.89976"/>
			<point x="28.544353" y="385.96047"/>
			<point x="15.66756" y="386.83723" type="curve" smooth="yes"/>
			<point x="7.4800597" y="387.3947"/>
			<point x="1.0923197" y="382.88955"/>
			<point x="1.1327303" y="374.66435" type="curve" smooth="yes"/>
			<point x="1.504492" y="298.99563" type="line" smooth="yes"/>
			<point x="1.544903" y="290.77043"/>
			<point x="8.0374143" y="286.07212"/>
			<point x="16.229709" y="286.61711" type="curve" smooth="yes"/>
			<point x="27.560622" y="287.37089"/>
			<point x="39.074081" y="285.47529"/>
			<point x="49.519461" y="281.01096" type="curve" smooth="yes"/>
			<point x="63.917433" y="274.8573"/>
			<point x="76.07205" y="264.03572"/>
			<point x="85.009144" y="251.17891" type="curve" smooth="yes"/>
			<point x="93.946238" y="238.32211"/>
			<point x="99.77941" y="223.48477"/>
			<point x="103.37286" y="208.24482" type="curve" smooth="yes"/>
			<point x="110.06233" y="179.87452"/>
			<point x="109.14069" y="150.2737"/>
			<point x="106.51834" y="121.24361" type="curve" smooth="yes"/>
			<point x="103.89599" y="92.21352"/>
			<point x="99.608743" y="63.25601"/>
			<point x="99.688082" y="34.10783" type="curve" smooth="yes"/>
			<point x="99.809647" y="-10.55385"/>
			<point x="111.08541" y="-56.59211"/>
			<point x="139.45299" y="-91.08792" type="curve" smooth="yes"/>
			<point x="156.73388" y="-112.10198"/>
			<point x="179.96573" y="-128.16734"/>
			<point x="205.72708" y="-136.91795" type="curve" smooth="yes"/>
			<point x="226.78707" y="-144.07161"/>
			<point x="249.48385" y="-146.31849"/>
			<point x="271.54749" y="-143.54526" type="curve" smooth="yes"/>
			<point x="279.705" y="-142.51992"/>
			<point x="284.85069" y="-134.40702"/>
			<point x="283.18157" y="-126.35285" type="curve" smooth="yes"/>
			<point x="267.40914" y="-50.2446" type="line" smooth="yes"/>
			<point x="265.74002" y="-42.19043"/>
			<point x="257.67326" y="-36.01693"/>
			<point x="249.52849" y="-34.93916" type="curve" smooth="yes"/>
			<point x="238.4473" y="-33.47283"/>
			<point x="227.63552" y="-29.9517"/>
			<point x="217.84517" y="-24.55523" type="curve" smooth="yes"/>
			<point x="203.70652" y="-16.76196"/>
			<point x="191.73733" y="-5.07921"/>
			<point x="183.60396" y="8.86658" type="curve" smooth="yes"/>
			<point x="174.96195" y="23.68448"/>
			<point x="170.718" y="40.77238"/>
			<point x="169.41584" y="57.87674" type="curve" smooth="yes"/>
			<point x="168.11367" y="74.98109"/>
			<point x="169.65198" y="92.17968"/>
			<point x="171.9524" y="109.17858" type="curve" smooth="yes"/>
			<point x="176.55324" y="143.17637"/>
			<point x="184.21284" y="177.61622"/>
			<point x="178.4417" y="211.43503" type="curve" smooth="yes"/>
			<point x="173.97047" y="237.63638"/>
			<point x="161.46813" y="262.12711"/>
			<point x="144.49506" y="282.58236" type="curve" smooth="yes"/>
			<point x="127.522" y="303.03761"/>
			<point x="106.18928" y="319.59553"/>
			<point x="83.203586" y="332.94319" type="curve" smooth="yes"/>
			<point x="74.501328" y="337.99654"/>
			<point x="65.544138" y="342.61085"/>
			<point x="56.377468" y="346.76269" type="curve"/>
			<point x="51.266549" y="321.4961" type="line"/>
			<point x="64.002296" y="321.34579"/>
			<point x="76.762269" y="323.58881"/>
			<point x="88.68326" y="328.07343" type="curve" smooth="yes"/>
			<point x="107.50746" y="335.15501"/>
			<point x="124.11548" y="347.8516"/>
			<point x="136.23826" y="363.89958" type="curve" smooth="yes"/>
			<point x="148.36103" y="379.94756"/>
			<point x="156.0078" y="399.27302"/>
			<point x="158.58542" y="419.21933" type="curve" smooth="yes"/>
			<point x="161.26681" y="439.96867"/>
			<point x="158.56132" y="461.04552"/>
			<point x="154.52887" y="481.57511" type="curve" smooth="yes"/>
			<point x="150.49639" y="502.10471"/>
			<point x="145.13212" y="522.39861"/>
			<point x="142.41657" y="543.14351" type="curve" smooth="yes"/>
			<point x="140.02931" y="561.38049"/>
			<point x="139.7172" y="579.97595"/>
			<point x="142.72952" y="598.12017" type="curve" smooth="yes"/>
			<point x="145.74184" y="616.26438"/>
			<point x="152.14802" y="633.96704"/>
			<point x="162.48529" y="649.17977" type="curve" smooth="yes"/>
			<point x="173.83641" y="665.88452"/>
			<point x="189.87921" y="679.36442"/>
			<point x="208.29014" y="687.66709" type="curve" smooth="yes"/>
			<point x="222.17483" y="693.9286"/>
			<point x="237.37484" y="697.23133"/>
			<point x="252.60274" y="697.38269" type="curve" smooth="yes"/>
			<point x="260.82126" y="697.46439"/>
			<point x="268.64783" y="703.080514"/>
			<point x="270.1139" y="711.174108" type="curve"/>
		</contour>
	</outline>
</glyph>
<glyph name="copyright" format="2">
  <advance height="1024" width="653"/>
  <unicode hex="00A9"/>
  <outline>
    <contour>
      <point x="320.60938" y="701.177734" type="line"/>
      <point x="284.09988999999996" y="700.847724"/>
      <point x="247.93957999999998" y="691.88993"/>
      <point x="214.45395" y="677.33781" type="curve" smooth="yes"/>
      <point x="193.09228" y="668.0545"/>
      <point x="172.67622" y="656.46718"/>
      <point x="154.26986" y="642.19461" type="curve" smooth="yes"/>
      <point x="133.31001" y="625.94203"/>
      <point x="115.08740999999999" y="606.30535"/>
      <point x="99.470777" y="584.86747" type="curve" smooth="yes"/>
      <point x="67.20426599999999" y="540.5733"/>
      <point x="46.108943" y="488.69697"/>
      <point x="34.50285099999999" y="435.13953000000004" type="curve" smooth="yes"/>
      <point x="26.23758699999999" y="396.99867000000006"/>
      <point x="22.665259999999993" y="357.70165000000003"/>
      <point x="25.874003999999992" y="318.80764000000005" type="curve" smooth="yes"/>
      <point x="30.208389999999994" y="266.26943000000006"/>
      <point x="46.839552999999995" y="215.29323"/>
      <point x="69.50776199999999" y="167.69909000000007" type="curve" smooth="yes"/>
      <point x="79.42876799999999" y="146.86896000000002"/>
      <point x="90.56950899999998" y="126.51630000000011"/>
      <point x="104.45361999999999" y="108.08936000000006" type="curve" smooth="yes"/>
      <point x="122.88225999999999" y="83.63093000000003"/>
      <point x="145.98682" y="62.83951000000002"/>
      <point x="171.60496" y="46.060350000000085" type="curve" smooth="yes"/>
      <point x="198.28682" y="28.5844800000001"/>
      <point x="227.79525" y="15.375270000000114"/>
      <point x="258.70419000000004" y="7.503470000000107" type="curve" smooth="yes"/>
      <point x="286.02683" y="0.545020000000136"/>
      <point x="314.46090000000004" y="-2.235849999999914"/>
      <point x="342.57253000000003" y="-0.07177999999987605" type="curve" smooth="yes"/>
      <point x="382.52747000000005" y="3.004000000000133"/>
      <point x="421.37485000000004" y="16.04506000000015"/>
      <point x="456.55642" y="35.23140000000012" type="curve" smooth="yes"/>
      <point x="484.24886" y="50.33353000000011"/>
      <point x="510.04433" y="69.44085000000007"/>
      <point x="530.39985" y="93.53646000000015" type="curve" smooth="yes"/>
      <point x="540.68015" y="105.7056500000001"/>
      <point x="549.49654" y="119.0443200000002"/>
      <point x="557.67405" y="132.71553000000017" type="curve" smooth="yes"/>
      <point x="585.3865" y="179.04539000000022"/>
      <point x="606.07151" y="229.8552900000002"/>
      <point x="615.7885" y="282.95911000000024" type="curve" smooth="yes"/>
      <point x="621.98066" y="316.79957000000024"/>
      <point x="623.69991" y="351.4940200000002"/>
      <point x="620.3323" y="385.73112000000026" type="curve" smooth="yes"/>
      <point x="615.15138" y="438.40340000000026"/>
      <point x="598.00643" y="489.40752000000026"/>
      <point x="574.6747" y="536.9137500000003" type="curve" smooth="yes"/>
      <point x="564.84599" y="556.9262000000003"/>
      <point x="553.8620900000001" y="576.4660600000003"/>
      <point x="540.31561" y="594.1746700000003" type="curve" smooth="yes"/>
      <point x="521.7218" y="618.4813900000003"/>
      <point x="498.45306" y="639.0704000000003"/>
      <point x="472.67281" y="655.5605500000003" type="curve" smooth="yes"/>
      <point x="447.23795" y="671.8297700000003"/>
      <point x="419.29658" y="684.1791100000003"/>
      <point x="390.13104000000004" y="691.9887900000002" type="curve" smooth="yes"/>
      <point x="367.48196" y="698.0535500000003"/>
      <point x="344.05543000000006" y="701.3896630000003"/>
      <point x="320.60938000000004" y="701.1777340000003" type="curve"/>
    </contour>
    <contour>
      <point x="328.96484" y="603.78516" type="line"/>
      <point x="364.53699" y="601.89333"/>
      <point x="398.7885" y="589.2706800000001"/>
      <point x="430.42283" y="572.89308" type="curve" smooth="yes"/>
      <point x="454.33585" y="560.5129300000001"/>
      <point x="477.29274" y="545.76549"/>
      <point x="496.25575" y="526.6473000000001" type="curve" smooth="yes"/>
      <point x="522.8396" y="499.84590000000003"/>
      <point x="540.6655499999999" y="465.26593"/>
      <point x="551.61711" y="429.14004" type="curve" smooth="yes"/>
      <point x="561.5620200000001" y="396.33477"/>
      <point x="566.11589" y="361.8446"/>
      <point x="564.37116" y="327.60949" type="curve" smooth="yes"/>
      <point x="562.3669500000001" y="288.28301999999996"/>
      <point x="551.97724" y="249.33058000000005"/>
      <point x="533.50891" y="214.55259" type="curve" smooth="yes"/>
      <point x="521.43456" y="191.8152"/>
      <point x="505.92779" y="170.86586999999997"/>
      <point x="487.39791" y="152.99347" type="curve" smooth="yes"/>
      <point x="460.6958" y="127.23882000000003"/>
      <point x="427.82707000000005" y="108.07047"/>
      <point x="392.53677000000005" y="96.62932999999998" type="curve" smooth="yes"/>
      <point x="361.91136000000006" y="86.70055000000002"/>
      <point x="329.18285000000003" y="82.53134"/>
      <point x="297.25923000000006" y="86.70012999999994" type="curve" smooth="yes"/>
      <point x="263.20099000000005" y="91.14766999999995"/>
      <point x="230.78220000000005" y="104.97681999999998"/>
      <point x="202.10173000000006" y="123.87588999999991" type="curve" smooth="yes"/>
      <point x="179.15121000000005" y="138.99919999999986"/>
      <point x="158.30459000000008" y="157.48410999999987"/>
      <point x="141.48731000000006" y="179.22392999999988" type="curve" smooth="yes"/>
      <point x="119.09290000000007" y="208.1733499999999"/>
      <point x="104.16544000000007" y="242.5274599999999"/>
      <point x="95.90913000000006" y="278.18432999999993" type="curve" smooth="yes"/>
      <point x="87.18796400000006" y="315.84878999999995"/>
      <point x="85.77901600000006" y="355.23295999999993"/>
      <point x="92.19748400000006" y="393.35740999999996" type="curve" smooth="yes"/>
      <point x="98.53281700000007" y="430.98805999999996"/>
      <point x="112.55709000000006" y="467.43747999999994"/>
      <point x="134.11012000000005" y="498.92825999999997" type="curve" smooth="yes"/>
      <point x="145.45764000000005" y="515.5079499999999"/>
      <point x="158.91326000000004" y="530.7431899999999"/>
      <point x="174.69558000000006" y="543.1758299999999" type="curve" smooth="yes"/>
      <point x="199.16397000000006" y="562.4509899999999"/>
      <point x="228.42073000000005" y="574.4568899999999"/>
      <point x="257.16068000000007" y="586.46727" type="curve" smooth="yes"/>
      <point x="276.71602000000007" y="594.63942"/>
      <point x="296.7556200000001" y="603.0479499999999"/>
      <point x="317.93225000000007" y="603.91126" type="curve" smooth="yes"/>
      <point x="321.6083300000001" y="604.06112"/>
      <point x="325.2909000000001" y="603.98056"/>
      <point x="328.9648400000001" y="603.7851599999999" type="curve"/>
    </contour>
    <contour>
      <point x="348.90234" y="562.52344" type="line"/>
      <point x="339.88878" y="562.16338"/>
      <point x="330.93562" y="560.67053"/>
      <point x="322.22244" y="558.3350700000001" type="curve" smooth="yes"/>
      <point x="294.35836" y="550.86643"/>
      <point x="269.303" y="534.8641"/>
      <point x="248.1605" y="515.23804" type="curve" smooth="yes"/>
      <point x="236.59197" y="504.49926"/>
      <point x="226.07870000000003" y="492.64383000000004"/>
      <point x="216.55937" y="480.05277" type="curve" smooth="yes"/>
      <point x="195.46467" y="452.15116"/>
      <point x="179.14841" y="420.28342"/>
      <point x="171.62062" y="386.12469" type="curve" smooth="yes"/>
      <point x="166.08882" y="361.02313"/>
      <point x="165.35578" y="334.98606"/>
      <point x="168.12663" y="309.43197" type="curve" smooth="yes"/>
      <point x="170.9032" y="283.8251"/>
      <point x="177.22905" y="258.47641"/>
      <point x="188.28534000000002" y="235.21313999999995" type="curve" smooth="yes"/>
      <point x="200.69755" y="209.09690999999998"/>
      <point x="219.04126000000002" y="185.83494999999994"/>
      <point x="241.46984000000003" y="167.58447999999999" type="curve" smooth="yes"/>
      <point x="257.09165" y="154.87278000000003"/>
      <point x="274.90700000000004" y="144.47893999999997"/>
      <point x="294.40701" y="139.44130999999993" type="curve" smooth="yes"/>
      <point x="309.13264000000004" y="135.63708999999994"/>
      <point x="324.53064" y="134.95337999999992"/>
      <point x="339.70617000000004" y="135.96314999999993" type="curve" smooth="yes"/>
      <point x="364.97402000000005" y="137.6444499999999"/>
      <point x="390.37635000000006" y="144.20989999999995"/>
      <point x="411.38491000000005" y="158.34961999999996" type="curve" smooth="yes"/>
      <point x="418.32480000000004" y="163.02049"/>
      <point x="424.71903000000003" y="168.46669999999995"/>
      <point x="430.73468" y="174.2797099999999" type="curve" smooth="yes"/>
      <point x="435.35201" y="178.74150999999995"/>
      <point x="439.75429" y="183.42577999999992"/>
      <point x="443.92193000000003" y="188.31025999999986" type="curve" smooth="yes"/>
      <point x="448.68190000000004" y="193.88893999999982"/>
      <point x="451.55541000000005" y="204.60223999999982"/>
      <point x="450.75881000000004" y="211.89361999999983" type="curve" smooth="yes"/>
      <point x="443.54783000000003" y="277.89739999999983" type="line" smooth="yes"/>
      <point x="442.75123" y="285.18877999999984"/>
      <point x="439.26052000000004" y="285.86266999999987"/>
      <point x="435.14790000000005" y="279.7922199999998" type="curve" smooth="yes"/>
      <point x="417.73735000000005" y="254.09326999999985"/>
      <point x="392.49041000000005" y="233.71969999999988"/>
      <point x="363.5948000000001" y="222.33915999999977" type="curve" smooth="yes"/>
      <point x="347.0948000000001" y="215.8406299999998"/>
      <point x="329.2470800000001" y="212.19627999999977"/>
      <point x="311.57677000000007" y="213.69332999999972" type="curve" smooth="yes"/>
      <point x="298.29768000000007" y="214.81834999999967"/>
      <point x="285.2392300000001" y="218.87411999999972"/>
      <point x="273.82265000000007" y="225.74881999999968" type="curve" smooth="yes"/>
      <point x="258.5940800000001" y="234.91896999999972"/>
      <point x="246.56782000000007" y="248.9425299999997"/>
      <point x="238.52662000000007" y="264.79623999999967" type="curve" smooth="yes"/>
      <point x="228.05851000000007" y="285.43474999999967"/>
      <point x="224.19735000000006" y="309.04498999999964"/>
      <point x="225.28600000000006" y="332.1608699999997" type="curve" smooth="yes"/>
      <point x="226.03914000000006" y="348.15270999999973"/>
      <point x="229.09593000000007" y="364.0199099999997"/>
      <point x="234.13789000000006" y="379.2147999999997" type="curve" smooth="yes"/>
      <point x="242.56895000000006" y="404.62337999999966"/>
      <point x="256.4900600000001" y="428.0040599999997"/>
      <point x="273.30712000000005" y="448.8334899999997" type="curve" smooth="yes"/>
      <point x="280.4439300000001" y="457.6730699999997"/>
      <point x="288.15262000000007" y="466.1219499999997"/>
      <point x="297.0382000000001" y="473.2014099999997" type="curve" smooth="yes"/>
      <point x="303.05696000000006" y="477.9967799999997"/>
      <point x="309.62473000000006" y="482.15821999999974"/>
      <point x="316.74401000000006" y="485.08000999999973" type="curve" smooth="yes"/>
      <point x="324.22967000000006" y="488.1521699999997"/>
      <point x="332.33934000000005" y="489.82831999999974"/>
      <point x="340.42374000000007" y="489.4881299999997" type="curve" smooth="yes"/>
      <point x="346.75979000000007" y="489.22150999999974"/>
      <point x="353.0461700000001" y="487.7129899999997"/>
      <point x="358.7915700000001" y="485.0284099999997" type="curve" smooth="yes"/>
      <point x="369.8820500000001" y="479.8462999999997"/>
      <point x="378.6848200000001" y="470.3506599999997"/>
      <point x="384.0450400000001" y="459.34515999999974" type="curve" smooth="yes"/>
      <point x="388.3491000000001" y="450.50813999999974"/>
      <point x="390.54068000000007" y="440.71886999999975"/>
      <point x="391.0274300000001" y="430.90148999999974" type="curve" smooth="yes"/>
      <point x="391.4644500000001" y="422.08717999999976"/>
      <point x="390.5333700000001" y="413.20932999999974"/>
      <point x="388.3072100000001" y="404.67007999999976" type="curve" smooth="yes"/>
      <point x="386.4587200000001" y="397.57950999999974"/>
      <point x="389.9290200000001" y="392.37509999999975"/>
      <point x="397.2572900000001" y="392.68360999999976" type="curve" smooth="yes"/>
      <point x="446.99076000000014" y="394.7773299999998" type="line" smooth="yes"/>
      <point x="454.3190300000001" y="395.0858399999998"/>
      <point x="460.9166300000001" y="401.2535699999998"/>
      <point x="461.18224000000015" y="408.58215999999976" type="curve" smooth="yes"/>
      <point x="462.1008600000001" y="433.9283999999998"/>
      <point x="458.2015700000002" y="459.4487499999998"/>
      <point x="449.69994000000014" y="483.34661999999975" type="curve" smooth="yes"/>
      <point x="444.60200000000015" y="497.67679999999973"/>
      <point x="437.82652000000013" y="511.49626999999975"/>
      <point x="428.6792800000001" y="523.6482699999997" type="curve" smooth="yes"/>
      <point x="418.24164000000013" y="537.5145399999997"/>
      <point x="404.5711500000001" y="549.1886399999997"/>
      <point x="388.5407100000001" y="555.8401799999997" type="curve" smooth="yes"/>
      <point x="376.0671000000001" y="561.0158799999997"/>
      <point x="362.3963500000001" y="563.0624799999997"/>
      <point x="348.9023400000001" y="562.5234399999997" type="curve"/>
    </contour>
  </outline>
</glyph>
<glyph name="AE" format="2">
	<unicode hex="00C6"/>
	<advance height="1024" width="845"/>
	<outline>
		<contour>
			<point x="715.99484" y="465.61139" type="line"/>
			<point x="718.17041" y="343.07313" type="line"/>
			<point x="579.45893" y="341.80346"/>
			<point x="440.76417" y="338.70675"/>
			<point x="302.13425" y="333.78408" type="curve" smooth="yes"/>
			<point x="214.12545" y="330.65894"/>
			<point x="126.14277" y="326.79791"/>
			<point x="38.198532" y="322.20152" type="curve"/>
			<point x="47.382992" y="439.84874" type="line"/>
			<point x="132.27352" y="429.5405"/>
			<point x="217.79165" y="424.40325"/>
			<point x="303.30573" y="424.47495" type="curve" smooth="yes"/>
			<point x="441.77429" y="424.59105"/>
			<point x="580.22791" y="438.39197"/>
			<point x="715.99484" y="465.61139" type="curve"/>
		</contour>
		<contour>
			<point x="424.0751" y="715.13482" type="line"/>
			<point x="199.00092" y="700.73322" type="line"/>
			<point x="272.14191" y="758.446749" type="line"/>
			<point x="241.34459" y="636.10688"/>
			<point x="214.44697" y="512.78535"/>
			<point x="191.50363" y="388.73245" type="curve" smooth="yes"/>
			<point x="167.66701" y="259.84966"/>
			<point x="148.09872" y="130.17749"/>
			<point x="132.84161" y="0" type="curve"/>
			<point x="4.909093" y="0" type="line"/>
			<point x="34.668221" y="95.84941"/>
			<point x="62.189074" y="192.39375"/>
			<point x="87.441658" y="289.5278" type="curve" smooth="yes"/>
			<point x="131.26519" y="458.09497"/>
			<point x="168.25497" y="628.43862"/>
			<point x="198.28969" y="799.999999" type="curve"/>
			<point x="834.83677" y="800.733223" type="line"/>
			<point x="803.86391" y="656.05722" type="line"/>
			<point x="780.61878" y="670.83806"/>
			<point x="755.54074" y="682.73319"/>
			<point x="729.38759" y="691.38315" type="curve" smooth="yes"/>
			<point x="685.70549" y="705.830685"/>
			<point x="639.52091" y="711.118969"/>
			<point x="593.57913" y="713.611" type="curve" smooth="yes"/>
			<point x="542.83443" y="716.363557"/>
			<point x="491.91038" y="715.805284"/>
			<point x="441.23822" y="711.940909" type="curve"/>
			<point x="474.09128" y="781.332091" type="line"/>
			<point x="475.38519" y="643.68587"/>
			<point x="476.76615" y="506.04046"/>
			<point x="478.23416" y="368.39598" type="curve" smooth="yes"/>
			<point x="479.45192" y="254.21612"/>
			<point x="480.72957" y="140.03689"/>
			<point x="482.06713" y="25.85837" type="curve"/>
			<point x="433.79514" y="80.32131" type="line"/>
			<point x="487.10271" y="80.53111"/>
			<point x="540.40327" y="82.52022"/>
			<point x="593.5782" y="86.28422" type="curve" smooth="yes"/>
			<point x="624.90512" y="88.5017"/>
			<point x="656.27399" y="91.34743"/>
			<point x="687.01992" y="97.74907" type="curve" smooth="yes"/>
			<point x="724.63283" y="105.58049"/>
			<point x="761.1333" y="118.73515"/>
			<point x="795.09457" y="136.69884" type="curve"/>
			<point x="834.83677" y="0.7632" type="line"/>
			<point x="356.87459" y="0.7632" type="line"/>
			<point x="382.41958" y="139.94286"/>
			<point x="394.92615" y="281.51268"/>
			<point x="394.17719" y="423.0152" type="curve" smooth="yes"/>
			<point x="393.57889" y="536.05319"/>
			<point x="384.53046" y="649.04551"/>
			<point x="367.13233" y="760.738169" type="curve"/>
		</contour>
	</outline>
</glyph>
